<mxfile host="app.diagrams.net" modified="2023-12-10T10:59:15.450Z" agent="Mozilla/5.0 (Windows NT 10.0; Win64; x64) AppleWebKit/537.36 (KHTML, like Gecko) Chrome/119.0.0.0 Safari/537.36" etag="1uOcYLRF7UjaYxU4Aj-r" version="22.1.7" type="github">
  <diagram name="Page-1" id="fugJBaz81OrmRpIWmfQr">
    <mxGraphModel dx="880" dy="478" grid="1" gridSize="10" guides="1" tooltips="1" connect="1" arrows="1" fold="1" page="1" pageScale="1" pageWidth="850" pageHeight="1100" math="0" shadow="0">
      <root>
        <mxCell id="0" />
        <mxCell id="1" parent="0" />
        <mxCell id="wo6zQ_CCHhRpuCBlTyBM-1" value="" style="whiteSpace=wrap;html=1;rounded=1;" vertex="1" parent="1">
          <mxGeometry x="40" y="60" width="180" height="420" as="geometry" />
        </mxCell>
        <mxCell id="wo6zQ_CCHhRpuCBlTyBM-4" value="" style="rounded=1;whiteSpace=wrap;html=1;fillColor=#115A21;" vertex="1" parent="1">
          <mxGeometry x="40" y="60" width="180" height="50" as="geometry" />
        </mxCell>
        <mxCell id="wo6zQ_CCHhRpuCBlTyBM-5" value="" style="shape=image;verticalLabelPosition=bottom;verticalAlign=top;imageAspect=0;image=data:image/png,iVBORw0KGgoAAAANSUhEUgAAAUAAAABzCAYAAADpCdsdAAAABHNCSVQICAgIfAhkiAAAAAlwSFlzAAAuGAAALhgBKqonIAAAAB90RVh0U29mdHdhcmUATWFjcm9tZWRpYSBGaXJld29ya3MgOLVo0ngAAAP+cHJWV3ic7ZexcttGEIYPpCU7SqTgAAqkxVDaU8A4juATySODpOOkSatHoBs0adim4yOoDDpXqf0EGdYJJqOZvIDeIHyCXHaPlATJiuXMkHChXeADDrc4/LsH4HD4/Z/f/hZT8dKSFbjYAre5LTJbGJvnNstsZqwxVuAqCndSYXM6iwwLWVEY2ud5kWdFboosKzJTGFwFVaPDkedZnhvaZFmemdxkuTEZtcdmhqrR4cgyg0tmjHHnGXdsHMYIQTxs/mI+xt18vsRtJxaodDlfnTOz45JXjPGwZyd0OLG9lcPO3ImrYumqrg4L77SYX13+ISM9ge3LIYLTG9v3hLiKf74Q94ZYuupViO+0+OAQwV6cjWeLWyGKc3s+niwW7wtxat+enb210/tDLF11ZifLfrvb4oNDFJOFtYvJzPrlluf4PJ9fX+O+EMWM2k3/l9R6DcbwcYTZHruN/QdOkGEghRdgqS6DUrXcZFQl80Ap1QyDsKmaH0MfpQIMAINQh+VaqE7fF56Kldwr36oK8gdYKmnwfHlY29vv3PKuVcuNy7S/qfLSrsvx613hAwCWa7suHqdcRf6nTqkj5J6UtWtB1XfVsHF9cYqSst+h5Pf3QGpJnSBiTdt15X+BD1Vv8QanCfgBBCzcWNBQQkQ66HX6HY1B6Oj7CKsVOC+sR5/mS/i9vqTSm8Utx9b2sRLNI9BA6qClTqHmxe3nnqjk/ofbjSQ+UbLnIqAllXHc3mnXyQsb16+3GhrvOiav4ctlBEJG7W6XnFWMf1vHp/siVUcYQULdTwOCPP1qOQrDmkRWs+bx2dTevWTQaDV1is89QtnLFCJod133rzF/f3Gxmm2L2WXZ0Wy0wki73l92fwri6RcHkXPeDXb9Vm9st46DlbR7A1Lh4eP3jJxV3P8wbKnwW+oB2ZPuPoinO+32J84J69HA2fll7z98KlRdSHXwChS4twDqmP5Bm3xV5K/6Io5TevKPTo80jsT6+c5nmH+NnLB5fWgK2b0ae3B99V37050XB+2Kxj+B39+g66vr4U9D3O3GLw4qyl/iQCdj6UupI/cO4hsJ+PmPnXPz+csmvoMJfnM7yYnWCc4CRIBjj9d0Xti4fhTt4uRLp6PhYDAaDAY6OYlJ1Y0/FeSvtDZ61B+awUgng6FJhqN0kLyMwHlh0/JPwuFoRFmTtZa7wTfJaBg+EVXkH0SJPqRhF/aVPk5oFibhRCU6CMkNm9bHHx/wPUrTC1SSuKeujiEkuqr3/yYUIb3PazdHZFChPhsbG9sjNZwjix+2xI9//fRatH7989kvP/9B/wBjQX9P6GMYhmEYhmEYhmEYhmEYhmEYhmEYhmEYhmEYhmEYhnnM/As6wEWIHlsP4wAAAEhta0JG+t7K/gAAAAQAAAAAAAAAAAAAAAAAAAAAAAAAAAAAAAAAAAAAAAAAAAAAAAAAAAAAAAAAAAAAAAAAAAAAAAAAAAAAAAAAAAAAKaQzoQAAHXVta1RTeJztXetT28iW152dTAIhr5mt2a3aL1Rtbe2nydXb8keMMTAx4GuZhORLSn4o8R1C5gJhJuvS/77nnG7JUrslS8I2ZqJQoW21Ht2/8z59Why9atxMWt3d8UQLuv84Hk+s4UC1+5YTnLV3/YkavGXNm8OmPzF0NTg47PkTTbOC7p6LH5yXmqaqKlztnuJNGvtwL5/+BZ12+2bS6MCv3Z3e1UTZUPrKQHmvdJSRcgGfxsp5cHh8BD2b0HMBPZryC/SOlT/hjPOg2zzpw7MbOzAubNzxxBg5QaN5SE86OoInQQOHvaDh7tFJbov63ANqGm062HhFze4xv8Fei753e3RSq0HfWl1qjtlBtzOe1O2g0WOdPXb3nssecsTux5rDHRzlMY5KDZon2njiQKPjbZonBjUtOKhDo7PGwCbIhcx/yJBRtpUdOHoN33+BT+fQesoV9AxXiZl2S8y0ZWH2mGO2r1wCLr8rH6HvWhllYmMybEYZ2KhSbAaDBDZqBjYDh2GDclQQHc1k8HgMHo/B4zB4HAaPE7idd/CUfuC6vO2cAGqWBwf4h3wAvuAA7iqfgbk+A4zAWsB08TPjYMKNCU3dykLTy4GmwGlZaAqc5i1WOglC25ZA6HYarMdlbRzSRxzSBsnjWBlwQJ9xQF0A0wde3Fa68OkLHBvOlVoplppvLlZujUFJufWKyu08jA7g+CWx2y0xWrA1KICQuhyEtmYQakPvxbI0273EZiphpbERZasIOncsW6FKbxI6H0luGD4bHJ8m4HON1nBlWidThw/MktCoDBqVQaMyaFQGjcqgUXNC8zSCJuqZClkmSPpaipaWwTwWQ8hiCFk5EXouRahJ6rkPHkK2kElRWgMDpi9cyOQ49YCPxuCG3lecjIXj9EyK01Sl30eUsqRukSgdQOspN8rXe+k0aslwxmIwWQwmj8HkMZiSwcoWh2kHGOQSrHsDfn9BWDhYjzhY+ZgIBx7DxzYZQNQ/FyDHzLBvFNvFIBre0jPSGUI6Q8hkCJkMIZMFfEjWRMSH06BwBQ4UwTCMm3vAYn+Cj/CFBX7ZSErlMRtIrc6h1PtZwbMIZaHwuTSYej0fmE85mLvAcOeUgvkQpRu+Ck4XMuUn+PxZ+ZydoOFiqxm5AxlNNYu7XZbKkCSFgEj6WdFz0vHSndxYGg6Pow1tWBi7bIGuDRl0zoAhN1qQJ6ZmeWJ6SV81H2RFAfqBA/QGZPRaCk5NYCvBGmRFOXhpAh99PleVDnPyslSDJ7catxLGLvT2SRgvMllKqy+Wp+4Cs7JC9w/Q/WM8K4GQaTGEtL7AWGFGWWUYDbKUP6qa+SiRkY3hZPM4kRTVUphL1FeR8o9j+DjC8COFhwPgIi9Km4Yctkt2E1V+tpMmyKWmD6SSKSj82qA4m5k8V+pxPjOGZm7bWR7ARpg55aamOJIdUv7X81eDBCR9M4fl9EPLif5ETiAjPuRAkk+yeBwRPjf0RpARmVsSfkBkmV8SfugWhvhhMmFWBF6S77nxBLFzYXxH3DPBixFgyvIvFOAu4KqPRgyzYgJexkGWG19aKUmHbqAXl/HIPbZ0Bh3DMB922ii3CY4YT/elgewuWZWvZF/LxGbJ0IxChJLZ/DyCrDvcolBQkhMtQ5ehZTO0bIaWzUSZKUD80PcFUUZfpntQAscerWgOlN+KMF4uIPMZZzmSxH9oW/oLF1nSicR2IZDduHJk6rIMog8jn9BTfpuTnnMYnHUGJzkoMTjV2/KlydBkQitlTFxlRUD1DEAtnhcH55UloOqcNzmmNgfVNtPYM1rrDMH0PamGbFEhAi609DC7KQDKWPRisYt2OfMG6mIKEuS8ac8suTc4eG5jdok9G6z4wsMl8N+2csQ/jZTLPLxYRLQ1a5QnfyX3G5cJHktfzcZ0+bA7oDjmI49nPpKveCktTiCjSopRTUgyM8UzkiwN7cjjyZtk8ZaKXX6owjxyO4IondHE1MFAmt3TM4LgqdtXIj5ZGp/FFds0OAnFVnNGCTx/4HieSGpiMGmKPiEuv7u0quPxBdVskfWkLnQOrwZ91YxAeeAxJHVuPwa64EEPuRfIvPU5Bhm0JcPT4YA6DNEBLzUacEwHjmg/8EM3/DBbNNONPoQuZKfLTXi3GwYx7qxDLiPFT3I3nGe0xxQxzltsq5WsGMllergt9z0hzcr52uwnDLkpY2zblBPC4mvcFl/khjaZt2ZeUZecINftcjvOv6M913yGtObPBfpxFCOugM+NYS4+F6KdiM0zU9gpTpLJnSSTYWsMGLbUGtQSSzN2lbI0GS9EGwvCEGXfy8/HmxG81+SZYqXTVR67H64PhOtWmje67boV51xL8EKTChl9KQRXywA3ZNy84IbAaX7kuxOA+nz23Iyp5HxS75WUeopp5mFnCNiFAVGYIyKzOeO/aznicDza4sqgxZQBYUeivcOYDvmTsDwgcyoT8SccwzckyiOe3qACTyHCzLfILKz9RY5UvnVmTFMU9OEjYSddcavUhrR0Nsq7TYN1ck7DD92TGL+qDGuhAnQ+xkVCJJ/Lu5+Ud99bEMve1lWVY6vL4nfmbMUdhChsF5cH8/NpvkyI7khTcBQ1LZBLw0SIEebfrPxMKvdjDRmQVHqcVpwsS3t0uWn5rHwSlg5b6DrJoOubCX0Z8l8Ra55ZF0+qQpb1kNsbrjENGXIDR+4o1XkQUOf5uLrNdCXpzDC90Zi6R2G6Q4hC00F8GEXvWFGZbbcNGQMKy2TSgNNQ87ubBOosiH1zftooMtpC2gjpQiiyDwb7wBxOiJmYw4kfyJm3VeZxkg/UDXUms0fFMH1L4Wm2bkwKda4ln1y8mQS1Ly1QFTx4qW5Mc4TSUnHJxTPOimTGc7Pk1KH8F0i2R2FRNmNaZde4C+hFFv7EHKICazoAtJQx8XiLH2+x45F0k92ucbNdY7wZSjmx5gGLkvJhGsZAuBfmQvGx2AI3XslQ1SyuNu2k2vQKWG1biqsqxZUSw2Vqy0Jrk9xNpHNzQ61BLRNjm7s6op0O68lOAZgLstVfKI4J/fMHHDpDaZZYIqvlqcXLk2MykuY5iRYwiCQWzxcv6o7ELT9grk4RnJ5G3sxn5U/yZ7bJ97mau2tNS3rgtNJaoP4ugs+cz22lN0MiO+XYukau4aAmWSOjJDEdCD+E6YwOV5I4RZZBimlNMQKfR4UXkVN0TtUvRRN88lRprorSkAyaNPMxNBMZPk/qrGuj/KG56CpJ+Ti07N0oTTdryPNCimUcY9qwunRIZ1YwDSmmdSeZNfWlykEesQtrwQO5cpD5n+L2zGm+lJuoeL6OoQ8TrFmMoe1i4P/MwX9NuZEBbda4op3DuFaCGzm3p4QpTgZWrZSXs6VUSOrnQdJ7pShqlgaFFLTBI1GDV95DSzTg6ibO5h2ubBKxPmmfWCrVSWZSU8qr0wjyJKbmMWT4CJJQQskvfC8Wx9+Rlrdi7ByDXy+S8kuzj8zBdYs7FKF/ewLHr4mN523w06SRVzGtbOXP9As6uT4/SghLSQRXbEGexVbkvH6kekRcHhzNVL6KoNlls6Ra/tXRKKVn2MXrb8K007zd8AdhduRgNjuSl9fAeQVFuU/ppz+WzmtSDyDJawNplB/a/2SqRLu9Hxu02s2bSSteR+zzaprPZNI/E3DsXQvTLZV+LGgSzznNcQ4HusVm2mJc1WIzbO0RH7W6TTql22V9qFmgOYM+6NyPBvwChjuIXgcx5MbvOvZ2g6tIQw/4ggJ6KAPlN3DDw5dHtPZfAwzHuzSA/UP4vN/BN6O02AtPVPoXxLq0sIu/DQX73mKfevv7aCVvEXbhPwlJu4DMAGaLMfAHIAeicCmQVH7OaY5zypHUYyT1KooWoehmQkgxpIxrtrjghX2nGX3lKGcyypkV5YpQ7nFEuTEtfCSlcCOSMIbelHKynlspUaOiWxG6bXC68ddOSGgW7zlN7SlHM53RTK9oVoRmjzjNXEJkHHtZBqPLMaH0SSJl8Z5yFFMZxdTEgJ7wAe3xHVq/0zu+4sr7CR+A7IzTuWeUG2qdDbVeMVcZE9yZJruiuvPQzCb7TjP6ylHOZ5TzEwPb4gPDjaN9iG7GlIsYRfpqiw9gtv90Tn+5QWpcFLBtajFEW0098c1IfDMT33p9QZQeRfCP6Z1l0xcFhPCGx09TjpebTY1NplYJSxnr2SWFxd6VIno80x7R45n2lKPZkNFsWNGsjPV8Q6ViowiPR5F+CI+fphwvR60Ro9aoolYRaj3k1GpQXUCIxkNOk/DoqfRoOToNGJ0GFZ3KSFWLEBnOSNX0+GnK8XLUchi1nIpa5SIIj9zsC4Fa0+OnKcfLUcti1LIqas2lVrBPCewyOG1wnFx6GcYN+bhTfGzZoOpGXa0nBqW+1J2w19TxJ9lrWmFv3+obfS3Za4edNv1LdtaiS4cj/JFi4aj4M0uW+zf8BXDDrdgAe9DRTLKBKcWxZtqal5yuETF4f+gMrGSnE/XaA32k2dKJjPxhfzCcJeXdDOGuyPGck2OPFjRpzY6Kdfap3hGumiejumoM1FQm1/r1mtZPY3JtZPqmlcbk3migamlMPntjTRxRLhld6+HfFVO8iJm0L3DWW1rrpkXb8FiMLYzEHKeD6Ku6J4hMNH9/6EN3srMuXikScJkPuiuon3Gou7TpMpK6eTBPzbs4stjcVRX/pw5b5l4s6yF3Be/TmLXpk3K7pp2tIrhS3aCqhoPjl+sGVdXrXi1NN6hq3xavtbMurWVcqokjyqXa1nr4dy1vWMj3mQp4rpUTvmH0w3yPXa+rnlVP8bRrUrNzi/vctVMQ6n+mnGJWYJ5aArdX7espGmNWncSjFSmGy3rIXQH8LcWMtwIogmUK1TyAwtFnjSoPQPnuc1cAbXKAYi/1g745Bo1FjmkWAUNDUedPLYJti3DELAJeWBM6a1YcSVseAeFlfi2nQVvr4d81IzAdPevZpPB2+ni4Vs0pI3nuc1fQPI4yTr/zGjp8Rfen+VIy6+7q8c4ZLpsOWPcyvCbRUVZfOkGMx1K1sVxp3bOxLyL7uNdq3kz2WrEKjxGxwiGVHWP6ogG/b+gNp+GSzCjah+Qp18Fex72ZNHf38NcrYpE9xaeNiMgeR/QyokOlGTR3X0Pv/ygTpUa9tqLBj6royi/weQBH8BMeG9Jfk3PgWA16VPqx6Mwa/NagB7/B4BNPdamGfEgRdcS4/KkPlf/m96GfxJVb9LKpK3AYwr/Ng/O+ApZn1/5NOP8JzG+Iji3t7qctrNDS4kbqFQdkcRvkHOP2TXF8GzA+P/ZjKL4wuwZtKbimskeXSlfRsZE/7zE975xbeRkWsWcJI42oHdU9XzJzyK/+DmhgCdfskKOPc0tD0EhcsRl71Vd0LT/334C+xswTpuc3+ZtUPCqCiF8l0nUzNpc3tF/uWvkYzUKbOdslKv4BoUtf+SfjXn72A5gTxrlX8Lz4Nf+rfAKu6YMkjGn26FtdctRPYHznyleFvQXqE6jLz4TkJRyLy8cpnH/M9j7wpz2Oyd52TPriT96A0Z5Tthe58Cu2KbywEW4NmMFg9swpXtn3fMY3uCS0g5TPhjBPmcw9S2BwCMiyXWBj/ud62B2+5+ZlNHMt+2MFwGGAvUe6QyZRavIncZen9F6EP3haKF0q43cQpfJFhC2TyMtU/pxFcEq/IyqhveZ/gmdM2fvwKo2p6ALaeYNr53ckMe9gHB8qDV1p6EpDr5GGNioNXWloiC6/EMKIZqWhKw1daej10dB2paG/YQ0dZji6VGpf+c+Vdq608zppZ6vSzt+wdg79Zxcw4i+qqTR0paErDb1GGlqrNPQ3rKF/nNXQ/HzaokBUG1Y6u9LZlc5eI52tVzr7G9bZm8rMuiFwRKWjKx1d6ej10dFmpaP/8jpagn9VeVdp50o7r0A7T2VvXSrvtEo73xPtXFXeVRq60tDrraGXUXlXaej7pqGryrtKQ1caej019DIq7yoNfV80dFV5V2nnSjuvr3ZeRuVdpZ3vi3auKu8qDV1p6PXW0MuovKs09H3R0FXlXaWzK51933T2MirvKp19X3R2VXlX6ehKR6+7jl5G5V2lo9dLRzfhWXh1TOcJeWkuiSW0swcSXldM+BkCys4KtLOIsy2srSxLzkIUtxM4JrkkPm45bVGX6Avj7s3EE7PrtpLnsrd/TnnHyaDArNY1YBZWYW57xrlt+irj94mz7iP3eQI115v7/qbU1pD3zFvz3lPOe3FdL/qjj5RwDc6jOX4LNRK64BlVvuh990VFmq6PJ/pkKlkK/lmgmCzm9kaXUWksWtvKG70bb7SIjsbMLvLRt7AXpNLRlY5elY7emkrWGmlo495raE24y/3U0M8SWm6bnsL+wN95IopzaSZj6otf8RJ/SmjsPsRwKvTWSfOOSGObRN1QY2Nk58GPD1o6jLvwbAe++6AzhnB+sAL5mTf3+Aj+C+bagGf4NALGz+/hWZfE00iJP+D7dTQ+5M//i570gOa+jb8Td30AI8vW7qI0PFA8QQt+B2gldeAjZZiVrSjBJVuJHcG3i/Itbqd9stBox2vwY8L5IX8Y8KlPHDKM5MkhH8AnTkIJvV2Ub61MO8swq+L8Iry3mcAx7CvOdzrxlAO8BlJAPIb6BjVQeb6b7w+ahX0meyXcKUc1rzdglrTxaX71bTi6oGVNcOAWcOoQfLgvdPZ2bMxhLWE7ms9VaYuInGNCv09xCtN4GszMmolhHG4RPdKMqBOH8B+9ifpKLKJsvsu3gk9gliOiwHv6q28fqB4I7zmM9IcOaFmC7E2vYvTHaz4o/RRtJj9/lBqJPYZ7ITaf4Pd7+Bz+WWT5utgTyd37CvubXGmRnnzW0xnIZr2ZGJX4BE2wLVcwEtDZ5PXmQ+mZdFTi7GUjeyE8rdjVz1KvnscH6bNMp+3z1KclEZU/T4bQ/OvEGebjkqcSvprlRZGG6Vhmc5eIS94nbiS4MslfYq1n8sw4jcQIZp52/iFeM1hKLyMCJvkDddLB6JEOwQLP6mX1TvVycqZL0sgFLeMu8ckNcWdZy2gAlohhnzytEY2mzr2zqU+G/SgFKsWTKqcWUsoiyqzGMs7Od/mWcWsqeXS3z8qYfMarYL8DpNrv9G4mZ+1d/IN6b1kTTI/plsWO4odAsCIkowu/J64VLPKej0PtePu7FuLun4GWl1Eekfv0yt9Fn31BfD+I+F5bO74vhsTyJeIZZUziT35P40WrdRFFUaJ9egG4zM4i9cpCvPJCOSAO/TvEH5hp/0Ijw3nhOBfDIcOIQ/S145A8818+X2wCZZmemM8NW3DuOdE/yr4Jz5Bn8dHDnZ1hnic+pyzjMrjvMfR/obWe7XjsdusoVYuiVHPtotS0OVeRahWpVpFqFamuX6S6OT0CvUwbnpfS0UOKWD2ucXEdTaeqyWQOGz0FL1ENQXUCVFc5WomOls84/twHqdUGsgzxRmztFa3mMJUPH8Kof6eVXpzD14iHZlf9C2edEzR/AM/BnYujiMrPuVcc7mLc5jZqB+72O650lFq1qAPldKK7R97fAFqT1lDjVtmidYp89S/Lofj82a8ibzFLlU2a5wWvYmPVOGX8I59qjFSih0+o+7RqPV23VIkSKGF36x/JZ7wK9L+PVgkZ9tPvZfDWoM8n/W5G/miYJVonf3Q6y7vAeCP8Dmcf0ZjL1EIn0dbXGG3ZfO8C96f09DAK3I5GVTbitwBBh3S2DZjZpF98no02iRY+2XuNqmssqrLBykj0dhw6w1uRbc+e+fKjsH8nD2Aaf/f5899n1L2I+aC0O8xW19RnYvJZTuiSRzamrMHtOWFIsmhQzQSTRZ3u7xAnYJbQIk5AifOJF4ZklUySTp+kcbAiTsia+fI54UcaZ/j8JB3F3Mp3gFCSC35Kvfpf0HrKecKD/A713hxOeK7sw3VfKL8zJl5aBDfE8zJqlJcx1k4zz5/9KnTDB2EMcbqG9P4SVej8CDi9JK8u/ceeQ/Ut5Z2C7zH5tABq1/nuN9T7dpTj1ckO4864PlkBtBM2xYF9sgA+RYY6xX/o+a+C2umzXj6VX8A57Nk5pTaROZBdm6ovEpR/yCvWLqka9yLad5s8WpzqA5JcjCawSo3FFmxHw2xsUbtTGRfnugrPS476MxjdBe2nYD3bUS1eWdlL+sDmGvvA8+a+fAn8mWRlOoL3lCe7ol3A1zn3uvyUcY/Smjrn/WXybuWU963k0VvFXVhbqtN/i9eg1En/12Z4LqxKvSueS5/1avI6x7T+j2tyIRV2yOptT3tKS/6I8FSpzrdPGZ0BIW2Q1R1wbwt/W7TnKKwcRls7IouNnvhqqJA26+XL/E/Eg1jhcRE9+z35WtiKOxnSVlGfS++SVx7ZrsNkhXj4xs9jQhFlvExu/X7tNJx980SevYbiSuBfaa+hWDc/f68h+obimuVd7zZc57cTfZ+yT2AR+wvFdzan7y8su/dgffYX/jV2gMt1cfgOogPiy89/eT0scm6lhcXakUoL3x8tLL4/rtLCy9PCzkK08A8wxnPynIcgUeG+iPixMnkQn1aUWLw54JnHeqwSkO3gVkHj3u0O7uRMlx8BbZAl+CqJdpC36xQFYlVAXdC4g2iU6VfWaQ3HyEHfF8RTDJdL4lTk9+1bUn1IWeYaWdU6Ud2mNaV6gup9WnWsJ6iO/306dzXrj3nm/1fkhR+pnuMrnyvbLf0VPpucGlgNuxfFxEeEJWnPW6w9OWQ5RyTZLC/t0Pp0PC9tU/WRQWvQ+Jt9x3ZIx1ZTFTA731XkpYrQ5Jmwbt6jueET744+1sretZE993WjVdzXxfUt5lvcFZ3qK9OtWfNeBY1+onrBscIyzC7McMw/oS+EcU2cSo+m9W1Lpk0NKFKjeowa1WXgb5tspUXe0SpoMzvbpVEkOHKBJEFnp3czaey2xxPftzxLteygxb6xf0GrE1HuEa2cvZ++UyeyRP5MdvY0tafbPOlP1KDVa4yx2WtR4x6NJzp8640nWtDqNumUbpf1HbDmDJugd9a4mbAHPwBnnCmZC5jOq5vJmw6c46jBAW977ju4nwofDmEWvcPmeFLzh6ZPWefeWWsxNwr2zjo3k9ZRD6ew2+5i02nTTDo7BHL7GIfewS68SafHvwMSWrDTabPGxUnv7OzSt50mNS7cZgRnNvGCfbypGvza+cd4YmHrsq8nrOng9futQ2x+dfEcD9o99rWHt/vVbRCw7Q4heoyD23fbeKztnmLTZE3bJQrsukd42d6ui5M5fuvit7ZL3w56R3iTg17vKnzh7YiY+Q9qqUg4OGvREM+OaPy9Lt0OrsTmrLlDN2+dwQ2U4PjIvJnAr/HEDqjxWaOxRhUaaFt4PrCPFVADbL13vIttb6dNj+u8oYfjQKHz6BguODpu0tOC9luYfHvnLXD/q32c62mX4cBLihsKe+UxbjdgyxZDFBk85WiXmuYhwbHbRgHZw7vtvsLje+0jYJEzkKt2q+dPNN0Keicdf6LXg+5hD7er6i9V26jXraBxAt8dI+BXVsK4AGFsdDskgD02+pMejr57DCc5/eHQ6HtAjTN/8guwyclbIE89OOkekjjutpCeHfcMNxp33LfU7LFve+xbi31r0bezFklAb2eHNdp4MsBWH09MaE+A9Z1gp7dHgtx71afhHNMMd8hYIAU6PRcG4QArEFMd9qg5PSbQD9xd6AxedY/xed1X1DTaLjbtvSb2tZs0iF9dUg2dw2M2+AZrdrDptcBi9rrHlF54F7BPj0lW+zQKXGpE43GlPCk5wtJDo7H8pxK+GApfguBH/Bk6k0+Ay9HYoZHDQBCDv94O6K7Do/1I7M5OWrRPnDW0Q1xTbb5DXA2IiTyDMZE5YEzkJHmo76lOwD6PfFOzw8cE8x6k19hzNIs9xx+y51iW7Dmjka17/Dm+ben69DlB8PoQBOE1Uy2gpdIU1EPwkTzydLFKWkuoJi1bNc1/iMYfsgFOzQh4ZHv6MPYgLZcOnHlQsN9t3kz2T0iI9k9IiPZR3Awb2resZQrPpn9wRRN4d79JD9tvvsIuVcX/8O0ArVfzNT7oxCUFduKSKAb/D5EGyTtJdsAmAAAAvm1rQlN4nF1Oyw6CMBDszd/wEwCD4BHKw4atGqgRvIGxCVdNmpjN/rstIAfnMpOZnc3IKjVY1HxEn1rgGj3qZrqJTGMQ7ukolEY/CqjOG42Om+toD9LStvQCgg4MQtIZTKtysPG1Bkdwkm9kGwasZx/2ZC+2ZT7JZgo52BLPXZNXzshBGhSyXI32XEybZvpbeGntbM+joxP9g1RzHzH2SAn7UYlsxEgfgtinRYfR0P90H+z2qw7jkChTiUFa8AWnpl9ZIO0EWAAAQJZta0JU+s7K/gB+5ioAAAAAAAAAAAAAAAAAAAAAAAAAAAAAAAAAAAAAAAAAAAAAAAAAAAAAAAAAAAAAAAAAAAAAAAAAAAAAAAAAAAAAAAAAAHic7X0HWBRZuvavTt7Znb2z8e7u3VHHMaEISM6hoQkNTYYONDlHCRJVRDJIRkAkCRKMiGJARQRRMSuKCgqCBPOYAJHw/qeqhfXOzow6O7vOzO16nvcBvv6quqreL55zqvh/AP7fvwHTMXD6vRu3Gr84eSD5/UeXN/w7vuPngmkfffC+HMG7Po//JFRPH8mQOHZobXz1prDwq/XBsx+eTJ7WcX7fe2ePNb32fhH8vWZbim1IoLONv4fgLwNnf5D9fDDy7NL7w4+Oft56puQv19u2vqt78T7h/sb/If4XPuzZa3/icMKpPTt8zhRluo7npwgeNJXbbTq7e3lWRoxLTEP1KrGjm/x/fb2pZNrDrnPf5F7QtDV4oCrPcaJ+q8Od/DQnj+MHE173nR9daCn6pPtixfQHg92fV5WtNLh2PGJz41ZnQXNt0NqbbSkSt65umXb+wZiI/38/VHqv5p7bXubzomiDI3LTXZAVy0NFuhViI3g4st1r4uAmx9uF0ZyWraWBsV0tcQroyfsv3K2juH+f4Oq2DQI0lpm/eHhCz7xuk/97XW2Hv+17KP0/Nh0utjxQE7mnIM4yPiLAJqsozbl1ywb+YOxq3lhGsuDm1o0eMeeOrVG/2bZBxP9/Br/q7azwqtrkczwwyOZRWpITsQEnlOY4o7bCE7urAnGodhlKMhyRk2SDQC/zsc3Z1nd2bfTY33cqpGhXgdeLggwBBi/zx7qbuFmrAwXsI9tDLZJWOZteqPNz6DnhsbrniMP6vhPOjfUbLO5u32A3fmmvHYrSbVBdYo/L+8zQedQYB3bY4+w+/sTmXOtLteW2Kvv3pP6+ZtduEf//GUw73LDn85zCtcnR0ctehCx3wPIAAYICuVgTzoezswn8l3HBtTZAdZEz1sdxUJ1tgfUxHOREWiA9zgbDHY7oaHKbaNnvP/L4isdo+0HrF/2H1cdvHDOeOLKVj3BfEySv5mJ3IQeHK+2RlchH825bNGw1Q+N2c2wrtUNBNv9RY7WdX1Nd2O8aDmVOO9pyWsT/fw7vNV+4wkzMXrMicV1ESULSspHERNeJ4kIfxMW4ID3dD9GrHYg98HBmvw0Oldvi8GZbHK+0Ql4q4f5iFHrOuOLMPj6uHrHFjhQLlGfaw8dWB4eKrVCyloetG2xQV2KLvRVclOTaITXVCpUbbQn3TkhOdh6uLLVbe7E50LjtQtaspuYt7+o+/F/l/1X8dvvuQouMwpXrV8R4TWTm+SMmzgkbC91Qt8OL8G2HUwf9sD2X1Am5jogjdUL9Fg/c61mJY9v52FfliHAPI1Tn2OF0tSO2k/26mu2QGEX2OxyCy7VsxMfYQN/JEREruYhJcDy/Nt1ZULkl9K9N9WnvtZ6MfZfXLuL/H/hTQU15cNHm5KfLltuMbdnshT3bfVFO+Ny1xRf5SVyUZXIR6GGOYD9L7KhwxlA7Fw8uOmGlnwV2bvLCllwnZEXzsbPQDntLBEiL4yKX1AtFBc7QNTPqtg31984tcRWPSlz+rq9VxP+3Y1GAn6++LZ9vGZ+06uC6Qp9bfL7R0+Ym9xcVhXaj5w7qTRSmmaEg2Q5b13GwJtQa+yrdiZ97IznGAZvzPVGSYo0tBS7j9bu9xpNXcYciInjn1qXY+nGtLXrtCgok/FeEvOtrFPH/7fhN3NqEcjOu5eeRq6Km3b7V815NTc3vE+Kj/mdNnK9GeAhfIzvZOSkhwal0bRT/RVWBAPZWOkhPcia53hnmxgwEe5th3SqziaxYqxIPNy4vb8Myda6VxUd7D5ZOjyzYeCBwV8Nhr6zEXyWmJr/raxXxL8SMnJzMPzM1Nf+ura7u5hLqnWrj7jDtNfv8rq+tsbe8IhCuTkakHrDA2jg7hPuZkBxhhX0bTIb3lZlfT11tNdvL3fPV/aJ984ueZR07o+wRGfGur1vEvxBiTg62N2Skpe+r6es9VVZXrVHX0Px9QFrB9+3z4Z2eS+vSUl06nAXmd0MCLEYCQ3iVLi7Wm6LC+InOtsYW1hbG4ssDeL/y8fhf/AcI/DwnVp24sTag4Ccz5/Bz4n9GXGLMn0yN2eKaaqqzGZqaHwaEhf+rx/xwY07WTk2G1rhiRBjk1iZB08I4XlNT44/pmSum1x361r7s49yClMTKzX61to42nMLShKHoJGflIH+3b9N9r6aheo4N33qNs79/P8fPE6ubLnT5V1b/YWVk5Lu+nz8n/mdg7PIKPaZW+6K5cx8t/OqrfsnFiwsUZGU/bLx4/1857qz1x/fGh6YmjDh4uD7WYurs1tBmdMgslbqqqakSb2XFXpC1fs20tpPbJvWVlkcsqwtZ7frM1df6oHew3xGfYNvauFQv16ycmFeP++t9jaVmIat9tmuoKZ+XlpQ8x/cPLdh68czW/FNXRqNbOk1dg4Pe9T39ufA/rb9jv5kNx3REbN5cEO6xVFwMJgyFUbayTLyhHvPj0LAflE8/yigu2a1RWgZW/XlsaL9/v/lSG+/CuYbfr1271khLRTVfbqlUs4aaUhWbzbTl8sxmR0X6zk3OSAr38HFI9A123ece4l1ibWOlEZ0S/psTp5v+Fh4ZwHL3d0x18eTtdXDnbtI30rPT1dH+W8CygPfrz1yi6orfNd8eOV/Q/nS9fWzy6+oMEf9CvFdWnF6pJCsNiSWLoaSkgPJABo4nq6Nhnc4LgbmWvpa6xg857nyn3HW3Z25ugmbzA9T1PcfD4bGKmzebZpy4O0R/b5Cv338Z6jI1uJYWheoqyp0qSnLbrXnGeoWFMZ/WHar5JC457rd52VlqjnaCch1tjTY5maXZplYmqs5Odp9bWVm87+vt9U+2fOb+i4iDvU8bvPPzPsxZX/yv3JfPyzaVLoiKXDUzJirqvV8w/zPq9+UXqSnJ46svZkJeUhzV/tooiNFGSao+2DrKOWoqyj/El0It1hWM/ffOSzBsfohT90ZeDI4Maly/XvttutPPXzn7RWjwck9dhtYtLU3l0ywjnTJzjnG77NKlJ2SlpS0Z6up/iI2Jm9b26LXzeF8d7L5en3iw7tPkvMwfcj8+Sk2OiWUxtW9LiC18MX/27GGxuXO3yUpJ/dXUyOiXyD8FO66l8QQV+yXEFsBCTw0yxA40VWVRu8Hwsp6G8scnL3e8zfE+Lykp6FYsKMSfDnYh4+oQvn4+fu3+1/2f9ve3fZv+ezd6OuRjElZt1dVj3Fs8b16hsrz8MkMDvQuKCvLdKmpKtoFhXp/cfnbvTb572tcjLyKT6/f9KXt/+Q+5FxrenjYvQpwNkeLIQKSJMuQXi03MmzU7npzTL5X/Tw/WFm7TUFYc1WaowMpKF0lhpsheycbKENMHxnpqf0pNfStfMvRLih413FEFz5YOtNwdxtORsfU9vWennz+5mebozNlTf01KijDnCazSGJpqFXpMRgy5v4Zaamq/93R1n/HS3j4pLsiTY+kyw5hMRoU13yxfV1fL0sKS/eeVMSu/LyaZFuyq+Htu9bofci/irUz1UJNvjEvrFHHRXRoeOnIkNn7Rtnj+/A9PtJz6JfJP3+uqjXl2dnyrbk9PC7jYGyLWiw2uqc4TM1OdubHx8W9yjA+SVnl9as81/XNV1fqItQ11XVuuXB+6fP/JcGv/DYv6hg2/FnA48h6ezpkmlsatlhz2JoaWpqK9jeDD3q4brzv2jCNHGmX8fbwLlOXkLsnLSMeaWbDn+i/z/pBrbTXtVuf1V3WXZpdlzYzOi37be/DxhVP7zhqytLElwgBWeqqwZChDW04S87+cfUhy0aLpb3m8f5n/L7+Y+Ub4Ee0gma2nBbGv5oCpIN1nz2Y4xK1yeq/5xOHX7fd5fnFqZaCdaQfPVOeEA9fQ0cXe+q/ZNTWy2fv2Ka/fuZFpYcy6SPrKYgUZGSs1FZUvBHze9GsXz7/t+c0oLy/9gmthzlNXVirQUFXetVRcPFBRVu5XEcGhkzq/qT5Q9XFGWer7R5oPfHLi5L435U1qbWrcMxdrXRT7G8Kepw83GwOoK8qOyklLuqspKb3tuf7c+P+o8/qpM8XpFjBkyIGlrtjOYzN/t8zf+3X7/XdwmHeDhbnBhJu5DpTkZaEgLz+yZOHC83n5xUdPnGvb23TizCnC+fiCOV81mFvxag62XNpa23Rmo72DS7KSrFyKqoJiamBweFzFtl1xG6t2RFpYWK9SlpMPZzK0g5Mz832yNpT6evkG+DIZDA99pq5TxKpoQWpmDjc1K3e/Bjnu3Jkzl2lqMnRXRccbJCUlBpkY6YfY8UybljuYdNqZ6jI83O3f5PrVwsMDhywMtRAfaIrdmYYI9zYe4nCMdy5dsuT3tnz+T5b/H8kGZDMyoobTE7m4dIqNykyNCV1l6fVa6iqf1Bza/337ucZ4WU9wSd2Y46IND0ttLJ43F3y+LR49eYbx8XGsCI8gMfRLfDVzJrJz8kFtJ0+dBokHVG6FvLQMTp4+i1Giu2PHTogvWEDLly0LmBh6PjLx+NnQhJmxCcXzuLKC4vj51rbxx88Gx6tr9pC6dS6lO8Y2ZI/d6r8z2t/fO8GzMplYRM5BSVEWZnpqTRxT3U+z16e+7vpnVlbl3PdwNUGsuyHSvQ3HzAwZIR4Bzr/28/b7IffzR+f/TT57nX18h71Mbzy1N2FjsTvO1GiieB0PHRdNceqg6oSnI3NrVKzDb7dsWvFd55lREGw5GmGnf8tcVxVzZ82CsoIS2rt6aZ4PHjiIJYTPuTNnQWDniGfDz/F8ZAR2PD7N8YI5c5C4NoO2k6tXr4HkB1quIKeAtvZOTEyMIyc7h7YdSjctMxcT5LiXL12GwlJpWnfRvPnYXbuf/r6LF1shIyGJBV/OmZCSWHLDnav/dYKPscKW/O88/6l7QGBaW+n/JN7TGPamjOeKKooqHsGer9vvP8r/9/H7JvHhO/j/w/ZdsRfrqqzQeVoO7ZXyKF1tiLIYQ2zdZvoifa25d2yC67fV3O9jrLslL8DkOpOpuYahrkb8fA7WvfRxarPj2xDuZ0JeVh59t+/Rsu3bq0H6apo7HokTwyOjtDzYP5DWXUzsZW/DMVp2585dqCkq0nK+jR1GRsdoua+nJ20TlL2tWB1Lx44Xo6PwcHahj0swSj5zMWKxjpuwdZzTo791DuGb+Kj+6NZObzdLhDmzRxQV5dSdfRx+Mvy/KbdvYiPf+C6ZjRvcnpytY6K3WQK36xfizrl52J6lh3iSD5rrDZ9tKDZz8vbkzchIz3h1P9WKwtChPHdmiTnHzE9FXgGSixbj9NmLNEeX265giZgYzQfXmkv4GaPB1NaZ8v3STZtp3cHBISjKytJyIwND2u+pbWNJKUj/TdvL1m07admjJ08hIykpzB0ysnj0dJCWd7R3QFZSapL/EcK/Bc+aU6Wjrda83Nn0V33Hv7Un/ENZQqDBAW8TRq2HkVle9LLBZQJjePBYo3q6mlaBAS4/af7fVvc7+Her2eI63nFCEQOHF+HB8S8x1P9rDPZ8inXJRoiOtERkgmW3gKc/Ky5yKh5+eOxEeX35SvOJaL6mnW+wXwCp5aBAcLP3Ds1HWemmSS7g6eFFOJ1AT3cPic1f0jLKzw8dbqR1jx5txvzZs2m5m4s7HeOpzdnRiZZJELs6fuIULTt19sLUcc3YxpjcsjKz6Jjw8rPnJOewBFxetIE+YyyAr888nW33zete0pDg1VYh0BnZbKk+fJIlPbwt1RfrQ3nIcTTAOp7O+Y32BouPFkT/kDHQnxP/BYVpNrh5QBb3j83B161/xyDhf6j3Y5yoVUZ+lgVWrzAd4/KYMdGRdjNONTVQ+yjFr3QbrPPVeOJvwfgyt3hdEOW/iiTOd/cJ+S8uLJriycvTm+b02rV2OmZTMvGFC9HYJIzzu2v3Tsk93b1oGWUv1haWtExysThaTp2h5QcP1k8dl2vFmeLf3z9gSk7zP2uWroDL5Rgb6Y7xDdQ37F1hMh2jU2vBZ6D3WF6Nu9FEgZUWDpvLopwtD76OKs7rSaJDQQwdSotwjbH42kVbuVn7Im3eOf/fxfOPwP/W3DgebtYtxdNTf8WjU3/HcP8nGBr4iLaBlCg2+PZGMOOzhvkCFjMsjK6H12SG8yf2+WleM2JqUM/v0PwvEVuE4yfP0Xy0tJyk5xQpPkxNTOn8fPf+A9rvKRkV02tq9tC6V691TOlaW3Fp7qlteeBy2qcXz1+A/XWHaFlHZzdV39G6uky9Kf6T16Z+k38tGw53qZszb1hGUuJJkS9rcVdDCnXu03tOV1iHe9o9K+QwsMFaC5eZ4miwkEOTnjQeSM7F7cXzcffL+XioMfdFl76YWUMo9yfB/79iA9/Df8KGFCdcqNbA44v/jcHrnxH+P8WTgd/jYc9fcOvSYuJbxhB4mcPC1vBqSYmpafF6n2tR3maIsdetUVKQo44RQvVx82Z/idS0TJoPKtezDQxoPpaSmvzqy55g+fJgYe1GeoLg0BVC3RcvYKSvL8zpJIbc+foJLT/RcoruE6nYEBK+aiouGNLHnQnSm6PzZg8tbyU9gRSJE5P8k7pBW8DhfrY+d3WruroyEux0juyPMuVVxtlv8TRlDm6xUEWauRbaVMXRq7wA5xmS6JZdiIH5hPs5BHPn4a70vJFWnSXamzzNfzL8v01seEP+jSoynUbr47TRvksOD9v/gse3vsD9AVKz98zFrRtfYV+tHviBHDiFWqN6h/5E/ArWhDvPAFoqClHqqirUMcKmajJiB1c6OmlOtm3eQvqzeXT9bs13AOnlcffefagrKQvzOuHr/KVrtO6e3bV070/p+gSEkj7xBW1Dnu4etIzSbTl9gdYtLiyeigGW1nwMPh/B0NAw+BzuK/zP0rPl8ahzc3Nzt5twNtbAAT917PDXgZOhBraaq+CG/iLcE5uHB4y5OK8tgX7x+bihLIa7cvNxm/x+e+H8kTYNca0dnqY/Kf7f1ga+uc83jrUwK8ntfnOqNupXq2P9GhZ6rhKfuCWDrh4F3OhagM4OMSQlGcPSxhBJqRbQ01GElpbK2JJFYmpsQ5aQfwnJqfjLZhmit/82hkm/HxK0nMSF2XQdHxObSPtv+aZy4ZgQ0WUZsHCr7zZGCN/xMbF0HUhxm5NXSHPd2z9A/J1F24CBrh6t++TpM7i7edD7U3EkJSWd1j16rAWS4uKT8Z9pw6X5/2zHztIrDG11sLWUYKWv9kJFQeaFp4EG+pnzaf7vL5qHWxILcUx/KXZbKOKMjRTOGZJ4IL/w3hmWtNgWP+v/OP//DnwH/5+VFYafOrGeie7yJdgZqIV9JdrobBfDuXYmLnR5YP9RD/iHmMPD16zdimd4U05G6tmi+fN3yy+V/jglgZ4finil96K5zcotoDmh8r4xideT4wD9D5/RcicHR1qXso345AxaRvV9FsYmtK6ysir6HwjzwNGjxyBBagtKNyY+mZYNjYxAW1OTPobsUmlc7xbml9TUdOr7Kf71X/JPgeG33CvE1snG1tXDUXxFTLhWTbL34A39xehdsgB3v5qPXSw5nLWTxED4Qmz2ZKCCxIdqI9mqcIHJB6WbSn7J/E871li0Zv96Ab5uIL3fvr/ieqYUGnYS7m/4YvPOUDC05OFky5pw87Yw9/V3+R9vX2dlFlP7j+7OTpPHWCknJfVq/QWWkSlGxoR9fHJc3FTOzyvbTsv27z+ARSTHUrrqGgzCp3AcKCstY2psJyVbaEP3SN2opapG6yoqKOHZ8xe0PDJi5csYMBPBEZG0rKurG6oKilT+V+dYWH7Xvfjs/I6U20c4yugiOf+6jBj8jTWx2koNl7wk0GIiBSd99bE4QxXjrJAfNAbwc+KfwsLSDdHP2uuU8bxXEkMtf8eVKjlEh5tBitRYavLS8CI9gKOrubdvoOs/2U/94YbEybHbScjIkFri6TDNSUFeHon/s4Q8rYqhZTc6rkNBWrjPogULcfPOI1q+Y/uOqT7ezskd46QVGBwaAvtlfUjFluv9D2jdwvyCf+QcEwu6xxwhtaSVmdkw4V+VY2HxnfzXb8vr22mjhYsMcRQZK4InMIaGjgZUlkoiRE8J+1kyjUd4qu/fbL/6i+H/e/BeT8+VI507NTDYq4cXfYoYvfMFeg6IQV9NFgaaSghzM0GEO/usE58tEZv0v9ZgTGu7eDVGQVr6H/wT/rQYTAy9EI7Xrs/JnervC8q20rKuzi4oysrRNrFUcinuPRaO41HjfJP8u3sH0Jw+fvwEegwGLV+ySBwDj4S6uVnZU99pRfpGahsdGwPfymqI8C9n8t3rtqbvr9sZlu3FGV1FegAvJ2NY2JlCz1AHG9hKqGdJj7WrLhIc9HrrdV8/Ov+vq+m+S+f7Pv+O77K8Xm75qH0vD8OdPDzvVMboXTlc3CYHG2MVcFnqSPHQR7ab3teuJtqxPDPDL4KXe81ouHJu2r69+5Jf5Z+K85FRQj+nNm93d5pnOeLvkzyTfaZ6Aydnt6kxv5Vh4S/ne77Ctt0HaNn58xcgS/oLSldg6zClSx2XriFIbZmTX0TL7ty9B211dYp/adJ//hPvt67u/HNWYpB53kr7/YlBnPEYf1MEeJtDk6GGSEMVbDGQfZ7JVjp0wEZj3uFw3g/l7Ufh/18Z/3tT23gFMzoOpfpvz/GfqE5h4XSRBmo3GqM0k42deSycKFdBoL0Ogu1YKHTRHQ/j6N410lIpMbdkx/OdbTullkz13lCQkcXly1doPi5fuQZpkkMoedTqaFo28mIUZqZmNJ/UnEFjUzMtv//wMZQVFIXzAIZsel6Q4trXdxltU9RYwJFGoe6Dr59A7uUcoJYmA0+GntPy+kOHqfGiYRJvlM1Npvo2Kl79tXF/fkJxBL+/0lP3xV4fDWT5G8He3hhsQ20UseTRxJSCvpLsNXcTvd/UVxX+K9z9R+d/fiT+KWjnJ3uN785hoGUfB21HbHDtoDwaqhjYtcEA62JN0LZHHvXpajdKQ/VPlPsYDDmy1OgxfWo+h+JCSnwJtm2rpmv5i62XoaWuQfuzg4MTzRnVDwTSc32zaP/PzMii+/zOzpswMWLTujJSS3G4oZHWjY1NoOcVqfHC9NQ0Or7fuNFJ95iU/SxZKIaamt0095eIrTFJniDyCYJLlkbaleYGWrYZqRFJ+5Js727z0J7IFag/DedqNwW5mj8J4OqizFABbSqLcV1xEfbYK+GoncyLXEt1h8Nhbz3m+2/l//vkPxL/03q7r6Rlxtjj0aYv0ZUliZtZErhXMR+P9s9Gb70EGsqY2FfBxNVapeO9Laqf9bcXxbD0tbGE+CXVm1GcRsfE01xQfmtrI6BtQo30clQNR237DtRPjfUu8wvA5BbyclyQivuT879Hj5/EYlIbUjx7e/tO6fr7+tEyyi7KKoT1xOMnT2FsaPi/alBddSVIS0mOF0Xy+krTHC5raKiutrQ2/+/auh1/O7It684RrhL65RagU0EMl43E8SjsK+yyUsJuE/mr18ylPztV9tp3kP1k/f9NbOMb+OTQjsTTJ/J08fTATKyNtkBrnQruNc3DwOHFuN0ojmv7lZC71gTr17HHG3dph+SluC11ceWPLFm0CEsXi0FeWgqlmzdjdGICTc0npsb63V3c6HjwgvSD+nrCOn7R/Pl0D0htvf13iM8L+0d9pi7GiB4V+7kc/tRc4b59dULdgdskxghzDVOLQccOatuyvQYL53z1j/5DYjGJDQu6lJTkzROj3P/Qc7Xk48NN+6k8MO3ixcaAbUHc8as64uhTmo9unQV47DMH10wX46JAEo16UkOdymJyDX7vrv57U+7fxlZew/+cpiKnh30FErhzaD6SV1ugbocn8XdLrI9jo36vBypLrbAqwAhVySy0Nyofb2/S/fzKybRKc2PdMS8rJnQ1lUkvr4LGlhakpqRNcZGUlEpz1N7RSccJSiZHYnzXTeGYTXl51VTN7+XmTssGh59D6uWYIqXb3nGDlhcVl04d19XReSomuLkJx4mF8w2LEeFpOMZQlvO345tNu9lz8dXr/KwsLqDlCEeFGt/HXfH5eOw2B/fV52E/WxZHvBRwQWnxeJ/UAs5lO+V3xv/b2MCPxL/V+TzT0c4cafQdW4iGzSw8PDwHvVvFcatgMTo2LkXGcl1sT9TDqQo1NO9ljV05puF3eo/NbysLIo+w9TSgSj1DVlaIJ4ODiF69Zoqn1MxcmiOqzpvkSFVRma73qO1VWwleHkLLHj99hpfr+6BI6sn+AeG88trUjJe6MxEcuJyWPSd9JoPEAnp8gNgXi6k6ITDV2Zi6yvaTc3tWf/M62dvDHYbbdRbjoe5XeKAyF18zvsKdBfNxmSWOdIE2bokvwL0581Nu2Ku8U/7fxA5+JP6puFjcnGqCoxnauH5EFtfO+WPw+h8x3LcAQ21/xbMzf0FFog6ac1TRUbcUu/LN0XFG8/rJvUZ/KC/LKpQQE8NSUvtdbG2jOSkuKpniOixsBV0PUPO8k+P+lE933rwl9OmCoildH09vWkaN42hQtSOtK4X29utCGyJ5ZTKG+HgK1wpQ68J0Xq4rosYZ5KWWPFZTklsSFvpPzwl+viN39fkaO23cYczDPaV5eKhGbGDRXPSLLUADTxYl5qoYWEzxP+/gNa78NIz3vvP4/3228CPx/4fqXaW9tdEs3Dggj9ZDWrjREYwnPX/Dsz4tDN2QxeAlcezJJH1BtgIOVWqhOtsItVvZY4eLDWz2lAQUS4otwgJS11VUbaM56ento+dnKU5M2CZ0LU/laoOX+Z/K6QdILUhtHddvQJzUecL1X6yp9V+JSSk0n1Ttv2XLDlpG1f96OkKuWXr/mP8PDV/5au33kNQCYtZmZv/Lxi8crvHZ4206fklDHHek5+P+EsK/3Fzc/3IeuqUXosZOCcd0Jal5P0p2rd1S9iPcfevnFH50/t+m/n8Te/iW7xNkJ3pNNCYxcPfyQlw7ooij9Q5oPaWJvmtWuNvKwIOTMjiUo42TBXJY7q2DI8WqKFmpvyUtyPxXxw9W0vzT6zeseXg2PEJz4uvlRfMnTj472HicllFrfRaT2o+S+/sHYWxcOJrj6uRE9w/iJI4caT5Jy6g5RJWX4wG6Okzcf7kuIC0llY4B1PrCI0dP0LLLbVchLSExyf8D0mPM/wb/nx1bv+b0GXN53JYUzvE/WCCc+7s/ax76Fy3AbntFuhe8N3cexf9Ah6n0p3dbD/8k+H/T+P+mNvKqXxB4bcv1vHtqiwkedKnhUbcz2o464WSNCQ5WGKF6vRH2lupjc7YhwpbpgqOrjPxwJk7W6p4+m8/8uO1cwxT/1BqQmIRUjBJer1y5SsduqrZTIT1gT/89ep6Xb80R9gCk/9+1/zDNX8vJU5BcJDyGmqo6bt+9T8eBxISkqTmeVSsiadmNrh56nQElU1NRxcPHz+j44uPlO8n//YVz5sz7Bv++28McxtoJv1R8p3z+wYK5eDCH/Jw1F5R8j50CrssvEn42e969K/qSv75x/FufW/638/82fvwv8j8J1bIsj6FjWUw0ZTGwO4H0+ulM1JVxUJ/DxJF0LSR46aMqjoWO7fLoOKCBtuvx48e2s9dW5jptknr5PMfkuo59dUJet2zZJvR3wlVQcDgtO3f+Ar3el5KpE/7arrTT9QG13pda60WPDSwTjg08HRyG6cs5YaoObLsiXC9STvKM2Mvx48hVq2kZtTZAV1gH3CP8f2VpbDx5bV81JvnePmahiD7C/cACOr7jofRc2vdJrkeNiQK2u6qhV2IB4Z7Yxax5g9e0lvz5zJ6Kd8b/99nAd+n8C/wzd6dZjxyK1kZzkS56muXQfdUCnT2r0HlSERcatODM10V1qhGaNhvhXLMxTpwPmnB00s000NWpnPTdSV+1s3OiOaVg83JdjpyMHJ4OC+duCwuL6VqQygNJa9No2au64gvFcOmGsD6k1nwuepkzJteXUbrmJqbCfm+JBDp7B2j57t17qHrh7oI5c+ZYstmT1xba7GGAy5riVF2PB18QfqXm4o6s0A6ov/cbyeGIjRz6iX28jAljXfJi0uuj3s3zP+8AXkcLBOO1hN/LRzTQfkkPl7ticbndF63NpN7bbIzlnhbYkmyIa0d1kJstgIulzk1p8cWfb9lSVS7xcq3/JP9ysvL4+plwTD4lKYnO7RTqmk/TstbWS5BeIjE1dzc5pxMT9Y++cU1sIi3r6rwJJTk54fiQPmtKd1V4xMt1BTORkp5Ny27c6KLixB2S/2e/fG/D58/25l5pM5bGDXkx3BPGdjyUpX18CtSaz+McoqMohrvE1iidm3ILtWrC3vrZv58r/4UbMp2Qts4MW+ocUXciFEfOr8Hh45o41qj1LDXFbCjBh42Na41gaKgKB5Y6Cm2073kZavyhqrKyfMnChf9r7FWS9IJ3739Nc/Lq/O/O/Q207GbXTXr+l5Jpa2nTz/BQW3rKP9bxurh50lz39Q9AXUnpZQyRpccRqS05IZHmngJVS1LbgwcPoaWmdpvE/1kmBgbvPWzcln3VRx+XiO93L11Ic/2Q9Px07p8lzP1UPqhny+IA8f8LjCW4SXqBe/PnoVdygdnZld+5huSXxr8Bx4x9VllehsTaeVCWlYKZvgYsTBg3jEw0BckZfqFJEbYDaoqydNwOttHDbr7KWDxbST/Q37Nsycux3sn5f5a+AT0uQ22rqHU61Dy/BOmtHgjXebScPkfPFVHc0ePDEG5BL9fxU/L0DKFPnzlzbmrM18Lc4lt0ZyHn5XNnfQO3KVsZIPH/C5aOtnJroNnji6Sn65NcQHNN4T6pG+59+TL2Exu4orgYCSxlZPFVcchYDr3iC4jvi+GWxAK/y8HGP+Re/hz5p2Dr4WY7oSCxGJudNLE53GDUjavNfeX5dyWumdFD6hnfVBcd7CL3a5eZfKanA6fiVf+nxu3KK4TPdvX09kNFUei73u6etGyU+G9QUIhw/o7kjcP1h4Xc3b5HdJWn5pAfPB6k+/2ggKCp+cKaauFzYE+eDkJTXZ3WVVZQID3AU1peX99A1Q4DJP5/yTU13toqUEW7shjuzxH2eZP5ftL3Kdl5tSWoNFNGrkADe8wVKd7pz7tkF6694st8J/y/4Zjtjw25DYVRY4YqcjjlqYCj2TrPBGZa8lqqapOff5SWFLVBU1VpwkZXEY1uijjrLtO7zFL36lJJiX/EbSdnPCZ8DNy5D1O2Mc2zrrY2PYZH+W5xSRn93C4VE8LDV2B4eBj9hHuh7ixanpmeQesWbSwn9dw8Wubu4oqnzwbxbOg53EhuENYUM5GzTji+TNnAy17h6wVfzsmKszN+fsJQBgPUeM5L7u/OnS/knrKB2UL+7xDZJRL3N9mqYR/hn+oBKHmnvFj5GSf19w7sKP2/wv/vLpw79ERPSQZXPSRwMFrnoZ8Nc46ets6rOn/amJ94RZPkgXI3TZwJlkOFiwbp2+a9nL9j4uGjJ/T8XUT4SnqchvLl7lvCuZ5zFy/TzwlS3NlwefQ4L9XThwSHCeeQSZ3g4+VDy29290JDVZ3mmJrbpdZ9U1taWga95oAa61/mu4weVxx+PgJfb9+p/EM+m0gxUqHzOcXv/bmv+v28KRugxoHaFBbjjIYETpgvxW6uKgbEhPyTn/UXrRQ+2FOU9H+F/9+ebKl7pKcii0uuUqj20zkRYsf+1eoV//T8/FoDbXUUuWqi0VN5IobPGKdiPjWvX1leSXO0a++BqTFdap6G8mWKJyMjYTyQJHG/+ahwLc+B+kZ6jIDS1VRRneI5KCRCOH5Izf/u2UvLuvvvQvrlvKCOpib93Af9ffsO0flhMgaJkxxVZSiPbpmFtN9TOf9V3idj/wlNCWSaqRNooJLkijp7FXTJkB5gDlUjzGu4xFX84FDFa98f8R/h/4eMB72FDU272FbvbGfPGdeTl8JBD+X7HlY6qiFB//QOmPdarp7cG+1sihMecqi207inJC0VraWuMbqU1GjUOCy1uZKabpKLnS/X5zQ0HafX6k3GiafPhmjf93T3nJr/9Xb3oHWpdYLSS4Xrg6nan3puiLKhlatjpo4b6LeM1n00NApDMy49J/jys2GZRWITuw1l6VhO+fhkvUf9nOR+YP4C5JuqocRUBWkm6qjkKZG6Rw2HdaVpGyG69Zc4ih+0bM54W/5+kvy/xgb+EhLm3Sm5SAyBLFXE2hlkaakoTWtpOPRNvcXxaVFP4vhaaLRRQLVAvU1TUf7z+KjoCpK/JzpfPofBsbKe4unkGeFzWznrcqZk1PMfkzHBlG0yxX9S4lpa99yFS1OxnMrp9PsDSN1obWE1pbs2MYnWPX+5g143NMk9if0RzpbGT1NsDZFjoIgOJTHS+y3AVeVFqGYr4CBzKXqkFtDP/GQQvw81YRA7UEW4gTx2+aqilK2EHsmFVB3YfECg8VHp2/9fkXfG/w+Y+5lEoJkpa8xFXxG1AuUJKy1lQxKLv02P5ehkM5HuoImD9srYYqNer6WsNKPt3Om/xKWuO1m5Yy/9Tg9qbnaS6/ojwji/Pi9/Sibg29A9P1XfU89xT8pjomNp3SNNx6bGdgx0dTFE8js1VTS5poxCdoZwLPDqje7J8QVq3e9yDWUVuUgv2wceprqINmNguTEDtQYyiGBrgKerDl+WJvF5VVxmLsE+CwUkWmkhm6eFeoE0oqxUkcBWw3UVMbRqLTm+047xcV7CT4//b9P7Pv5f830f9T++dJnDUsdxL1kctZF/ri0v85UN51ufezazteNMrOZpY7ejOkqsVAvVFRRMBfkNUbZu/vE8J9/W9PWlE4Ulm6b8NDtbWJ83NTVPyXS0GHj8TLgWPHpNzJSve7+c/7/z4Ospn1aUkUEv6SOpLZ7Eh0n+I0LDaNmDR08hLSk9RmwgQVVR6f3EtIwPtmxIU09bE/LYTFMZekpysGKojvk7Ww1H2zIH13nojKxxY0/48fXgSuK+s7Em7Mi1OxloIN1CE4eM5XGMJT1RbyJfU+LM/uBQZfbPnv/X2IHKmuigkZUcZVxzk0AlX/W0orT0Rwmx37r+UWLlyoBBX0smat00UGGhGK+nrb0tJL0Mm/c0xYWnFv3XqvRC94CV8XuWii95RI0VCd//Mko/02tMxXpqjojUf00v131T64Qn3wempaFJP89L5QYPTx/a/6lesXpHDa177XoXpMSFvSbbgEXFkMHrvfePegWEWWqoqH7YsPfA5HnOwHjv2UxvUxQ6MhDE06s0NTf93YMDIf91sSp4toDHsfYQWK4N5Zs0xfCNbiRxdDs3WGkN5pirI0pPERxV+es6Koq/L1i//ofw9874/679X2MDjjZ8c+Q7KeO8h8xEtKm6G0tX9ztjRe+Nk2e5BlrY6amFfBOlICcHQZ61d9gI1yuCG5479T+Xp7e13p0dFZMQqa3J6CzeWT/88NnziePUM/2LFtO82grsSd8mnA+inhOmYjiF8NXxxF7G0dXdM/VOMIaWNm4Lx5MnAgKCRkic7yY9w7pl0dmSMWkbvus93TU1ywxwkSOJPf7q+eYmrG/Tmd756NbH+xoaPzrS1LzM299lwslQHRtcmffMDbR+XXfon+qfnzT/b1ITfMv3Wfr6OE3k2Kmgzlf9vrOR5hcxUWu+7/xWmLN0Jmr8NCZyTJWsbPn8YvfVKfdtfMK/dPL5p1w5/UDNgd9Frs3V2FDdkLDtwIlLts4e1Pv86H4/JCQcQ8Mj9HyAsaERzTX1LEHu+kK6NyjduEnY182cOc7l8Lr2HjmVmb6h3IChrvFnroXl9BvXb3yekTFVn097icm/121cboWTHnLjWR5qVi5ur32f18zSTWmPS1y0cNxVYdDPSuePe+r3/qz5f8P4Lx0bu3wsz4n0wF7Meks9rdedH9tAlzG6xo6JLGPF/VZ8x0f+sdl3bQPXfOHkFfhd+0zfd7nlV4nVmb+uPdHA5lhZ3ZCUFIfkkiWo2b2XrgXvk5xPrQeg129LSaO9s4caFxz3DQg6IrFokSVLT/+3VdtrJo83o6B4o1hQRNjxuHWRUpu2F1Gyj4tKyz/bWzeVA7zTAvgTh31Vb4e66P15x67K113XhxgfuFwbpIszDjIDy62Zn9Y3HPlZ8f86G/iO72NFrl42UemkjkwH3ZVsfe3XnZ+6pQV7hKeviiQzpVFHd98K17CYuy4hMTPdfYP+XFRW8X55dS3lh1Rcfv/Os/t/2Xxka7hlun8NK9WjWDvDs5SZ6n5LLcEWcmHmMPG1RTip+5vOXEJwYNDLdUSzYWRmBn6wx5j9qqAqywQfH9PS4ACzrEAzl7TgX+0+2vhB3YGDiu7eXg9j8lasii+Om/T/V9/5axjqyRnb46N5MNSV/abv8dq5J9IY5/zlLgTZGn54uffKO+H/x8Ib1P4UfP39HFDqoDXma8rQcHN+7Zy3Eodj8txIXQFxFmolRhYcK9eEtYMmti6bDIxN7sjLyW1n6hkUmq10PaqX5tEsl+e1STPXc1wlVgClOAHEU22gkGiDxRk8zMnhYEEmD+LJHKg7GUPDSA+K+mpQD7LEgiwBlqTwoB3Bh0a0zYRatA3E19qMqq2xvcf2Ezi6xAUtLt1R8CytPOGsvY9TYOKGhI1hsWGM8NXhM1YfKPy9/9ZE3uool9HmAOUSX/s3nsfL2BRuhqvLJXaFcvV/6H3/yfD/hkiy5Zpio7NOv5WB1udlxemv01ez4ZuNWOurTkTxGPFmvg6n2BGukJaRpp/Xomp+RRUVqJH+W8PfChLJfMhH8aC+WgC9CAEWp5PfYwi36XwsSqO4FdAc63hZgulmAfl4ARZmCCCfaAs1oidF9Beut4LYOg40iQ1okuNIJdk8MPXg3+Da8pBSlITA+NCJVcWRWJmxeu/awiR2QNaKi8YrHO7aLOfhYITWZjsO63/S9r3RM50BW1eY4nKQVGWE1XfWwL8k/j+orivav8LFDNn2Onss2LozXr5T/8PtV07+NTw39s8hFdl/C8uP+6D6TP3kPsbmFqxRLqmT42x1J5imTOh6WkFOQZ5et0WN8VLreJdKSUGC5HcZWWl6/RbDXA/6y/nQXGMDvTDCeaQtdCJtoJXChVYGB6oJxNdDrWHgYgnJLA7k8i2wNIOLBYR3uUQBNKMEkE3lQi+QD/sIbxik+YAd5gK+vz30HUxh4sWD7XKHCetIj0G3pGDo+XPh7mWKvAD9IV0L5mVmoivfoSjsk9Kjm6dfuU//34Fvywk21dEcNAcqF0bwf9Dc/8+N/78kxvnfSHY1xgorZoUxi0ndk19tPnUkihfvc9swwuE+249/z8iPn2OSvMzVOSdC0XdDbJ2+qR60FWXB01ODwlIJaJowocRUgzbHEGqGDKgZEZjoQMVIC0oGGtC0MICuFwvMTGtI5VtCOs8K2sSP1eL4YK7k0Zwb+HBILOBDMYUDZRIDNIjvy67l44sCC+hE2EA3mQfFYnNokFjA9CP2lkA+J7CK9oZ5iBNswpxJfLAl8UYAZggPOmoKUJFbCg1VBciqyEE+wbZPLdnRIGBXorz3jth5GY3FrOia9E/O3m6bdnqgdfJ+qG2MccDWAJ1cZ7N/en/AL5F/VUc7i0FlmaXQVZS9b6yjnmhgbHDVfKXzmOEyPlgBfLCDrKGXxIFxGmdUJ47/grlCMKGgIg9eIPFbZTmsMtOEsYYi9ByNoR1M7vsKyldtoUryPWOVAKxYwt0awnUCl/i7ADorCW8kr2vG8KEfIoC+Hwe67ha0vwoEBuD6ExtJIjmA1AlShEtlYgcqxA7kCizBiCb+T46jvo78DCd2Q2KB9kpbGHpag+loCj03c+hxWDDU14KjqTYcWBqQXioFZR01El9sxnWzecOMYk6fQoXgukqG43X9OMdK5gZ3B7uNoQrh2xJmZx7KYZQnOCDX36jK9PV18M+Z/w9qt65j7SwIPl5A7F3AM6bfyaoguQTBZlpYukQcOsSXVWKJT24xwoJyYywqNcNfS80xs8Qc6ia6MHI2g5qGEjgkDxhpKsKR/DTRUiLHWQBFDWWY+hhCsNEUvtsN4bWDBX3CNyvYhuacSeyC4svIwxqGrlYkfuhCkcSTEzXa2FNjBL1QGzBIvF9C+J+fTn4ndqNLcoaBO/F9ck6WcVbgrrOE8RoefUxdoi9DfFzLUAdsKxYMrA2hwdKGhp0RFFQVoUFiknEpB861BnDZpQ/HrcYI324Ni/XccdlEwbhSvO2wWrzdJYMc521V0ZaI8mSfl5eS/HXrlWPTr11663dB/JT5n1Gcn61bmenbcqMxaPRRVwAe3fPGzZ5A8GwMYaOngZXmDCirKECV8MEy14GqQB+qPD3o2LCh78shOZwDhoANDU9iB8usoBJJOPC2gLEz4ZJnCE0bFjQizaBabALpzUaQI/ajXmUErQpjqBebwSiN+DuJEXqhAhgF8WC/xhJ69kZYtZKNvgMy6GjShIUtC8akJmFHED9fbkM454KRb4aleWaQILaouM0QCjsMwSU/XcrYsFpvAW1iLxJrbUhNaYM5GTaYTbAolU9yDIk58bZgkZyiRmpJWVJrKJGaQy+TA16JBRRTSa4h+2p6k9hhpQ8tVXmELDOd2LbVr7+rI+3I/d4Y2662iPcvnnvjdUA/Zf6/yEjxu9B61AWjT1Zg8K4jOlpdsKfOD24eXChpq0JFVw2KaorQNSQ82BlDmuRQGXmSHwgnylT+rTCBeoE5ZFJsoETuqVKsLV2T64YT/yR5WpvUcfOKzLCoyJzkemto5HDBTCefrRXAkNT0Buv5MEmxhXmADdi+PFgsM4ddogW25pngVr0eLtaawDeUjdCthjBwMwPLyQLsKA6WlFlAuoTYW5E1dEosSS1gCbMqM/C2GsGt2gBG8RwwyTnIUz1mCgH5PkXSX0oXWMF0pxHC97PhvM0EhmXkmOQ8DX24JH+Q2EHimDaJG7aGGjBiqEJVSQatl/wx0BuAZ7fd8LzP5NaTboF4+8XvHNv6OfE/PzHJvXvbVk+8eOSAW5dscbiuhFxvAVLXh4JF6nidENKTrSR1OoHOGj5UE62hnGsG5XIT/J348B8rjTGTYOFG4uOkVtPz54AtMIa9Ow/hsb5I3xiD1KpcFFSXYU1OGtZkrEXxjo3wDg1C8+ndqNydh8CYUNTWb8Sa7DDok9zjvcEE+blWuHlYF6dqTOFNYoe2nT749lysK0xB8rYSxJUVYmvDXqwtKUTFnh0o2l6JbYd2oah2M9bvLUNeZTZis6IRGOUP22BnmJM8zsw3hw6JP3a79WG+kwUtYisSVcbgEBtgk5qGyjGKK0iOC7SCCelBmSTG8RyscezYOpzY54vztS542Orw4EEHV/7o0X96993Pkf/fnrl4aGfD7mzs3OyN62dccLplE7oHClFWEwPd5ZZghZE47sGhwYjkYnaZCTiVbIjlWECF1F3mWY7wTF2G5HVx2LKtEBvKNuDStbMo3b0d3uFhhO8kGBubYO/BOmhqaIBna0M+vwAHRxt8/fg0VsYEQV1NBYdbNiOtdDVYDuZwWm2CmARLdNep4NpeZdivN4earhbC4yJx6NRe8AU8+Pv7In/TJpiamyIgPAKhERGoqq6CEdsYTl4euHj5LJ4MD+DB4G1cv3Md66rKsKG6FKGpEfBZ7wP7jbbQIjFEezMbbjX64Gw0BzONR/oPW2hTdSqpdQ1IrPGI8cazwdMY6lmNJ+cDcKXBsXVzieDvqcm/CP+f1nh8t8uljq0TDzo34PSeKOzICUR51SokZ7uRet0astnWYISRXtySRfIyubfhfCSkLceuPYU4fnIPEvJS4ebrjfi0FDS2HIa+IQt5G/LRcroZbFM29MjfRmw2rvZ0Q9fAAG4+PigpLwPb2BD7jlTCN9AN5lZGyClKRtAaT+jbmMA5yhSxGRborNNFA6nN/PJNoMbUhLOXG2oPlcPJ3YWcXwYy0tIQHL0aWgwG1qyJQsuVizCzMMeazHT09nVjdGwY4wS9d/pgzeeAay/AqpiV6Oq/hNDkSGRvy0fO7ixEbVoOB5If9AO4UCD5QmulDQz8edCNEMAxgvj8o0b03SxCbYk9dq4zyOw4bvf+jStv/B7YnzL/FP5+trV64FlvHJ7eDEF8fBBWBPuhpCAL63MTUV6ag6Q14cjJikdRUQ5Kt5RhcLgTz0duYfB5D3LXJcDTxwPF5aUoLiuC7zI/uDg7ofnUsfHVsavH3R0Fo8s8XQcrt1Tcy0hc3VNVktPR3dN66sKJLcf7uvYMNh1IR/W2GGytyYQgwAH6dmawCWRhRbY5mrebIz2dA5c0NhjWLJg58XDodBWCw5eNhoX49x0/3TgQuSriblFF2b2qzRWPN5RvHFyxasXwqlURT/r6ekbGx4cmJiaGcfz0cSSmp8LQxAh1dbUo31YFHT09cuwUpBSvg6OXO2LXpSBvywaERIdgZWo4PEI84B7uieWr/bFpSyIO7UpC7/mwkaGrLI2rLcFvc39/6vxPw9i1zEfXo3Gg2g26WqooLFoLaw7prXS1YefpDm9PV+JrsdAnsTWDxPPh570YG72LkRd3ceLsERiyDOHt5oidFXkj54/u6TpzqrGqe+CGb9vV87yenjbdrv7rEpdvdczuutvzt7a+nt/vPnXy18c7TvyptbXies/lUDQesUJwJIm3EU50HcYNNkHYDgOkZQoQkm4NmxhzqEbbQs+LQ/oCV7QcTbjQcjhq/pmzTbO+Hnw0786TgdkDj+4svP3otsS1rtalV7ouLXj6/JHm06EBn+4HNyrOdZzqOHH+wNDhw5sn+vqvwcvPC95hyxEXF4fWq62wtDTDNlKf7DiwC2YkZtW3HIKTpyP4TjbIK8uBnh4DQSGeKF/nfPnhKc1PWy/v+iXxT2FJ14X4qyf3OY3ZWzER6m+P+Mjl4PI44HAtELTMCyXFOTAzZiN4uT/6BjrGCfePnw3f6rw9cH5/6+mG9N571wTtd9oXXLjd9cnZvs43+V+bauvTI4YqsvlorrXC8WORWJXoDVsvPoxXcGG02RAWkZbwIbW87iouDEkdaudsicx1K0mdEXHpxKGgz4/Vx73JtU2/87Tj45u9F+dev1lr8eDB4eQH95v31tTkdu7Zven51rrt8PKinlHpwvrSfNiSa16TGovIiABwHXhIWLsS9sQOjIz1UZDAKuo6ZvW29/bnwP+0vfvyPm9uKmRVFgZVnG9e1XXzXPTzEzUJY63Hc160n86+23tty5VzJ3fuPnX+UNyh842MK/0XZ/cMXPtN74Ou949fvzDtZn/7236na22+y0Tv7iV4dM0Ut2/noO9RBy71XMGho7sRnhtEekUO3KNcUFS8Co1Hk3G1eyeu9JThylGP2+27GF+1H474Qdc6/KLvvcGhk5+NPL8i8eThmRV3+g7WPnywZ9XKiGUl3m62z86crQbf1gqWZkbIzY+Co63lRHS038DWdXa6A21Rv0T+XwXlu78503pwzumL28QP1Sd/eezk+t919Td9eP3exRn3B97qf8B/H2adqks48fCUPsZ6V2D0WR1GX9zCw8F+PBx+ijtPH8N5tRcuXb+Anodt6OzbhvtfH8K9e2W417Z6oHun9ry7l2N+rHOZgYmh6Zh4+vHg8DnW8+GWZe3XChMHOnOS7t/duWKgd5/Fozub/+dO16bp93vf6n9//xz5/0/iD7daN1fe68waHH1cPz4+1o2JMerdbsJ3BlXlx2Fk8AGGSa357MFOjD6qwXBnwPDD7piA9utFMx4Mdr/r8xfx/yPcn3u3z0u0Xq11+vrxheKh4a7G4RfPel6Mjz4cGX32aHx8eOjZs5uP7/XvPHfnZmn2tQvJmi3nS9/vajv8rs9bxP+/BzPu9Xd90nf/+u9aevt/d3rgzsyNzYf/sn5b/gdHmuvf9bn9EEwj3MuJ+BdBBBFEEEEEEUQQQQQRRBBBBBFEEEEEEUQQQQQRRBBBBBFEEEEEEUQQQQQRRBBBBBFEEEEEEUQQQQQRRBBBBBFEEEEEEUQQQQQRRBBBBBFEEEEEEUQQQQQRRBBBBBFEEEEEEUQQQQQRRPg/hf8PTYsT14SfKVgAAAFFbWtCVPrOyv4AfvQWAAAAAAAAAAAAAAAAAAAAAAAAAAAAAAAAAAAAAAAAAAAAAAAAAAAAAAAAAAAAAAAAAAAAAAAAAAAAAAAAAAAAAAAAAAB4nO3aQQ3CQBAFUCQgAQlIqAQkVEKlVAISkFAJSEACDgY2nQZoSOBAQlneT96ls4dN/jZNm64iYgUAAAAAAAAAAMDP2S5gD3xPs4A9AAAAAADweUPqrtazWZs2V32uO4RvxjU5ppJTdn1/NsrsnLMhbnEG6rLNnoe7a1Pf7WxdyX4Be+az+ux2eg6U/k9P1g3xeE6oQxNjmhc9679O+v9vbYyZ/gnS/38pnZ7f6Fn/9dil8l5f0r3Rs/7rMaXc991spv/6NeFbDgAAAAAAAAAAAAAAAAAAAAAAAAAAAAAAAAAAAAAAAAAAAAAAAAAAAAAAAPAbLhL/hCYUDYgDAAAKtW1rQlT6zsr+AH9XugAAAAAAAAAAAAAAAAAAAAAAAAAAAAAAAAAAAAAAAAAAAAAAAAAAAAAAAAAAAAAAAAAAAAAAAAAAAAAAAAAAAAAAAAAAeJztnY2R2zgMRlNIGkkhKSSNpJAUkkZSSG6Qm3fz7gtIyVmvHdt4M57V6oekCBKiAJD6+XMYhmEYhmEYhmEYhmF4Sb5///7b78ePH/8duydVjnuX4dn58OHDb7+vX7/+qvfavmf9VzmqDMP7gbzP4vbwlv65u7aO1W8nf65HVw17Pn782NbVSv7u/2x/+vTp199v3779/PLly3/6ovYXta/yKSovzuUY55FO/Vyu2s+x2m/5k3adW2laX9WxYc9Kzp3+Lzr5f/78+dc29U//LbmUDJA5MmI/51T+yBSZ1/5sF/RrziU/txPaAuUb9uzkXzLy+K/o5M8x5EJ/tQyRc7UV91nkxzXgPr46hj4AymM9MezZyf+s/k/5d+8M6HnkXn+rLSDX2rYs/cxYyd96AOj7lZ51w9BzTfkj15JVXes+SF/3mMB5+FmSx3a6IduJ9YzlX23EaQz/UnXi/nO0H13NWJxtH6dfZ/spWVneKQ/6beZd13ksl7KsbdogeoYxyeqaYRiGYRiGYXhFGMffk0ew16f/828v71ny3foeXOprujb1rniEy+jtagfP5mdInfCW9r67lvfznfzP2PGPfIZ5nvd1vsQuvZX8/4b+8xZc/vSzYc/Dpo5NJv136dvDF+Rr6SOdz5D6JD/OXfkDTedvpIxcj/3IvizbL+3f2qWX8rcf4lHbQMrffjYfcz8pfYnOLLkgG2y+7Oec9AvYZ1ggI+x2BedR57QPk/Zntx3aDPdCnpkW8u7s2Zleyt919Kjjga7/A3VoveC+bT+OfXtdjNAufsh90HZf9/9KO+t452/MZ0r26/RZXZLes+t/QLbpAy7sqymZ4W9xf0OW/L+TP33fPkDH+1ifwM7fmPInLfwA5NPJ/yi9V5E/z/b6m7KxvIv0xdsX5/re6Qb0idsJusW6GHb+xpS/z+vkT5zKmfRS/pzX+cP+duxbSz9bQX2lPy39d/bt5bXUbdHVkf19PEfIY+VLhJW/MX2IvKd15fF45kx63qYeHlX+wzAMwzAMw1BjW+yb/Dw+v2dcPfaAGWO/H7Z98bNNvosLvRV/w/zDZ2dn0+r84NYJ6A7HhOfcwPQtQl7r82tfZz/M8qCvRj+co7OrIP+V3dd2MHx82I7QG9h/PcenSL9Qxu7bZ+dz7LfjL8doH9iR8UkNx3T93H4X13uR8uf6bl6nfYG271rm+A+6eUSe65fzz+y38zXoiOn/51jJf6X/V3bw9KWnTx0bKe0i+7FjMM4cy3ZZ4JPYxQsM/+da8u98fuC5XyUvzwUszvR/cFyAy8m5ec6w51ryL9DJ6TsveIYX1uHOc/X8X+kGtzk//x2rUMzcrzXdu1ztW73jeXze2QIYw+f1xI04ndTP3fifZwDk+7/LyrFMe+Q/DMMwDMMwDOcYX+BrM77A54Y+tJLj+AKfG9vcxhf4euQaq8n4Al+DnfzHF/j8XFP+4wt8PK4p/2J8gY/Fyuc3vsBhGIZhGIZheG4utZV064YcYX8SP2zE915D45XfEXZrrazYvSOu4P3cfmX7kO4p/7QzPDNe1wfbG7a5wmvwrGRs+WN/wSa3aksrm5zlb38iZfL6PC7jyp5gm8HqXigzeszyz/bodQqfwaZs2ys2u/rfdrTumzyZhtcQw6+HDb5rN13/L2zTYxtbYP1P2vb50G59vdfn8pqEq+8LkUfK3+uOsQaa18R6dJARuF523+QyKX8/O1dtxnL1NZ38HW/kY/Yfs5/+SXrsP/q+mI+RT+73enj3jHu5JtjHIfuFZbl6Lv6p/Lv9nfzTF9TFItGv0e2kf/QNud0x/BTW8+TB8Udn1//teyvSjwO3kn/XHmz7dzwB/T19R9297NpGxqiQXvopH/WdgbbsekkdcORHv5X8C6/jS+wArNacznvNe9nJ32XI7wv7mkeVf5ExMunH262vz3Gvp5lpdW1mF5eTPr8uv9X+3X2srs3r8pyufp5h7D8MwzAMwzAMsJpbdbS/myvwN/hTdnGsw+/s5tat9nnOhecKHb0/3oKRf499GLah5ZwaWPnnd+3FtpHadsw/3+Ww36nw90Tw/4GP+Vrbk/AtcS+WP9+z8T2/6jwRy8x+toybhyP939nmrf/Z5rs+ttPZRmv/jNsicf74erABcq2/UehvCTnGxHKmLPiI7q2nbs1ZWzsc7adv5joBKX9AD7gtYNenLdg3i/woe84bsd+vm1PS7afd+rtAr8K15d/1n0vk7zkf6O781qC/ybiTfz4POp9uwTPpFecKX1v/Xyp/6210sGNt7MNDPuRxpP9T/rSNTJP4EMcIPLI/5xI8bqKP0a9uIf/CPj3359088rw2x387+ePHq/Rz/Pfo/txhGIZhGIZhGIZ74HjLjJlcxX/eit376nAdeOe2PzDXi7wXI/81nt/g+Hrmx9GPmYNjv12ms7KheA5e+upsh/K8oJUP0McoE9dm+bH/On4fn6bL09mjXgFsoGkPxW7nNRo5r7OpF55Xx89+t1w7FNs/dv5ujpftu/bnkjZlzHKl39H9v/NVYlN+dvmn/qNeufdVDE83TyjpfDsr+VPP6Uf0/DR8P9hm7R+0/9D3tio/x3KOl/dXfs8yz2/FTv6W2Z/Kf6X/U/45/9d+ZI5hq+eY5/Lu1ofcyd9tFEiLNvbsbcBY/1v/3Ur+hf2Qfs5zLuMS2gN5nNH/kG2DNNm2T9zt7xV8Qh7/rWT8nvL3+C/n+NkHmP7BYjX+28m/yHn+3fjvVeQ/DMMwDMMwDMMwDMMwDMMwDMMwDMMwvC7EUBaXfg8EH/4q1s4xQEdc4p+/5NxLyvDeEN9yS1j/mLVzMn/isSjfpfLnuo5K6+y3Fro4lI6MJz7iklhA4pa8Ds5RrPtR/Rpio+DacfSOnfJ3eIkL7GL3KZO/6+64X8pLfJWPkXbOFyDe3DHnjtVNvDYQawhln2UtMseb7/o1+Z85l/MdP0tejkW6pH6JOfLPsVHvsa5ZrtdGuTiW638RD04/5X47Oj1KPJfv29/+oS3sdADxusSSeU5B3hvH6We7/kP+jglc4ftO/eJYykvql3MpJ+leS/9nXH7i5zJ9mzbtfdSzv7fh7ym5HtxuXU+7+3LeHV4bzPezaod+hiK37nsfcOa54vkyOXeANpQc1S/QLhyfei127Tr7K/3H/6Pzsk173leXHv2P+0pZua9a963K6rWiYCW3jA3t0qRsOY+FvBLnle2etpkc1a/PI0/PVXor6MFV/z877v0T+XOO59xkmn4edvHgTrebh0Sd5zcqLlnnqxsrdjrTeWU79Pg4y32mfun/3XyFt7Irw5HehU7+OX+j4N3AfZV7QsaeI3QGr+mY13jukOPVrXOPWMm/a6+MU6wfVu2b/C/V57t1Sj1v6gxH/b/wPIvVu0wn/6Oy80ys8joP5ERdsjbcaqxmnZnyZ0yY6wR6nS+vK9i9W3uOmd8dunLw3UP0Ta5Z13GmfuHoW7sce495i7yjrvLNeRoJYwXIekG/p970u/SR3jvT7nfvhKuxgMc5l6wTeslzele/lPtIrpzz7PNWh2F4M/8AoIL6IOC/JaMAAALcbWtCVPrOyv4Af2UiAAAAAAAAAAAAAAAAAAAAAAAAAAAAAAAAAAAAAAAAAAAAAAAAAAAAAAAAAAAAAAAAAAAAAAAAAAAAAAAAAAAAAAAAAAB4nO3YvZLTMBQG0H0BoGCGipllBire//0C26WIrfsjR974FKdxJFm6n+Q4ebvdbm8AAAAAAAAAAADwWfx+/7V8Dq/io5b3Mu0i/Y6c66P7PmoTXeMR85zRTv7yl3/sflfKf7S+yLVoraL5V2u+16+TZWZN0c+7/aL5jNb5jPy32nX2UuXMVvLvZlSdT6XdoN+fR2vNjn/G/DvZZ/dU5r4ny//vVv6d5/NWv2i7zP2iOWXXU8m+8r3TeaZG2g3m9D7KP5tHZq6V/buXz7Pzrzx3ZuWfyWdnPt9H+VfnX9mrmfxHWczOP5L9rPXMPv87+X+J1C4xXrhNNf+9sTLncFT77Fid9VXzj9xz0O9rpnbVZ9zR+UfP4rPzj+azMP8fq/LvfL9Ess/0e5X8o2Pd+fnft0f1GNWV1yX/a5M/cK/7jpRp230XW12LbLuzi9S4+v4r//OTv/wzz/S9vqOxZ+/Nrc/29mR2TbNrcibdtWY+y9Zib06znkHZsUf7Z+Vzq5t/9UwckX83n0r+mb6j2n2G/CNrX5H/aNxKFkdfi87hTDJ5Vvf2jPyzc5+da6fdZ88/W5Nu/pG6Zee7Neeta9X8q2fkzNln93on/2jNKllU849ei459Fnt1juYfyayb/yyd/KNnIjqH1SpnrHrGj8i/sldm5t/tt9or5J+t/6z8t+ZbqRsAwLNF3o0etevcg3OovAfPuAfnIP/r2vptGv3tXf0NPbo/r5+//0fWW5V/dHyeuweiGWb6VvfE6rpchfyvTf7XFvlej37/R/ZJti/r84+02zvDnb48N/8jMow8P2S/fh9U23X6ZvoDAAAAAAAAAAAAAAAAAAAAAAAAAAAAAAAAAAAAAAAAHOQfCW9003yyWsYAAA7XbWtCVPrOyv4Af5KBAAAAAAAAAAAAAAAAAAAAAAAAAAAAAAAAAAAAAAAAAAAAAAAAAAAAAAAAAAAAAAAAAAAAAAAAAAAAAAAAAAAAAAAAAAB4nO2djZEcKQyFHYgTcSAOxIk4EAfiRBzIXunqPte7Z0lAz8/+WK9qame7aRASCNCDnpeXwWAwGAwGg8FgMBgMBoPB4D/8+vXr5efPn3984jr3qufic6WsAGX498H/Uen5iv4zfP/+/eXTp09/fOI69zJ8+fLl388uvn379jvvsDdlBPT7R0bU+7SelZ5P9b8CNtH+rvZf9VH6dpWmk9ft3/mdXVTyrOQEXRq9XqXLrmftvHs+cGrnq3rr7B/la991ubRvex6aD3kFqv6veWX1jvufP3/+93voLdL9+PHj9714hrqoLwtEOr0e6TNE/p4m8oi8uRdlq15IF9f1eeqgaSMvT0cd9Hr8jc+q/8ffr1+//n7uCjr7c01l0fIjTZTPM1mfIz33Mvu7DFGe2wibx9/QmaaJ74xbXHM9RRqd8zi0fUU+pEcXyKnpVO74oAvassod11Qfqmctn/F91/76zBWs/H9WZtb/6X+dvIHM/upvqFNWd+wcelZ90S7igy/QPqh+gTxWcna6QD7KIT/3FVWd/fmQz8vfGf/vMRe4xf7oPPoj9e7kpf6V/X0d4sC22D3+Rlsgf/73foas9FHai0LzoU6ZLvC3LivtkbleZX9k1Oe9/ExvK1tcxS32px1ru+/kDWT2V3+H7836KH3d/Y/qNu5x3f0kviOzP3rQNpbpQtOpzWkXyO/2xz/yTPzlGc03riHjM+xPX1F90J8BdfXv6m8Z3xyaHpnpW/o9nqUPdGulyIv7+E3A/5HG7yEnfS8D9caHZLrQcjL5yV/HQ/qH/++yqPw6l6n06bodDAaDwWAwGAw6OPeX3X/N8m/BPbiEKzgt8zR9xduewmPlxKVYz2RxgXtiVf7q2RWf1nGYj8Kpzq7ouOJt7yGrxrarZyrOqvIfVVx6t/xb+bRHQeXWPRNepytydfH8e7XrTFbl1fz+CedVpT8p/1Y+rdKT84bOKfoeBed4kIV8nANZ6azSgcYVu2ceaX/045xcxXlp3F5j5lX60/Jv4dMqPRGjC8CzwvMh88r+xO1UFpWz01mlA7U/cmbyZ/7/yh6aE/tXnJdz1sq9VhzZbvnU9SqfVtkf7lj5I+UUPf/MRsjc/X+qA8+rkn+XK1uhGqvgRvR+xXkFSKtcTJd+t/xb+bTOT9KHo4xoD/Q1nt21v44ZnvZUB6f2vxXqb+AalHevfFNmF6773MHTn5R/K5/W6Smzt847GRe07MxGAeUWs7Q7OngN++vYycf34ikviE9Tzgt5sutV+pPyb+HTMt7OZQPKKVZlMyd3rpTnkWdHZ5mOPe9K/q5eg8FgMBgMBoPBCsS+iPmcgnUga5hVLKpLE3PbHf7nHtiRNYBuHlnmriz3BudiWHd7DH8F4h+sv3fWJt369Zn7GTOuUdeUgfhOrPBRZXbXHwmPXQeor8a3uvavZ2NIr/rLnucZ7mm9nfeKe+6X9MxBpjOe6fRJf/M4hsdos/J38spkzNJ113fLyPS4g1UcSffkV+dxlIPwOK3u1dfnSaM+B50rl6PxQOXslA9wmfQcUcWf4fPIR2P+Wpeq/J3yXMaqzOr6jrzEG1XGE6zs3523BF3M0vkv+Drt/+jKzzNk5zvJqzpnQjnIUp2NyPTvfEdXfpWX7td3Gasyq+s78mZ6PEHHj5Hfimfs7F/pf+dsEfn6p8sXedD9js/S/p7F4rPyPa+ds4RVmdX1HXkzPZ4gG/+VW/Q2X+37udr/M11V/V/L7uzvHPSq/2veXf+v5n9d/9eyqzKr6zvy3mr/gI4tPobhn3R86fgrl2k1/qvcbv+AnuGrzp9nulrNWXw89TFOecWsfEU3/mv6qszq+o6897A/9a7W/3ova5vc1z7kPJrP/z2NzpF9Tp/N5bsYgc6F+Z4BGfw+5XXlV3mtZKzKrK6v0mR6HAwGg8FgMBgMKujcXD9XOMBHo5LL1x8fAc/iAlm7+x7M1TqC/dLPRBVnq/Zjvmc8iwvM9jIrsriA7tnV/f8n61e1FbE2vZ5xbtife54Hcuh15yJ3uDzSVGv0zi6ZHvRcoHKklb5u5RtP4Pvv1T5V7I+YE35jhyNUP6PxK67rnnn273u8UfnCLI8sXp1xRh0vWMX7dji6LtapZxPh1zN97ci44gJPUPl/7I8Mfm4l42hVB95HNA6n5/goX/uFc258V31UZyZ4XmPr9JMsRu39hbbH+RWww9GtuA7yq/S1K+OKCzzByv8jK30v41V3OELOUmhfz8rv5NF8uzMzIQ9tlnJcN1U5jG3q3yh7xdGdcJ2ZvnZl3OUCd9DpW/us+niv6w5HqO+1zPq/jt9d/9+xP2c79Sznbt/SvQPab3c4ul2us9LXlf6vz99if/f/yO7jP/rHT1bpvD35uFrZX/POxv8d+6Mjv3Zl/D/h6Ha5zk5fV8b/nbOOFar1v3LeWUyA69pvO44Q+bCfzjGzZ7I5cFZelUe1fj6ZW1/h6Ha4Tk+3U/cdGZ8VMxgMBoPBYDAYvH/A5+ja71G4kre+W+Me777X2MAJdmV/T1wUa144ANaUj6gDdjwB61pierqvstsHXAGO4RQaT+xwpY6vBWIWvm4kfhbwfay+Dsdv6HqVMxjx0ZgNbUvjC+ir43ZVxs7+XV67abROug/e5bhXHUH2uyO093iO65Sr6QKR5mrfynTE9ewcC3ELjbM6B6O/z0U90A16JdaF33H5KUNj8dVZAbVFxdHtpHGZtK7KeVJH/S2hK3UMKA9LXA/7aKxQ0xEnpdwqXtihsr9er+yv8XHaPW0SPXl8S/Py+HbFq2X8idtc/ZhyyIqdNAG1n8cfPY6b8XtX6rj63THS+/sEnTs93bfl8ngc2usTcPs7b0A++puUyJjpBlRc1I79Kx5DsZMGPSrvmcmrfJi/R/BKHU+4Q8rlA1dd+ZYVeI4xLrOZ77WgDzlfRZ/QsaniDb39Vv1xx/4B9X/K4yl20ijnqOOgypF9z+y/W0flBPH5HXeonJ/ux7oCHdv043st4oNv9L0c3FMdZNeVX8ue787Xg8r++DLl1B07aVQmn3cq3853+oe3mZM6BtQGuqfHx2fXrbaTU/5PoeMHc8zs3mqP3eq67yVajVt+X8uvZOnWrrek8bIrnZzW8fS5zHdd2f83GAwGg8FgMPi7oOsYXc/cax7Z7UmMdZC+K2WnTF2rEu/O1oLvAW9BXo/nsO47PUdSobM/nADpduyvsRbWOzz3FvR5grcgbxaPJE7uMRvntIg9Ot+lUO5W4xUBnnWfozy0xyA8Jqv8v+ozS6t5E0OpuBgvF/k0lqMccscpaT21/iovfM6OXpBdy1G5TtCdMXGOR7kIjaV3PsO5e+WV4Qs8Rqr18/ONzsFW/p9ysjK9btnebG//2I3Yp8d8sW22b5u2AificWLsre2i04vL7nKdYGV/7OplZrH/FY/oNgowB6hsepKfc0HeX7K8qxiw7g/SeDex1uy3oyruVX2N7q1SriXzGSu9uL9DrhOs/L/bX+cJt9qffklc/VH2136xa3/8BnmpzyNft/9qbwd+RHlV5Q/Arl6q+p5gNf+jnnCMugflFvtrue6Hb7U/OqQc1cuu/clDxw61ue532ckHf678n8vrPj/TS3bP5TpBtv7zfUU6t8jOX6tuHCt70f51/8M97K/zv+rccqCzm/dxzZO+zLNdPj7/y2TRfRgrvfj8z+UafEy8hfXi4PUw9v+7Mfz+YDAYDO6FbP23imWAt/Su+Y5nOoWu17rxtoqdnmBX1/csM8tP4z+rvZEBXZe+BVw5+1CB+Nfufs1bsKNrT/8I+1f5aexHYxV+xinjCB3ELTyeDnemvC79jzNxzH2VD+Oefyd2qnXwdyRWsZKsbhqT0Xbh8iiycrK6wv+4rjWO7zKpvYhTO1e4i8r/a4xfz0vRz5TzrThCLwfdwZ1o+ehFz9WgH5cniznqdz9/SzvSeDryeBvwugU8lux8QLYP22OzxM+9rhWHp/lW+uB54sYVB7tjf/f/QNuWjlMed804QgcclfJxrsPu/137oxc9j+kyB/Rsj0LTZTZWfWX297mInq2r8lL9KLfY6cPL4d4JVv7fZcr2WlQcoeuENN37H+9hf2SirWUyB96S/Stu8Vn2z+Z/+EL1l7qPAp9UcYSuU/x/1/8Du/4O35TpPJvD7/h/rVsmzz38f2b/jlt8hv/3D/X3c7B67lDnKRlH6OXo2cGqfXta14XOM6uzmW43xWr+F3D7V/O/zndm5XT277hFv3fP+d9bx73XO4P3hbH/YGw/GAwGg8FgMBgMBoPBYDAYDAaDwWDw9+ERe9HZ+/SRwX4T/6z2vbPH0t9pEWBvTPZ5hD51b6nD32lccYnsS/N8ff8I7wDSD/s3nslTdnU5zUf37fGp7K+/Y8K+I/bZ6T63LM9qb/Ct8nd79dWG+h4Qh9Yb3bKHTPsE+T2rbVfo6vLIMnVfpPaNrP842K+W5emfam+eP7vaG7Jrf97LRPr439+xofZ/bbyG/f13B9Q+9MMO7COuoH2p28sW1/W3RTqs7E/boU87PP+s/3Od/HmXm+6h1H2bAdqbvmuJfX76jO6x1Xy1TZKG7yc4GUNUF/6uoaxvK6hbV576gsz2jL34hlWZ5Knv71GZ9f1yJ/b3ve5c53+tJ+eSdJxUWbjPd/SKzHouRPOlPajcV3zTyX5xPV+hvgB5qr5Nu9zx59nZAc3H95av5MePa/4BdKfvYlM9Mub7fKXSsc95tE7aX31Pr+5l1/mU5pG924/24P3wdEzgnFM2n3FgQ//tzGocZv20M5Yjy+ncsLM/etUxC//p7Ujtr/5d95qT54n99Vwi7VfLzN5d5fOsyv78Tzu+MidAvuzjQH50RxvO/Dq6q/yq53vl3XWByv7qNwFtMYsV6JlRXd9QV50fVucbMvtTro7lel3PpXqf0nMfnf2RydvXM9DFXXbnFpHuqtzdeHfSnvTdOtqXPtp5isFg8KHxD4gkaqLrd70WAAAEeW1rQlT6zsr+AH+iNgAAAAAAAAAAAAAAAAAAAAAAAAAAAAAAAAAAAAAAAAAAAAAAAAAAAAAAAAAAAAAAAAAAAAAAAAAAAAAAAAAAAAAAAAAAeJztmolt6zAQBV1IGkkhKSSNpJAUkkZSiD82+GM8bEjZsWT4mgcMdJDisctDIrXfK6WUUkoppZRSSv3X9/f3/uvra0qF34OyHpdM+xLpX1NVn91uN+Xz83P/+vr6c37LdaceVdYtVb5/eXk52GPr9K+t9P/7+/svSnWsej+j/2n7z+D/mT4+Pn7aAHMBbaOuK4x2wXWF1ZH4Fc69WZp1zDiztPqzdU4Z0j+kV1A+yjFKc6SKV2lW/+f8kf1fdUvwRR//ic+4iC9ynMz5o8KIX+KaZ0uVV13XsZ6ZzUVZHvJjbMrzLFumn1ScWRtIu1S+z+D/Drab+f/t7e3wjoh9eKb3x0wjfUGbILzS4pz2R/yeVh3LN7yXkV73fT6TadKeurIt5xz46P6faeb/7Dt9nkxK+LDsWO0mx1TKUPcz/VTeI6/036gdZ/+u8EofH9b5bA4gHmXk/SfvPYrW+D+FzZhv6ef5boDtsWH26+yb9L18NxiNFfk+mv0/x5D0VZYlyzur7xKPoq38jy/xbfa1nk5/L+jjSY612fdm81HWg/x6e8jxPNNkzOk26WSZbvk76K/ayv+lslG+A5Zt+3t79zXtJP3A+wRp0aZ45hT/ZzzGJPIizV6+JT3q/K+UUkoppZ5Tl9rnzXTvZS/51pTrIJewYX0bzb5r+vfUX7X2ebU/rDnUmslszXqN0v99bSO/80ff/EtrIayb9PNrKMs56kf84zG7v5Te6HqW1yytUb8m7mzNaVbmv4r9stz7I1/WPPKc9sIzuc6ebST3XjlnDZd7OSawd7MmvNs6y5nriXWP9WbWmvq6UoX3Ota9TCttV8f0GZBXXqMep8R6JfdJl73upTKfo+6XbG+j/s9aG7ZmP75rNPZXvNzHLegjrPOtCT9WL+yXY17/tyH3IRB7GXXMtcq0VabZ8xrZt/8TQZzR/ZH/R2U+R33+P8X/GX/2/pB24py9GY74M//JWBN+ar36nJd7Avh6VKf0QbdPXs/yyrDRPhP3sz9znXmPynyutvB/30cpn1CmPC8x1jF+MpbRnteGn1Ivwhg3+I8AG9O+EHNt938fc3KP8pj/+X8i8yj1+93/szKfq2P+z7kdO/R+knUt9fEpfYO/iMs8tlX4MbtnGLbk/TrnYcZw4mLntDV7nfgz9yiPlYN/a/EhbSdtyp7ZyP+jMp/zLsh+W9YpfUffzrpij9FYRdxMr+fX/dn7wZpwwpbqlWHUg7mk+zfn8tE3GM/350Z59TDaQN+LTBsTP/Oelbn3tUtoab1APb70v1JKKaWUUkoppZRSSl1NOxERERERERERERERERERERERERERERERERERERERERERERERERERERERERERERERERERERERERERERERERERERERERERERERERERERERERERERGRO+Qfh5eOatk7jpwAAAFTbWtCVPrOyv4Af6WFAAAAAAAAAAAAAAAAAAAAAAAAAAAAAAAAAAAAAAAAAAAAAAAAAAAAAAAAAAAAAAAAAAAAAAAAAAAAAAAAAAAAAAAAAAB4nO3W4WmDYBSGUQdxEQdxEBdxEAdxEQexvIELt6Yh/4oJ54FDm0/7601szlOSJEmSJEmSJEmSJEmSJEmSJEkf0XEc577vT+c5y7V397+6T/dvXddzHMdzmqbHz+wY/Sz31L11FsuyPF7HMAx/vod077JjlX2zYXatzfs9tX/VN7/+je5ftut7Vjnrn+V6nX37xtm/ul7T/ctzvu9f/9fneX7aP9fs/31l23ru1+/btv36zPfnv/2/r/oe1/er90Cu1Xf7nEXVnx3Xa5IkSZIkSZIkSfr3BgAAAAAAAAAAAAAAAAAAAAAAAAAAAAAAAAAAAAAAAAAAAAAAAAAAAAAA+EA/CvmsuFLaKmYAAAfrbWtCVPrOyv4Af7oIAAAAAAAAAAAAAAAAAAAAAAAAAAAAAAAAAAAAAAAAAAAAAAAAAAAAAAAAAAAAAAAAAAAAAAAAAAAAAAAAAAAAAAAAAAB4nO2ci5GjOhBFHYJDIASHQAgOgRAcAiE4BEJwCITgEAiBDPo91eqWepoWCBtsdueq6tQOQlJ/rvhrfRKREyGEEEIIIYQQQgghhBRQUuoP+9MWtOsjW9hso91HZn+9wq+/jTbDXVK5fNCf0jw3kS31D+Xq7P+X9c/xiDHfPmz3G3nW+o//czb7f5v+yId3Pqzkz7mhj3QyvT60se4Sx+hV7s7x7z7us+cWUf3R9+5o0sj0+C/xbS7ePv57N/tz+lt7N+Mn4rBjtbFvLp5zHAvj3p32e3GNsT6dnCMPo/INRZ83dS7Dv4PK6zNuY/9oYoNtWWgH+2t9m9O/Vra1bp7+l2gLMaKfzlv42x5DufPqKGne9WqsXtkpmcvvUEVbo/jXfGh3dvroOFH0GIipc/J6c/o2Tq4fZjytf6lvS/pf4t96LE//QabHCPzszLi6DfKrfcIxp+3rnFRm3D04S5rDuePlKv4ctFqI4ytyUZl6m1eJflgbuB9FLq3NUt+W9Nfb8Mvqj20bS6BRfkJL5BPbXfwXfcL26LSxc2sv7eGDjnFuntSSnhEwZ6z+dhzk1I5n2+Z8QM6hkadriW8l+odxhlh3kan+aN872OvHID/PB4Mkjb02JzWGxL/vsq/+t8I8NZKuRSLpPDbI9/Uv9a1Ef23vKev0B9DrLunYDmNBZ1zv7TkC8+8mP+eByD7nf8Q2yPR+T3OWdG9Vm31WC52rV/T34mzivsqxuca3Uv2hnUi6d4GfOF6qzHhefnGNb2J9mJvPOOY40/8c+2IubKk98pa73/PisDnC/N1Sf28u9rHe03WNb2v0R35Q4GeViRFjWf9xLhJJc6aJ2/YZ4SrTZx3Ue/l7B/iEeZijVjE/Jd1rtfLzGWgr/Udl56r81OdIrf8a39bor/Nu/exiXRf71arubsZAvZ6/8DmUxtSPsW0Tx20kPd9sqX8vZQVxNzK9xjYyfc7RfV7R/258gx3ru9a11Le1+gcw/2xMuD7ocndsYQ51pn7I+IZzgC6h7d7PACXgHjuXqy3Bvfecdt/yzbNZ6ufa+I+gOyGEEHJkcM2sDuALSfTy3nNYCZ2k0h0g5lJuZrskV38be+uvv5uE/tUBYi4BMeu6RrZb23QU9ta/fqPv0fT/NJUsr5tpIrrtI5PvSxwDY1Xyuv4ldmv5+T6ulXT841sK7N/EX0tUx3/h81neW8dUklfYkzhWY2LWYyGOrbWvo318P4E/odj3rU9J7yZ1Ox0T3nVhvMH0Wat/id1WpiXsqyS9R3vKz3VFmB/ahiifT2pb14dyl+V1TCV51XWwcZLpsaLj2Fp/xHF27OnvEvBVz0t9zUUd3t3r8ToT31r9S+zWmb7229ZFkibWBvrq99gir61jKs0rYtZ5sPp7cWwFvpfYes+HYaEdjv2raXOO9a/qv2TX0x827beYk/hriTwboXTi+1g5bdsX8rqk/1wcW4F32K3k181Yv716L5al/iX6L9n19Lfbp5m2ORsir3/HKs3rkv5zcWxBI2XrZqj/Ov1L8/pN/c9Svm6mRIcm+lo57Wzce+uPe4TG6Qs/L5mx3tV/TV6X9J+L411szgBsrtW/yuSsdsbbW//AMNN3LLDhxVKi/5q8Luk/F8e7QK+SdTOlOuDe6i7pmXqU6T33J/S/xbqHTNcS3WbGelf/NXnFeCFPufORjmPrOQB9UEbx182U6qDnAMp9pv+e+mNMG1/p+3aRba//Xl4r1W6Y8QdxbK3/SfZZN1PJsd7Dbx3flnndI/+EEEJIKfo6ZL+RkX+X8NzRy7T08p21x73s87xLpoTjfJA/zxatpOO/lfTcXn3Yp0b+vfUvRyXkORRvbQG+5+357Yl8lzZqXM/sb0xdJfO/e3MSf01NI/nfF2gkzcHGsYn1L7DZOjZL/LLj3OU47yi+QdAolPCusuRaj/UTEvP3VP11rvW+8Pcg0+8umjBmp/r2al+lbD4zNtf4hfpe9am/kPuj0EkqQadwTNg1HGBwcorcd6oOeUZez5K+i3VmzMa0tfo/ZLr+xV6bSvzC9xd9ravE9+m3UUv6HRoU3BPqNiLLv3sDDQenHWzouofk/2//OY7r3YMEm5cVfkH/Tqbz5Nv5PxIXSb9bEgrmQBu3ewecb2uZamjnmUi6vlfGhu1bm3E91viFbZHP/LbO0aln4sf5GsfrXJ5B7humZlD78G2zUvu31N/6hfs/PQ9C6Q6gxTcYZf53JfqYn5xWc/1y+utxBqed7otzduOME+bEdaVfmrP8/G2d33ge6Gbyi+P/Gber2LZ12oa6QZbXC+hxcrZt3zEzFp4FSv26yvxv69QH0OPTVJKu852k9SqNpP/voJ8FOtW2lvzv3szpH3jEPqP4v/Wk++L4fij/0B++lfiFWAfZ/7d1/iYu4r//H8R/Drw7bUOdfc6e07+J/Tpnn9e3leV1PCV+4Rxg4/yN535LyFMtZet2dFt7/O7Jks1Sv/DcSN0JIYQQQgghhBBCCCGEEEIIIYQQQgghhBBCCCGEEEIIIYQQQgghhBBCCCGEEEIIIYQQQgghhBBCCCGEEEIIIYQQQgghhBBCCCGEEEIIIYQQQgghhJDj8x9YrdGLPFw5fgAAKhdta0JU+s7K/gB/1PAAAAABAAAAAAAAAAAAAAAAAAAAAAAAAAAAAAAAAAAAAAAAAAAAAAAAAAAAAAAAAAAAAAAAAAAAAAAAAAAAAAAAAAAAAHic7X0ruOwo1vaSSCwSicQikUgkFhmJxCIjkVgkEhmJjYyMjI0smX9R+5zunp7p+dT/1Ihac+k+VXvXCbAu77suVObnfTaeANqzkS3G10Zgh6PDAnBdxQVrAN+FfsPzYh3ggQoQAbYKG9CeJMF33ZPZsYTB8c18c/zxQ28AlZvdQSvVcTO2vmxPFRTgeJ1A4SjpMPBhua8rP/cJEqDcVCykX40DrzeBuHNcndvez5heQmwxKfxDEfOV0g8PK9Rr2yjuRnlOIjj1lmRQQ8xfORbI0j5PBjAmbKs0uI9JbSv+7utukHfu20cXj3LFsPiNmeABPFGqg3EJD9EUCSuvl7KFSJN9DPqhrsFlobcdf3GPua5+foJbKS6jNWODiTYs1vq4xcDBgm0Onh0EdU+g+O+oOXBc+NP9PC8bDy8/vPy3uE7EOhKek03CmwVwKbYVIBX2xJwtHNUeMnDAJw+HdUtxYAK+tM1ft+Da5sAf1S+4mfs2/DQdPH4AhQu0Hjc3U+obgcfhTt3VQlHX4dbt8+unqJR1TeD3e4+O+zXIJS5Cpk7JigsYazoYCWubTsC8bYE52A/85wIqp3WBVcV8MqiG2SU70e8RgZurHbhdRuFh15IpzwuqUkUlSFdjME1nA8Y+u/gpL3RpaJNmmPXVCdG4WIY+ysocqBLLRcvF8uMpFZbUPA8s6Tb2czTF4cB/1jWbeuBi8D+kokof8OD2XBs8GU8cTSVPIyg35DbgOqcWPQmdqur904sHWUGj98KDSA22qwiQTKBzNpvOA02DWOrI+UJjWJ0mx5hKvRN0BGW7Lsr2EvyozwkzLhhqZSiUzz/UPD+dLTHpJHCdTwE9AP1/eBQaEowL/9r9CR9dPEp0wqG3VmebmmB8SSw85LiVfeBG8w5Ral3QbyVbUGHR/QGINv0YWBJZv8084ReqPxCoWW9oAIBGnhf8MDY34YGtHzZKRvGXR1vwhQV3dimazzc/LBzkQHeOCo0Gbk3gx6bdE23MBcprPj/16MlM2mrvD7MVPYDdD9old4NaiGl6RlR4BoEQ9IQkEYGva1D2OJtFt5Bt8vgJakFPmfHU1/regKueHD5+/pKG5dzg2IaRugbpQjn6teIJhgvWpAI4Va2rSxwOQ8N2tGpi6w9MC+jl50O8Au+Aea8FoQvnHo07pG0XagtQLtQFIJf44+9Ea/EVwup3/qFV/0XCwoAz9NyowZSRlZI4eOtVwIVKyvy5cxKPoxKJnlyEswgO6Mmfjis7Bn0HBHOtGEYQ4x1RKB5LSa3u96ZY3ZuExqgKuTELy/r+K0uP+qjoZFiMH107SsSjju9jCIh4JJ2nRNHXt94PEJ6iE1hgadceIOyo69EQQGzMj/tybrBtJIGoxl7XOc6E73pCR8+eoFE9FcZuZhDka4RE6vasZTsKPKj9+BZh0/w+LLXiop6basbva4cwQp9bcCj14iS/HQC6h8egkdv2zHD9NAxuyxnLcWCUWMaT+Qn6ds+19ugY2S549UhujPuNb3KfSr6AzzWs8cHg/0jgHHWpifHq64eXjwtm4KcWDO3X12HsGJWGiVtaFxk6PjzHTUBKoznzAv0CrOIk03FdFQGhAH09SIUWDGsE0P4zxsoYuuOv+emyunS/UZM9f4IBLAk3xscGtd+7/ezq53MNxD6Q46Iz+Lbv3tw2W6bRZ5WolwxSTI3Yjaqo+RGtPxe3KAyNJnfdLjdDI35CewiCXa/TCtfil1XUVwKyDDeZ0jF/amt+gmWUY0e7v3IWy8f5H9DjRNguGxI99MtLtNzu6wjFQN1X3cexTRID+zDlgJAD4/vt6OS8MM5cBtryeH+Q8652z3HfTlqiCz4jBMYNg4SM4EJFlwmZpSmVgromedhBfXTlP0L76gtZ7G0owldJcOGBybHygPELuHy9Mpcr6P3gXDK39iDt3imQbNw4t9Z0bBgFHMFAWi5CvYCj7xgElWXxhYuNg1JT3/SBxoNtPmSYSYHp/mz+9PInTg1hhmTEokczuSWNhrwjqyk/6LzPJAUBcx8c3wkDXzU9E7LtWRzHQlIjLWsicUdQLdBlEv4i52atwQjC4SXWqS3PkzMeN+rQ5MzIONRNOZkZgc+KGYosG6zo5F8qbjtIgsH6xkUWQsaxhh3WY2y/fvjO7rHnDcudW4OOL3Nhn2e4SRUXRQgy5Sx6A9Ix2hd0gRs6kmtMxtPnzsEGoc3tHMiZCA/lo4tHKeYc1HsSN8pv8MvFbmSo+KTot/DhlXtAcvVQmD4QxmvCd4xr172+oQsjuA9rWBdmeZES1kXH95rIQanNQsI5wnVNELDb3jRQPblfBNNskpDGZ1ePrtiH3U6VFNUjll9umYdH76RwA3ALLFqFHhL/VXWbNsiT98NWppvTsLjlMEVLkTcqfLf9GF2ve538NzVGXOnUtrv6elHYFaB6IeGCxwcJdRVIgD7u//OmdXCastr29VTZo7tvM1ApiPi0W+Be1Tbj1trz42AgLZpkJhLhKj22JcTAymZZkjy/XpKD2LdgXzadqN/IfGgduMzrBTPYoT6AhDIgGVC6EPpx/9c3BxXPjrML/dUO/CxOc75qu0aZPUK1ivxgC6jtgbOVQ6fy9gRpjlWSKQFS6ZCPQEzF3wbSroSL/4kdArfHp21iPDITRkiTUnGwshzDuUa9HuXj+PdYHLppjeSOsvVPbaxHQf3dELf00n06tioavssTdQzEZgXYOh1AyqtSSJkuA/LZ74qwNsLxvLHDNo5qkOUBp2PmR09wTy0NEPqtNh1IF9L9+tzKf0udyUrm21XAzuwWOrpKx4O+nYr9yXY8Z3qO44zoBPEg8f8IMUYqcW2ZLTuTDUnyjRQANw0/A94e4k/sKFlyDdlkZccKz8lGBsoXDeWZCdL60aX/lnLF2EiWEB/LwWHsx8fboeilPhjGEAAsoZW4rzP/ixtE7FoIi7lF8crGrgHScXHw7Ng3cBuBP7iDyIzeS6wGkPfFJQ7IpySBOw/ivD8e/VGschiNNrNwUAM3YLxhmYa46V49hAeE/clS57ZfF4b1mbMpbaOExz7ARDMjHsKjDLxfJw3nSf7CHcmtdQ/Ni0PByi1SjW4QZeOvhLOyz/Mfc3OVwO5Mz8w8yK0vE7XgG1IpfEx0XzG76fLBPHX1fUUKRMh6bMLxJBRI0xEOK+9OCB1fFTLsv3MHYwHbry3yckiRVi6gGbOliPQa/87U1o8ngJHvjJmFKH0L4G8Jsu06Xeisp9s2p0ZobHexhrxAjNJ6xns2ulBfmT8MAbYNResb0t0Y0GizovbfuaODw3ai5kurDC/7QukiTdL+smg7wNfx8foX5wTQsaFvv+spZ1ICbSDDJKw1vywglEWDePwoP6o6E7ZnwFXrtYUXRrw0npnqwCAJ6OAWCPO137nDRTSMgQYhlrNxPxBs5JgHkPVBrvUOiJ8WWXa07nM6bVIeqihHB/+wWt952kdxhCt3MBEpTnr79ufhdYhZ9C3FJpWnj+jAIqJZEAk9J0mG/c4dgzjwt+gYe7uZbYgbTC9+hLmPGYPCIf6Px/v/LuNC767g2NHMQT2onvjnvLFZmcsMfHoE9PA6ZokbI8Ksf29ouTJYaoH4x7xJfDHW2GkzE0EofPmndhBmMcUDE6XWDU5LgIiaTMDNqxraLp/r0+s/0nLZXcNxQlOgXiNvFvL+LmyAJQR6AuLigYsNr8T3WdLjfmmI5JSDUK4AiHEQHut1JjcohAUc+VU7QgKhkmwgekbreNeOBrOBootNm/fL8gssfFBmDFb11qD2a4KRJ5tOuvRizJQvoSRFTpW5qgpIA0HXad77UQs9gnUtHy9U5lFBRDmTo6jSZ9XsV+3w4CVZWu+uXICf2mHUpaTjNZBPrWpyqA/L0fGp+HUiOePWQth6cIPMrNZ2bKWtbD0LgxCPHhXJuFns6Md5nxXcvjV0A/2FptIRC9dtRYOBep4r/Kod700bsb6LPqhMv2vHPYtycgw0jQP57Oqn/BQvZ/0PmkXAchL+wH5QhhimbkLfW6CuXGdbFXuhq4eSZxqj41nbA3ZSn1cnG4aHCntGZbBtMe/eAYx7CwLdd74HA0z/1TuQHTeoJiSR5/54+mPa+MPQMJ8LgY6ebt32ifPtJhH62nXFQDVzQ+gUQ9WxbZzxHzhIGIPjZWbx77nGdAySzjxQSlr/9I6wQIOP75D5yNz/6B2huxY0nUt8ro8jYA4XfRdhn2sRUk7i/6Anl35JVSHCa/JXAYCBTIybWtf1RJgETkuVwaUF98yhVeMGDKOcz8T3/d07tJpnzBLvTH5hKF3lr94hQmp26CjRZvLH9R+jv7n0XLfzQuUFfZJBdUj3UqGkoBEGzgIA1Wfr95juGk0f7guoPDeHDE+LtzrI7cpb9202de129o7dxzszjua1Pcj87ncd6ad3jG4e6Puv//j6j5cEpKQzcEv+zk2ipLalg6ire/MuAHQLriKhA/NudJoaPxPg641kafGwYsxDNrPzPbDKRQmzGaAerR7VDoUsgKUb0a5PyAqynPUwuWj+dofLRxePkjsePbrv9U1WJaUT9vebyqqIcvynAMDkwjSdSBgNHThy5NnUBkvsjYDJeLrtQRz0OsoyDdoRZcAuqawB192fME48Z53r5IP4mSeIpsruzTaj6YclwcNHzDHW1rdtfe6hXmqubu3SvdNT/TAMQ3oBi8ftTFiGM/2cyFWD9oRNO14F4v5eFX5YY7C9joABYQEa6HYDR0gFdSLh5w0xivNrTtdL/VSCPyyI2edygz3u3I6GWH02Q0IQVzbbuwCQRt8XqFzuM5ZtezQhXTn/4but19xKNG7pFNgTNUrTc4R3gtxeDKpEn/doqA+CjfSMevaCu7aj3/04/5XgHFDrlF2Xep0X8PO6MbYbeKXifhcA/LVKOCNjviWBz74TrrdjRntk85cb3d8DHbq9bx33iEB3xTCJUXNQr+O5EppfFcyBziA/CDN5QjLEkHt8vv8FNbOnuId9yz54e3EoYb+y29GCYaE/BYCO0P5RkyXyp8xswaz2NPSCpM+CeG1XSdeGgEftr6ZD6BrS9OwxEuoSkgjbEmvXUdb9jDNpSmgb3CzH/4D64/qJGku6mlKI98XE8KIVxMLI9shPAWD6yOeFyrK7ho88IfONWxCeuE532fS2YcTc+LaiWoCOwHiJXFJ0dpoB0l5aSu3dYVwoAcoeyFqZUEWWj+v/7iAxipreowWhaI7g953seQYw91MAkEwhyHkOzVEDUA/MnhDtI1JA07EmNK9hnzkQAicyyQGexIvgtkkVrEXHOFjJ+Ely1cQKNKgTlip5nv1iH89/i8u80xovI4kNeLDd0dw7xjJSfhcAqosB9eIZ1uFPN8/tomjvk9WYVY7zXginawT0DbuapeOnKOS+oCyliJ8yGIf81ynPQwf3OijZkDuXHFEzPr3+NOEp+iWI+dRiNu4XQjgB/VygFB+zAHC19ZrJ7KtlPOq67VPpuRCQgtjs2ivTanPwxHCMhLgI3yU8Jhl0ezM/jKMIrHxOBilwNxFimdQCf+7j6T/UYaRp5EQTtVdsCH+SFgGhvfCIWJefAsBa2j47dfidKaRrbwMpI1fhyM1Tmm6uY1K9ePSUe1vAc1h2MaSsOTWJEV+sGqwwS+kY9cEYihG21Zk32j6eAFRwoTWHi7jZtKRsGjOlU/wi2J3qTO69iFiQ6oXnnatb4TVt9qH4Dgy6v1EAPSJ1ffaRxnDPmCp4jWL21Ym67uOX4yNpTSuz+UC7WiGQCf63z65+auDSWZTdrBUYkaG00iQePzWKlaBtBnTqdYhdIIcljkCO992FOg40aDjbg7iYobt0dewXM8A7+grOkU+kMUEvcou/BL6ZBQobxhHPUio1wMf7/8vsadwmaiMEWR4yOrokWggoYa1k5kDfPid6Cp4UBoTXTBCsr7Os2wIX64e2qb02WpDRwDh8YBvGNt0iAuWMWAEx31+AD3oFJxAN7kYtqfe70Y/7P7D6WF4C8gtBOj8xCKIHO9jMaC9LGJ5WQif1Bwz8dk9uEh8ZzwRGU/KCvMkM9QbGpOqw78zeUXs9a2g3mcAXTeWvwHdYUflw/Fx2782Tzk8v/7Yuxfba8bkK9I1OM7fNSEtS8MlsikuWIptxHQ/ylB6JXlfcBLNogbwxd3T5HuOgC2hABwKnrNEz8GUSHzb+TnyWkhe2wamLSTt57o/zPx8DOHRbBoNb6SGRC/qltSQsH86uTK23ZZYijwV6puUlSd6GQepr3MwXEVLkbCEzdfo44NqBeRPf6z8TX55Xxem9KYNBYkPS9en1T/khcnq/hGGipDVTsc1u1pejs4gRI8IUPP00M3mP3DYiqhWg0lL96tH034NDgYJRBOW/Jj64W4+8IwpCAEjNx73fe3ahZeAF12tPw9dUyWxxKI9VSAPwzbVojw8Mu92UOBC6LEB0sLX2yMPVgkzbe3AItBmV/B+JL9gqy0wijRRkX3kMH+9/n2ssNO4LR8yW/dFiRD4swc8ub2sSIv1EO4Z8N5ZbLhUctUTWQ+0XQZyfEeQjiWnH5uls//yvic+foUnWrNAW8gji894fRL9xvV0r3hhlRQmV8pZfqy0toJmDpgvasGOpHJuz6OeAXvi/pUz0EphxsTF+EesQQ5DfQ5P/lPieQ5M5oY4IZ06NEeTz/f/7GpP1SMgEOEIWa2jq56tKwY4jWqQtYPpWgW+nmU3LYSA5chgRFyQAE+7VuhQDWi28aPNraPIfCh8/Q5Mktwn7XpbxdMSP9785ZCiROBZQ3YVd2raao9d3WxKiAXdsGOnPO7WMZJXUbpfXhvRvzkur6I1k+QxIGqbehChE+q+Fr5+hSW78ScwgTe/j/F8oAPmBvA4Z8Bqckhju8DUpNhJIL/b1zFnNMYe4ILFRUuaMax8sbsvW+1hIva0GyonwDpGDyss/FD7/GJpkZpMEAecmNrN//Py9XkV/FUqWbYsSFKrpdN7Ie6VDl7WbvcxDrAJjYL3u2TDKhXYeNR3Dwng85IPzXDlZArfd/2Ph+9fQ5H0x2jA2Ite0IdaP85/rOepkbDonlgz7MUgiwTxITrYCJl0LxDXP9o82tjnHIRZJ7TE7IpDJHvjuWXhBz9dLLZd59X9tfGh/H5oMZBwNoiJd8M/X/9vruQhVuS5ha6tnYmJ3MjSsjab9mIPAai25IFEOqszCAE9kli3WBNbBOk6KFAlkR6eXy6VN2f6l8eX496FJCVb4Rz2zV/h/IQFyNumbd9FIM/OxGLsW+9JwIvEd19uLFwwBuaGCoyNnNip4pTkf8K6E72t7SJCuPFeQqPYI7dxCFlHfjU/nvw9NVgQR+YV7S2j1n148zEZ/FYlXDR085LVMwIbH/Tp3JHywb1mAnC1RXTwTyqvN2iHhIeWeufvwRs8ecUAQfTNmoVL4JR27mI1vFcS/D02Oo9AGcq9E9fLx/g8ry0587FnNWfyZjjb9ahuXcgMx0TEVazT4+mknWMkZ/GaDXDrcZa7evPcg3H65UDma5dIx7d+Nj7MK9h+GJjeOOFGhYXBl9cfx74bo9og1IDlvc6ZN2nmXCfVLBC3R23WKpHUWOebcB0JkeDdIh1aZvtbYJqZfD6ivnSFD8qNsARhnTA4g/zA0ibF/t3lT9wKlfXz+cdmz3mvQ8OwB2frMYq5zOgFmuicv0PyCwA4d47yzQCH+XSW5g9x6I9c9xEqkc8dgM5d/VyBlejyNUElH8g9Dk4Ku+zCoQOg07cf7vwsD1d4e+zW4AjVntZV4/2OO7VS/R/Tc+1UZ9COvUtQbQ0PGP3RkeMcc9Ib4TGCMxoE4p/Xr6WRnc1TiPw9NNn0sDAJfnZqTIB+WXIJr2awE3viebHTOhGyvc6CLOm0iMtfjNbdiAWVcXQhc8gzLm9zke3hh30xvuYtR039sUHdLN43s6T8PTe6liQBeYSzVH1/+bGIo1MAxhz/xv+uDBu3zDs8zkx2E3YxeN6Lb9jrwEIXL3oPDw166dXOsz5pxQrk4KsGN6GiAR3iMH7BZ/g9Dk201AoNNfu17Ux9nwDlu6JFSWJYdQ31b+auLF59oB0/OdEOblzEjVzPoByqa+zo7vSZfGIdHFNvbgrQmnEh8id3Q4MHoNYJMkYn/PDTJg+/yXGIFpvvH+7+GEZdEP11mTXtWNiqCU+Q8h5vZ22WZjTAsoCGr2A1BtMvYvrzn9oXkofaMS7gIn22knG2dwcbfjcNyi529T/dvQ5OtpJr8vDKJCggf93/W4SODw3AnJLRGkMu/QCHSezCeF1aEEaZZV6nYwm9lrSypiieqi0gnur/3YOdy/THO4troFYMjms2/D01SU5Ya3RATWbqP33+SWkId0GjEfJZ4srdI80ANNttZemlXH2yEd1ETwQwRHOF9gnlxDxdz4K3ssyFgq7Mffnkjoi1PGN0L1ZGq9rehSaJYlfeQbdbLERR/vP4H8ajMec/xgdH1n3zv/Cowb0CigRtd25OJXihgUA8RynHtq8KDdratZWa3AenPdu4nmk9BPUKA+x6Mg92CcOTvQ5NKIwq8qBAM1p6ej6f/cZXmNbENUtHD7he6gOuBd1Ym7YUpDNSpg9luQHBv743nsl3dzHszrHa2Ogv6DhjH+rWG3sNZkejNZiphV+/SX4cmJwpKazBupYmir0S4eOiP+38LlFwvSJPczMlEDOF1A85xD1qWXNqMRyvllbVYC3/sWqVUPnonETf5UYeBcRGbhLmOvrnJjO0CI0viUi7yL0OTuwdW1txnx1HXyKyo5enj8x9cC+IQ7GC4tz9k3NsXMXmzlOV1Tds2xrU4WlhdOMP4XnCFqndR6xZFvucNJgjvjIetMRZmchNSmgPBS2n78efQJBBHpBbOE9Pw1N2cnY/bxwHQlRgejK/waDMngcCuwviUt5MGx3u8HBQBsZoeHjs71n5GoPZL7jM30GuaFJbMdTwIcPa1ZMqO5eiIK0OofxmapAiZDI1S4Q+R9016ucaP5783GyluANKACKnmBPbUIGxFAw5HHRt5zWy9hzoSzJH/SY3e7ZJvH7FC7DxBXI6Mmlw2j2Tw6P1GpuBxH+DPocmFUYlb4rUxPGuo7t1Owz7e/5dTJXzrgs7Qle9zAVR1xmxlwfWSYppBfUG46+btFp7NtP4x4/0bMMBBex/JS/mTypgbFNO6vHRq0Qfyx9BkFkxJPXKeCREPolBSZ/P7x/NfTGK4UrOj6Q3FnusQbD+r4pCUnikhsNZbq4lGwuYIb9bnC3dpJgJrXpRDVih0QHD8VzLT97IO83to0niBSJdHUm6yBM2JjGURBENi+ngF1ImwgarpNkfBs6n3HZGsjVGF1mQyN1zM2KtknFORG8k9XLtGAqdmKrww6ZEdA9ujANwOT1ADkPrHNShyhFrfmRN4UZEQWhY+CKV+R6BBZR5OLfXj+f9qWfTcN5fSvm47+m4/07kiULeveNJ9Foe3lRoWEB0v4E7k9hgA3lc63YomtJfXvobZOngiDOqtpdGDEDuGxFLnFO2OlLkXDIGuY+SbhdGZ9bHx3BX9/P0XRWxtR8KnYT2PCxdoCPIWwqhCR1/mdYWz11luWuyrrUZZcyD0Vem1IhV6TRsmyzrL3UduuAHPde0u9URYiRqDyTVYbhQcmsGh9gKbO959ttSrJVhPP71+Mib53dgc7rgHRnJqaqIRGKIdhTiImwt5QcrG5BcqsVcQCRGhsxOJgKnSEEmQ0hGY9wSTOS+5p3WCYin1gVqzbBg66wxz4bwOuSA4sgg1wMBK9Zo+fv9ptIGcgZDQ85hJPJBrne0OwrYNiNmk416iU9d4mluL6Aey1nMOgK1HRBe44RbA4yiGACuJlyJFo7mzSG7WhkFfm+FcRrALWvm92Rkl0swbi5LE0j/e/zRgtQSsrHed1x5fe9k3oRwcErkQIvTdMKtZ7QbxrkCTZn2YpbbJ/+fFUEVqr23I2nY671HIHh2IvwTv0t5yTr6vW3fM9J164Cr2sYo1HAiLYz+iah+f/+UYlKyUZp03tbWXP0tf0RpQndEnLCBzWihvVA18kerDk1wtJerolJL7aISS7HmDwfjF88pcCWNLLxcJy6dZR9S72pD+ho0S0XomYyIMKscoLN/Rf9z/t3ntRZ9xKJp5B5hb9byyHHFg5WGgN1jEvN3gfhD/wf6kvlKupdAv5sl7aJJohfHMIqZn+MMaET13CJiO992g+9WXiIqEP/rT6f/MtpF1Ek4daHvcZxcP8/o/dHGqnoht7SzlonWiW/dZwvPab3T/BqEr9IAUIatoZtrnLjJd7N25P4cmlZx3QeFSiLS+RsPEvuu2vhFVZa2Cqwcl/Z1kz8tsAhuzafiBi9r+cf6XTXMm5zaZWJt3Fi0mzh4WWe2+hTMopa2ZRzmRrHtj14HM1qzHvw9N5t07o6Kt6Rx23vD6gG6BIpfOCAHtYrUduSkEvTyD177N3PGHZV/wMbYVHfyccOjo9+d996sxMfTdRiOR31lYg4FwFaRxFBpdl9xzjn8fmixbwiUqJhyhBrFAgx1EvGbzw9K5QYfZmWZzlAy9yyyog94+v/4zWc8c1JUXCDvnOiNoRUys151bAVJPZIvKEV5H6ZpBjcupZt9+WSH9y9DkReXqGPEIbhe3DvT8MK9+xeAvq0EO3fKBCpZL5W33ggGxED5e/91XWaJxhiK1ARITpeI8GAjRhkaKss7rKmMHub06Gnjbd4R8pM2ed62XJf1laFJnsOXY+gHm3OZkvznntPzMlarLw3aeM8B2DURnmY1o5z4+P//yM+mJaJ9ZRGuQZ0PjKAPKuRDCg6rUlY3011PJAbeGrNScfOgNETJRwfw5NKko8b0/T0cUlVEzNIUNZutjY7O2UG9wA1SAWWGDllcooz4fx/9ArXTjWDSIYPBMR6bZnnCVCIvJhONh7+OaxbBsHlykWzmCY/syNvPiVQ5/DE02Ziy6ivK8ywAnmxekEYUGnkPQ1vE0+Gk8RPduBLLvoSP4ePyX0LMNSHo1574PW6oKsl+pz8G36Bu0UXScwW2Jdk7LQ1/M8WCgh3jo0fzifg1NYggNcwAW1xRQRXi7hsfYhzviwPdjV8EXjCpuXAKY1j+Z/4/Xv3aDOk8I9bEzQGa+H4PC0lLPJsZl2/L18x0V78dtBZZbbdmcQweEh+o1Zhco/AxN1uTW2U5pA7+OWVjQeNCoE6Xm1T2nNAp5xEgYT5E85J4wfJqP538cEzP0pcwQCMxb//ZCCTp/ZDGRIlrZTyQrS3j3acySPe9zmOVKuP6A1GemiMgMBX7faVtSeieGGLyaB8ZHFZ4jr3aRl33aPqU/V35wH69zz6A/nv9rs95B99dLw3LFtcTFzmtAlknwfD5eePBzuD/9XNXwYCxEG+jk9cySAamMsI77Na8H6Z1XAxeP2/zJXqMT6PjndwuARNMZtU0HiOEW+FhmXzg8JXweABM4X+yZiXASUPMxhoXj7oRX/sBsbd+DmJOKZj80nv28uzq98syBD5Nfo9SUdiD7jx37TeA7a546cM3Wf7IfDuIcjV/W+eFzatiOcXddJEaHo30c/6IVu3mrDdfX+yxiGCfV6LBOh87+PdRvufbW9NQwLAr1qMf/urvifpbGTYseg8T7ClmVUrSJpTTiNishj5R9QH51h2qwY3SdQ9T64PVQLsVZKP14/9eOj6C913q1PzcSMMZXWEbco75vGwOMG723r4szeg6LgYqAMAh/sBauEMFjOKhSo+pHsaJnH5sw4PYTDAKmVJdV6xr48oS9uwSLnXetIi80s97Wj4/3v77uQ75RYFsFe0+zkwS6Y8hur12VA7YrlXvbe63nvN7VzgtOESGBM5WBPK7ex1btgux5eOksIUMK5plisi6g6ghsZtbX5cH4Jw6E0sFcINefzs/t4+tndSwQzry3uJp3LS8W9N8z26X5uvHtTrDt4lgom2MNg47T4m/1TRFE8JFzyhmiYbcj/CMwe2MNwcjA8CW1dURXQ0IBE6VagEHpzVo2uyzYj+f7eP0LKFolh7G12Od3gNHA4YpIYgZoVGIy+f48JPfGKmPAvOYIbmv3s5Rf99eQlfCr0Pe/I3tEK0IQPJkh4sf8Uy+8Z/8Dw49g+DmUrS5eB12fj8OfmcZD7cwrPpnsM++DK5UF/TXG612kBnGdh4TEcKZqJwpyrzm1vEZEyKwpfjoM4+gTup+XOUdt3OyTeDKSpfktP3MGlnJhRyJ5dlWzgXBhO1IPDwKr5+P498SDnBcgzEGfXCYX+rmTCv8/jSPEB+xuCdvtMNplZY29tJNkfm+SceW2ra8hACHHslBeSCk+vm+168iRLq7EvAiR1LY9SHm7GTe0U7QtTQK9CuE/3v/0OHmjY7bOEZnfp3EThHzcIwjeNSL5MtCRC4dstW0jl/1VidHKDrvs/WX8zqTOVobOyGIXTZAUg6TNmAX3akHMYzcGvlofCuRdPgs0vWdi9grEFf3x9XMJMldScxVLZwPtNt4I5ucNJ3M4cR8bevFUVFuUUptbd8QAzSlJi5c5+DV4pY7cV2r92g0jlCFuTit6UJLE2pQT4gnBSxBn4rLB3lRFjCwHwgHB+cfrP7Ole+leUn+oRN2lPbQEUqV1XnrDrmOvkqezzAelJkQOvASJJ2k3NPhTFctKvRzflI/tJkil5lWpG0fguxxbEfuC4WNyCMPNpoGKPPqSi6Ee179+Hv6JNH3ahRie7WiisM47r/zybHBBWvC0JZJY1FoWO3SuUT+EE7H39x0OnvN5me9rMSvGs3U2wh1bq6nM1uiGDOFE9ZljNL/GnNrz0N0qZISVQiMhfd7/ZT7Hc2FtaKG5/+pHM2Ne5x7mlzh1OfO8tZUb4riI34LPVel5h4dCO2YLIlmQaT3WRKcLPcriHILBNJHtiiahjpLe13y+Q/2T0jO7xPeaZ13Yfvz+m1dnagZoU0lYVQ6TkSIxQTVGHn9yNAbXEnv84dzrQeSX6Wxqn3e4VPDO4ZbddDY8He8vTsGgII1c+6T186tSpXTH+w6YYXwMxmmozM0+iVQumldvPj7/eIyVz6+8WbzmyHvnt7cAbSwHSrJ7Z2d9yXZ+KepdDxfR5nMhP3f46PdYm4mB5uiYHkeXRrClbCE3joZVnNZ8Q27hFmbvs4U6LkBtcSWuweiHlLF/3P/TUgYXdT8HLpaPOq/oYULrvNa6zMwPRSNHHINnJ3lYq0Tl/3WHU1e65JnHikQpjJgyMdfRtRmJVrWIYWdXrOBQjrOycY2956vPyJLPCwPNFnOUHz9/wraVQOVnIimq7arnqXNc1lTy4vR73gHqq2YzZ/eJbwLR/s8dXhB3Ol7rvCIAld17uRiqZCOzFRghz4Z04H2pLG7GeVdGS3YIj8KEWJQSNJaDfDz7jUIrBKDorsI4iGk9jy07tAizWAk1HGw9L3hs6vOOd5WW5fcdbrNd7CAKGeArU9vTvCx71Z4Ary/QlOJWAKH7uys8PA3YzAikrsBvIB6f4t7n6NSHZU5w+V5P//4WvNn5jk92C3FStiCjE3dIAUYz+92B3z1v/Y87/GB+a5JSzwN3Q9/P7bKUdcKm4xlroWpFmBN8+4lxz6mO1BQEgktWLM8L4M8qP97//nhr4dx9UZB4wVW56RMGnC9N2/zeA8TC4YE9nQuk1bBw/b7K5j3nipAIHs5eePpCFsuP9xfe2kt4q6fTQPBbkPLOSZm+1FlCXRZUqqbinpAHmY/n//rRS3EFyS4C4b2AUNbbdxv/vMPTQUdc9JpXws+LgdjiOfnjDs8yUx6zl+VBXOiTWVyc33k9x6jwR2r3vszpx/XVosJN7kAa4ox01IK2hHYDRH++/IMOes4rstnMQg7Euly3n6z8vMPVrIX32es2y9trmTZM/rjKptpS319y/W6dbHxVQc+vEDwRCqK5y3ymsiGCuDu6EsE4mV8x3Gfpc96N+cZDn4f/v+QgCz7qVkKJfuYstrmuGaDLmF//JmaZ5NVqcPEvV9nUjcp3YQD5TyC8mrBIDBIzydv7/r4BSWCYyPJ12PkVu/W4MerNpMn7twjIz/f/f+UrX/nKV77yla985Stf+cpXvvKVr3zlK1/5yle+8pWvfOUrX/nKV77yla985Stf+cpXvvKVr3zlK1/5yle+8pWvfOUrX/nKV77yla985Stf+cpXvvKVr3zlK1/5yle+8pWvfOUrX/nKV77yla985Stf+cpXvvKVr3zlK1/5yle+8pWvfOUrX/nKV77yla985Stf+cpXvvKVr3zlK1/5yle+8pWvfOUrX/nKV77yFYD/B92aGZl3Kab3AAAgAElEQVR4nOydd3hUVfrHv+feO72m90qRUBN6E4IoZREEBOwS0XUVC9jLrhLcte1asK6d4Fp/IkWUIi2AIJ1QEyCk9zKZmUyfe+/5/XFnSCGBoEBQ5vM8eSZz77nnvOdM5pv3tPcQSikCBAgQ4EqE6WwDAgQIEKCzCAhggAABrlgCAhggQIArloAABggQ4IolIIABAgS4YgkIYIAAAa5YAgIYIECAK5aAAAYIEOCKJSCAAQIEuGIJCGCAAAGuWAICGCBAgCuWgAAGCBDgiiUggAECBLhiCQhggAABrli4zjbgglC1jyngHUx93u6Y7tHGCkPPu72dbVJnoVLICYDBTrdnV2fbEiDA5c6fQgD3ndgx0sN7rTU1ppv1bG2jaH/963p578JGh4ZNGzaSP8fjZNWyN+N2/Jo7xuNwi0/cM2pjZNrdFedrg8d+VC7yZpp/6pROpdIou6TceN55XCA4AF8B6NJJ5QcI8IfhDy+ADaVre/Kis4vZWj63weRmtlU7U3tEVj+q0des/eWgucFas8HC2Ru/iozvVxIc29cWlJjaPAIs+eX7p+9w1te9Om4ojThVJq8tMtUvjATeP1uZh3ZnKY0qJaPtMty1YfmnxtQu4rDq8urZrMr4Y0xSVD+WUf/voEmo7BfMBqLNBghwGfOHF0CHozikorz8YYvL3sstsjLeJaCs1h1ceKz81hH9g+C1l9GCQsfdVSJTPEBesTGI3b0KyqQ8hF1nBsDVmCufjdI4InvH2r28O+WByOjBK9opivySvSTM1ViUXnL0WEZhneJQl7hNWq3WOfr7n2myVsMqosPtg9VB9i+DjBbjpWyDAAEC/DbIHz0kfnnhN5rtv/56156chttiwxUpSjkMGjlBsFEOyqig0gooO2WFw+3BqWInBqdwgkoXXN8/RZ+z/5CtosZuve3msaKsziQKWSu5D9KHx6zffbBOPm6ERgjSe4xwuxJYBRt1/Ii5hxmaHt1jELLnhMAEGTl0i7BCpRVwqjYIISov8ot4qtErjnHG1PvdQrfcyddPqrvU7aFSyGUA8pxuT6ALHCDAOfjDCyAAZG9ZQ/IKcoPqK8qetVktD4sCL6OEh17BoKTGDp1WhapKC2aNj0ZNlQ3heh41Zg6Cl4dHocS9M+Qoq5LB5FDTHvEub3W5idGyVdSpMLJlFVry8zY7CQpWoUcchUatxNESL9J6svC6bGAYglq7FmYrj24xnIWoozMFNup/nHaYacTgAZe8cQMCGCBAx/nDd4EBIH30RCoPSrJudy5dHxyssVC7vSuhjpvDQxUyTq0maq0awUYlDuc78JdRHMz1chjCAKUo4lClHGXOBCjU5eDsNaSyhpXnHhLglCVh595y3DBGge7xamgMDOQsAxd1Q6eXY/dJJ6JCtJARGQqrCWIj4DKGhX7KaaOL6m0R+hGDB9R3drsECBDg7PwpPMDWLP9psbGspui62krTdeGh8nusJiuJi+AQGcShsMiG/n2MKM2vhRtKFJW5MKSfAX2GhOLk3gJYvQps21KLQX2CERvFosQkQ9pVLny3ERhzdSTUjlysytFja6Ec/aOdUGlUUCqZgzHRoW/EhERsNGod1b0HPXOumeeLRsADDBCg4/wpPMDWTJt0lxnAd5+t+nor46o4VXCq9h/duyhVPGVZnUGJqgaK+kYKldKJepMH67bXwcJ7MX6ACKeLYMevChC9FoVVLlTX2cCCQ58EEdt3lkCpMSAiUgFxfzVKw7qWDIu0v1ZTbdhy04yXDnV2vQMECHB+/Kl3gsyZfEv1kR2lP5kq6E2nikNuLTLTjas3VZQFR3ps2hC5t1dKA9+zO6XdY9UQGmx4fbGIPcdkmHxDJE4WOUBZBXRqHh4qhyJEL/IuiGU1gtNp8eQEyxSPkK692BP5Qduee+LVgPgFCPAH5E/ZBfbzyhv/1u/dt++DPt16P3jfPRkNuw/ksLnHcoweWq9yWeq7RoeqYBPoXzi3KzI2hrlp7c9VstSBCYgJAr75sRBd4gxICAZEBUePlbD/6zcw4uct68vK7/jrlJ27iqnHFh6/zlW8m4v3Mtc/Mf8xe2fXFwh0gQMEOB/+dF3gDz54l13x3fIwURTlScP6/EVt0FYvyHyuAQCdHBvHT5482b80pdT3urkid1vIloM/jJHrzDEOixnFvAZXJeqQGMMhLsgDKAW314sRh/d5Fn75zf8VAMAEAPM/ydrVo//Y+cd+Xp4G4JdOqG6AAAF+B386Ady3Z28Pk9X6gzo8zHDs14MKjnCbH3/rs5DX5s1pd00epw221VRZfxA98ussThh43muwOhTLFQ2csPuIu7zRwe+Jj1ccZwiqmz/XcHRvQ22fUWpVXOI0BAQwQIA/HJ0qgK/85yV2z47doeaGhgiG5Wz9hg4rf+3Ff7l/T56jBg3KLygpO+Lqn3a9EBTEyHdun3zghy8ef5steiOlZ9+6666ZIbZ+Zvn6n5nIGLXtwBHnie6pvb+oqMr/lHjYd5978b9niNqqLSu57z75JlEZHj3bC9zNeG2EakKnL1i48JWFCxbU/h7bAwQIcGnpPAEUjrFbN256trSw9A6R0nCFUunYsWH9mm03PzL36j4hv1kEXaldooe4xuVWnyyYULxnr0sUxW02i+XGlcuzp+745dCKE6fyllyT2jMvZdB0CgBPPffoCEbmWNBgsgzXh0buzDly7L6oSN3mhG5RvdDMq1u37Qtd9uY943Zt2n9bo9We3CM8id4457Y1DW65gU3qe0Ppge1XA1j2+xsmQIAAl4pOmQSpzP+ZPPX8h9P37z/yFRWpXKWSIz5cD9HF86Iu+PXeaYMWvvTiP53nm+87Sz5XLmfZpZqY3pOmxsYixVNTr/XWzNuwad+61StWDrc5bJPVWlVPvVFbptFqV/foFrtNHRzLFeTnzpSpZAYPkfdtKK+p7p3WNevaURP2rfpxhd5kNacKbtdYXqQ9qsobTKKLX9+rV98Nk26/q3pM/178jmpPcJ7Vs/GXpR/u/uyZx/4GoFNnlc5jEqQjdo4BkP27jeoYFMBCAJnnSJfte02/AGVmAlgAYCWAqW3cTwewuYN2BfgD0ike4KbteWzBqZKZMqVCrtFq8cAwDZIiebjVOu6zTfyju3ds3wpg9fnme8hlTywM7jMwWRGHeI0GKXHGEGt1/fUj7rj/m0cfffSHJ+c/sjrveK5Oo9CnVpRU3lFaVLYgJjEqZ9zYQR/HJvTZtu/AUTE17ir57j27+z2/5vkPLGZrakxy/OYQneFbe6P9SLeELo2L3n6nRaxBJUdMCWoszQnTXfvBx0vk9/119m/2Xr/86ovggpP5ESzDOp997rkyABdzQfXCdq4bAczz/W6+iOX/VrIuQp43QBLA9gJhBPiT0ikCGB2pppyMc9qr66BkCNSiFsfcMnAsB4vVIeMFTAawBufpTVlExTS3IihUA4IgOYGCcXt53vrRkDCVAAD/XvQmD6ABwOaDeQe2fJv1TdyBffuu//KLNR+ptFuqlRp1XsmJ0sEgxKTXat+4YeqMeVMfeKIuxdB+WKv+ITK6saTk27ikpGvsp47LAJy3AC56/SXlxvXZz5eVlc9xOV3BLMcJK1esWB0bG/vw9ytXlp9vfh0ks53rfhF4BEDORSr795B1EfNNxOUp+gEuEp2yEHrM+HuEmJjILTK5jLo8XnyZ68EHS6uxZHkd7p0VBDWHUXuO5SvPJ8/PP/8suFxB7hM1Gva6ECW66jg4HZZCtTppT1vpdRodow1WRUFGxtSU1yrNNdZDbqt7HyeXORUaRVTq8N6qOfPusZ9N/PwMiIzPZxhxqyoxRHM+NvspKMwb1jte+fidQ6Mjbu4XLdMpZEpLg3laTU3NQ78lv99BJiRvaCWARa3uJfquZft+snBmNzTTdy0VkpBmo0lojb7fs333UtuxIb3Zs4t8zzUnw/dzvradjS0ADOh4N7d1efNb2ZnZRvnpvuuJra5noKk+Rl9e/nwXtZE+wAWk0yZB5syesvTFiprJnJKdwuhV3Ky0EKg5AbvyWSiUbOT2n9fqB/V8sMPjgAdqKkeEdO0WnabjMSSYgCMUjfaqLaaKfEdUVAr2H9hLNm1cGZ1z+OSw6rKqkTKZLKLRYitQKBRLRqVfc9/shx9tGNSzq7Dks48+XPrdsj6H9+WNnX/ffZ+a68w2nV67PqVfv60Ln11YjTa8UqNcRoPsDYe8glnxW9qiprJu/G0TFbJkrwPiYQ9q7FqsP24jFrN5yq7dexcMGTzwd82Md5CpkMbDDuJMgUmHNBZmQZNXONv3Mw1NXuMCX9rRkEQl0XfN6LtuBFAESWTTIYlgURs2FPuuz/PZ0jyd37as87TtbGRCEpt5aBLf9kj13TdAqqMRwJs+u9IheZBTm6XzMx9Svc1o+c9lUbO6rIDUdgd96TJ8Nl3Ksdgrik4TwLF/uctWX++9Y83Pm2ZpDOLCk5Wu+EQNg/wKG1iVQuZ02w1Ay3V3bfFa5kPyYycr5BNumLAnLihoYbye3K1lvBFF9RWkNn//+qwPN2q0wet7VdbW3iZjabqppvFQXEzCe/98YcG+mMTkM4Rl9px7HbPn3LsLwK6tW7exK7//rv/uXbvvKy0sf/5ozsEfEmLjs6oqa4pffelFT2xSl9Ni6LLUFzfYzeftUR/au07l8PDj3MUM/rmPA/UyaGi0g+VYcBxXOWTwwEtxvkkipC+hBdKXrnU3cBEkUUptdi8RkuBkoKXIjAaQhiYxyob0JV6CJvFKhyRaU9FSDPoBuAtNguAXkUVoe5LifG07GxkADvjKbp5Xa1ZAEuP0Zmma2+kv0y/8/jTpkNo3HU11ngpJSP0e8WhIQw/++83rkd3Belx0uiYmIb+osLPNuCB06jrAWXfc65h1x71ZU/9ybe/8/OLHikONiA43VvRJTXxuVPqQgnM9/8mSRcHVxRXve1y2AetWrqrnFJqPldNuHVlTnB8jc9fI1y9eock/VbxdqVTulyuVaxIS4l97782Fpd379DtjLWBbjBp1tTBq1NV7vv76i/0/Ll8ZW1FZOdJUXf+U1WwNv+nm27ZcM+aa//7zlZfsABATEXZSqPZ6t+7YIFPIBNmQQeNdAM5ZzoZfDqREadnudgcDdbAWCoagxuGBIcjAKxXqpR3J43dihPQFNEDymNoa98uE9EVuLgpFvrStu6hLWuWRDemLndnqmr/s5hxEyzG+HN/7eWgpJr/VtrORA2liaAEkby2zjTTpABLQUvz8z84HsNj36hfAdDSJmwFS28xu9txUSKKYjaYhgVQ01bXIl8flOBb7p6DTd4IUntqrnDYheMz3q2ygPAsPWHtNo2rl8CHpZ50BffrvD0cVnCj4OgTeUUUVZiKC6eqwnkobMHxCbr+Bg21ed1jjl/WWUJfT1atLz76m+x595ja3xz3zlUXvO04cOVjDsiwzeNQYMmDwUJeX57Fq6bfuypIiqtHp+OtumMUrVUpn3uEccvLoQbAs5+0/dKRn0KixHhCy8Ydvv5xdXlr66o49e4TMF1/N1SoYdse27J4GnZItU2ydVGN2xnwe8e29773/2YZz1d9UV69rsHuZKkaNG4cCv55gEZUQ7TxxrHB9Yo+k7y5cS7fLIkie10K07y2tQFM3Nr3Z7/0gdQObU9ROHu1db11OW9fm4cwu5W+x7Vz4PbgF7diS7nvNauOeX2z9dhajaWZ5qu/9IkgCmO5Lk96snBxI/wD83feDaBrPDHCR6HQB/HH1mr7ULev58suROLLTiqxv67tWWXJeXrXp5/mTrxnnaO85vbV2isxuG9UvTk4YxoBtB4vRb9Aw+U03zein06iQ+fwCVFdUQBAEjElPHz12cC/s2bsPOXt+hc1qRUhYOGbNvBFpaf3w4w8/4viRg3A6HLh++AjM/eud1MsLmPPjMhTm59PwqGjMmDEdSUkJ2LxpC6qrqgmllOg0mv/cM+cusPDSnL2/snv3HoEhxEgiDSq4qysXvP/xop1z/zrfdrb69+nbpbih7pRDtHtVp04AeUU2IaJ70gtXhya+9+bbbzZe+BZvwXxIX7YtOPsEQAakL6/B997vtZyPh3WxyMCFs80/7rYZkvDMP89nt6DJM1yBpi7/VJ9NOT77pvrSJaCl0KajaVKkn++n9fDBZUXXxKQ2r/9RusidGg5r2961jFFfeePIHlXKvXu0GDA6CP/MVJMeXdT35Oz69vOlXz3f7h9xpEbslRyhETaWuMs27MmHITgMz//zRRh0GmzetBk/LPseoiBiWPpYzM64A26PB+8vWgSb1QpOJsP0W+7AgLR+OHUyH/9+6V9wOhwIjYzGX+9/AEo5R75asoQcyjlAWI5jZtx6J9O3dwpTVlTEvLrwecbrcROFUoW/3jeXjY0KZ+vqGrgTx4uIwIvE6XDT8CBNQWqssnc4MfU5VxvcNOu+kkljku5lGLYxp9yJSrODByfffgnELx3S4L3fU2kPIySByYE0GE9816aiY17d+ZB4lmttlXUxbMsG8BYk8clsdc8vbhlo8jhb//i7q/5hham+vLKb5Z+Opu5vcwH0T5CkAgiCNCTh9wpTcZnRnvj57nW9hKb8ZjpVAOuqDoREqkwTg6LtGB58CjuXe3F8lwFj/qIhBoV1ysmymjsg/VG3RCiR8bx3yJ5KV7HZRbIYhsWtd2agW2IMAOCLJUvgdDoRHB6Bl195BRqlAqt/WoM9e3YDAPoPHYGHHrwfDMNg8Ucfo762Fkq1Gs+/+jpSuiWhtrYe33z5PxAAA4aNxP333QMC4KP/vo+6+joQhsG0W+/E+AnXwsvz+OCdd2BuMIHnvbBZrEK5lXl1Z7Ejr6K6tncHmkFUxQ5fXS7I66JCNIAgEK/TyV6wRm4b/7hfc2+kPfzjV5lo2QX1D9pfSNLR9rIX/6zwpbItE1LbtM7DL1YZ7TxThCb7s9E0qeR/78+jH5q8Qj/+zyHR997sS5vpe385eNvng7yzDegIndoFtlWXJCbGmxPlbjfU4R6Mu6oB27cn48QpHa4e2CjLLal7+eEHb3d26z5k8UMPPyT4n/vm8w+GweHoowsO+q66sKJepVJh8JAhAIBjuXk4cGA/KKVITk5GWEgQvLyAD//7PjxuNziZDBMmToJSzsHhcGLbL1tBKUVScleMHyXlsW7tOlRVVkEml2Pq1GmQcywsjTbs2LEDoBTBYeF47NF54BgG+acKsHfv3ubVEnVaXUNtfUVJeXFNRsXO/34VPfT+M2IFfvnvJ8Iiyk4N9giCuyy6i4FzeCLMggCDXsMYZFzExW15ZEESjoOQvnjteYDZaBKeRWiacEjH+XUPO4oRLdcOZkASoWntpL9Ytvm7wsvbKG8JpDHCRDSNz2VA8tLeQst/Jit815sLeLbvtR9azoDnNLuf6UufCKkuxbiMZoH9+Lu57XiCl0V8zHPRqQJoNNABOn2jhnXykKncUEXUYPyUclT93zXYvFUFXgWNxdzwnL3h+EYAhQDw666vFbToZGZto1cZEx+3ufJUWYhSrUZouKQZB/bth8MmDbsFBQeDYxmUlZahpOAUAICTyRAdHSmlPXAApjopSlZ0TCxAJId429YtEEUBMrkGMTHRAICT+QUwm0wAgJjoaBi0agDAunXr0NBgaqoUBWUZximTyU4KTteNlft3j4weev+65vXe8u+H+rFHT3zd4PJ0SXTYRFe3JKTEaJRCjRm9QzhOayp/ZvtnLx4bMefvR3Bx9hb7vQn/ONPZyIS0NGURmgTBAumLmYgzl3v8HrIgeW/Ny7kL7U/OFF1E21ZAWhB+Q6vrGb785qHljO5bOLPL7BfA7FY2F+PM8b8iX95ZkGaT/ZxriKLTOFsXGMBZx74vFzpVAOvKHYNkRp6RaVxgtF5QAIQR0D/FhMOFUaioFsBDiBFgv2fvL1ueHzhytLB19daB/S31Q/a6WVtKSvdtezbvmE7AgPg6yrzXczp/QghACJwuFwRRPH1NxknVNlusEH3BIFiWBQFAKUWj1Xo6LcNKomgxNR3yplCqTv9eUFgINA8oQQCA8jKOO1rd4EBtlWUm+H3rwQ2QDCj/lbUWlcx1uIUeyaKD5LMcVq85gMfZRmjMHoAhEFWkn3tr3dJ1pccnjF/w+cUYTU4/z/RZaLl7I7vZvcxmv585XCHdz2zjeuu0zd/7l4Lk4EzxSv+NtrVFe7b5aU945vue85fZlp3w2dVWmyS2k69/Rrv5Upg/6hIYz7mTdD6dOgbocYoGUAEKmRPEBTAQAJaib799aDR5cLKMh5vI2LyCukeXr1lxLQBoBNsEkRBVvlWo/Nvs+0sAwG63oaK8AgCQ0qsXZHJp+KGiohw8zyMoJAQKpbSzTuB5mBukv9WuXbuC84lhvckESikIIYhPSAQIAe/1nk6bkNwFHCcDAJjMTX/r0TGxZ9SLUngjI0JOHK8we6us3llF27f2AoDSfd8w/3j5o5l1ZsdtlICEN7oQLaf4G+tAXJUdOpsAQxWPMMENXa0tSekW+l/oNv8dmNG0Retik+Mrp6Oe26W0ra0yL4T32xx//f+o4ge0LfyXHZ0qgJxCdcri0ENUiJAFWQAw4KGFSwzCzOkFCA9ioDEq4SZEedVVJW8t+Xje9Aarc9Y+i5zUWx3HAXhFkbIupxM7d0ih+9L690e37t0BAMWFhSgoq0ZYSDAmTp4CEAKvx4vtv/4KAEhOSkDXbt0AAEWFBai1SF779JkzodXp4Ha7sHnLVgBAl8Q4dO1xFQCC2qoKFBZLEfXHjx8Hnd5wuk4EBARg+g/onq8xaPNrLB7dia2/vPvtK3Nue/WlrG9Tawo+tXqpZnhFLQx2L4wNHsTXO+BxMmCcAFgKvpHAxnO03OqxXvxPIUCAi8J57eXvLDpVADUybK/P5fjq4ni4RQ08Qgg86AontIDKhXFj3RCVMhiiNTDoXVdVlRYsrTS5um3Kt0Amk+cAgCDwjCjw+PaLz5GXXwgZx+LO2RlQKJVoNDcg87nnYbU78fgTTyAmJhaUilj340ocPHoCMpkM9819ACq1GqaaKrz4r5fh9njRv38aho+8GqAUa39Yjt37DoEQghtvnAmO42A1m/H008/C4fagS3IyevZuPtlLQRjC/fVvz1t6pHR9L9/spYzJNEpRW/6F2+uZQShVT3ZUI6zeDZVSAAiFzCXCEcoCIYCoJBAdBKyXQg3xYu8CCRDgN3OOtX7yrolJhrMluBzoVAGsd3H5CiUsZftVWPptf1jsBrh4AR6EwMNw6N69BP0inLCW2XGySIMtu0zkRJWV1DVYBYPBsBHA6SmC+toaPP3IPJRXVuMvkyfj+ik3gDAMDmzPxrtvv4vQkGDcO3cuWI6D3WrBP556DGUV1Rh73XW49fY7wDAM1q/4DouzvoCMY/HMc8/hql694Wi04oV/PI2yimpMnzkD6deNAwDk7NyOD9//ACqVEvc9NA9ag+G0OSKVtq+NnzD260I7Pf7uYS++yXPjeJ3Nu9nJeVWCtMmFVhGE1HpQFKtBbpQBpd3VqExQwa1n4NTIrbxMXnWJP5I/MqmQxgcTO9eMPz/NhS+/qLC9n7L8okJLJ5rZITpVAI0hIeWshins0q0BERYnju2KgMfpgNmlhw1jcLJ6NCrrOYQGy7F3r+ukqcFVXF1ea1cpVGtHjxy5GwAIIafrcDz3GFb88BOUSgVeeOlFpKSkgFIRq1YsQ5XZgVtuvQUjR6cDAE7mHsOXX/8f5HIZnnzmKfTp2w+CwOPL/2Wh0tSImKhIPPXMs1BrtMg/cRyf/+8L6LQavP7Wm0js0gWUivjmy//hVEk5RgwbjDvvuhssd3pOiQWAqVNut/RO6/2QMSn5GWNi14z068cNHD+m90QnK3O4OQaimyAnVgdluIgB3c04pQ9GnkKLA+FaLAuO2+QaNPHkpf1ELgrZOPfYXCak/x3pv7GMLEiBDDbjjxW5ufVynWxchstd/sx0qgAmd+1qtSBirT7ahuuuzUNXaz1KcmPBsD1w/JAB/1mwH9ZKF0SRoZERUc8OHj7g6sSEuAlp/VPnPPLkU04AIKSpDgLPY+3qn+ARRMg4DiNHjgQFYKqpxqrVPwMAZt50MxQKJURBwNqffoDTw4MQBqPTx4ACqCkvxTffSFtwr+pxFUJCQiAKAn5auRx2txcquRwjho8EAJjr6/Dxx58AAKZOnYrw8AgQEPBe7+ktfG+++s6GrI8/f+WD9z5Z8sKz/zoU3yVpb5nB0OhVEFiNLDZzGqxy6lFvkSOhwoSNDha5VCFERYd9ffutd/4hZtI6mVRIS02WQNoNktmp1nScTEg7cZqThcDe30tKpy6DGXZ1Bv3iRPnXtZ6CR+J72zXRQXXwFsnw/WdlWPZjPnQqGZQMA6eHEoWCRL39+oelaDrPF5uztxCGZbXN86yuLIfd6YFcq0RQcDAYQkApRcHJXADT0DU5CTq9Hu5aF+qqKlBjtiMh3ICY+DgAABVFHDqwFyKdA7VaBa1WinFqqqlClakRXaKCEZ+QIKWlFHlHj4ICiI6JQlR0FKqrqihA2x27M4kaNHIKIUjPYZ9Wi2q9HgeqLNiQTzAiXIWZrB1KvWpHwpxHf7rQ7f0nxb+mMQt/fO8pq7MNuNLoVA8QAEaPu/EE55TtExAJLjYWXdOrcGd6HiKNCmjVCugVLKIYL+xVVXe9/NqCVDSbXo8MiQQobYqXRwj0BiOUCmm5iiBSUEhC1b3bVQAAhmVBGAaEECiUKmiUvrS0qSlUKjUIAXgvD4/HAxAChUoDjVqa2PK4XafTKuUyEAAMw/jXF1KX291uAFOvLrKxzBD+3vfGMH5faDg8DAOlQobZsWqMY91IsjoFb5Dxk4RuV12qOICLcPZIyhm+n+ZpV7SRDpC8saxmeSX+Dts6Um46mraaZaBlxGUjWkZXno+2t9n58/DbbMTvj2zd3GZ/vs3tzmj2Ph9TZ0QAACAASURBVLNVHTLQko7WIwMd+4wCNKPTBTAurgcv2sPeKz8cbBHcSRDscYjqp8UrDxME6xkUlTUgmHiRpvWkFe/4dfPtM6a8+PRTDyVsycthS8qLAOB0FGYCgqtHjYJKJm2lPXzo4Omta1MmTwQAHD9+HFaLtGwrbeAghOilHR2H9kn7hDmZHNeOnwACoLCwEPX19SAA+g0YiAiDlPbo0SMAAIZhkX7tdQAAk6kB1dVS/FZREE5v2/NTdvwH5r3/PBlZ9MuK6XYVRsvjDYxCxaG+rB5D4ISB9+Ioq3AXJ4RtYQ26XRe2ldskHdLumoxm12ajKVCpnwxIX7qcZtdv8KVLb5ZuKqRxOH+adN8zib/Rvo6Um46m3Riz0bRFLRHSzoo3IYmF0fd7a3syIAmGf+dFOqQ1fQsgCdMB37OJvmt+ccloZk92qzzTce52zUDTPuMFaF8Az6ceHfmMArSi08NhAQCNGPb9kROlscdyT7wWGyQj1WwoTBaKGRMFROgsWLqeB0vlGBJGjfmN3qeO7Dt4z6mizDVKg7HS7fVM9+cTEhaGmTdKb4/lncCvO3aAUopJk29AqF4Nj5fHxx9/DI/bDY1WhzvvvAMEQH2DFZs2bwYoRbeUnpg68RpQAIsXZ8HcYIZGp8Pdd98NAsBkbsTu3dIxI7FJybjttlsAAEcPH0FVVTUoKJHJFc3XQJFtP38SXbBty8OhDXV3GFh36ClOJ9vXwMBU14g7lG509Xjwso1DQri+uNf1M6elz7rrUqz/W4SOR1JuK1LzAbSMVJwFaW9xerP8siB9+Yt+o43nKjfT97oZLcPG+1+bR6ZORdveWL9mzzb3rH5rZOuOtGs6mo7kPNuC4azzrMe5PqMArbgsBLDrNfOF7AMPHY7SuKgQFUmSVBy6ek+isl6L2kY9krvJkZ5aiaqTCsiqNEW9w/S1GwvMM3fsO6Ly74HTGYx4/OlnkZLSHYePHMMjDz0Ii8WCq8dehwcefhhensffn34Gh/fvh1yhwJx7/4ahQ4egsLAYj82fh+rKChhDQvHIY49BEEW89uprWPfjKsjkMmTMuRvDhw9BQUEhHp03Dw31dVBrtJg3fz50KgWO5p3Aqy+/CLfLCQAKRmj8YOb11x4Zde2wNd350t72worZLps39CQvs3t0IbvEOlu/sY0WXX+zDXKB4sRVBjxLPTjicCaRg5tnYNZdn12CZs9ExyMpF+PMSM3+Mz+AptDu/jz9zEfL/bLny7nKbQsjJPF6Cy13UuSg7ejSzQMNNLf9t0a2zsSFiVD9W+qR1SrdudrqiqfTu8AAUF6SR1xu+6SR+kImPD8P6sOHEVxrRqqxAGnJ5egZ70CJxYDorjzGTLXVpD84Y3y1KH9TrlZDFEUQwmD6Tbdg+vQbAMLg9X+/ipLCAkTHxuOdd99GsFGHTdnbsHrVSlAq4rqJ1+PBhx6AjGPx0Qf/xZFDB8FxMrzwxjtIH301du89gK//twSiwOOa8RPx8Px54FgW7739NnKPHAbDcnjiuYWYPHkSrI02/OPJx1Fw8iQopaCUEqvV0auo0nSTzlL4Wa2MvfXdXHftJk/oP4dnzO1+/bj0W6ag0XlNjRlKXoQ7lMHwqBo0OOWI9bpk0Sdyn9z75b8vxQLSFZC+JOloOhQoB22HkSo6R17+cbAVra6bcf5Rmc+n3POxpfm15uN27ZVxvtebl9HRdj0bF6oeAc7CZeEBHt+/SjUotHIkGy5gWWFXjBtcBY3KCSevAceKiAqzYfORcJQ0KNFDdAzO3b7r/ui4iGWlJZWPazUquUyhQEK3ZPCUYuevu7F/r9RF7dmzJ1RKBbyCiLffeA1ejwcKlQoTJk4AAJRX1mDjhvUApUjq0gXXjRwCURTx/ttvw+WwQ6lWY9KkSVLaqmpkb94ESikSEhMxa4Y01PLzhs04kZt3ui7GID0qa0zQBhmKahn9EzdPGLoldsBNtvSR41yHD2/DyfXfPdqrrjGUchSsRkRsohtVeSokaB0wWwlkje54+97tPXAbLvY4YAYu3yjPf2QyEGjXPwyXhQDKzSei47iqZAejBBWASntflNfXoqTIja6pMaipq0dlhRM9o0REGpxM5KCiG0aNnPDRc9V1yyMVdEZ+rZ399L/vICEhAft27YTLIS3DS+52FQhhUFRYiFPHJZHSqDXoflUKAGBrdvbpEFfJSUlgWQYOlxt5uUcBAGqVGsldugAA1q9bj0aLtLA9MTEJMk6aaNn481rwvDRhqw/SY/yIROw8WCPEJsa8Myvj/u/j4vrQOGkCGod+WmmIKyudFWxyM/AQaPt44T3EosigglLPwnjKBoVTVISZTcnARRVAI5o8k0y0HCPKPjP5OSnyvSbiTE+krWsXk+bjbq1JbJXmQnMh27Uz63HFcFl0gXUe0wC3h9PxKgYDU5wYaFyH3rI8TAwvQFztLtQctqBfhBfJMY2otRshsO5B9rp9d86YPPS+Uqtnu8Mt4N6770Jq796wNzZFkud8YauqqipBfdtqFUoVdHodAKC6qvJ0KCuNL6ABz/Nw2aVYjizLQquVlhmaGhp8uRIYg4IAAG6vgPyTJ0ApBcuyiIoIQkmlm04a2+Orebf2/SAhrk+LWH5qW0N6VL25LxcqgjWIEPMJhGqCWMGFHKsWwY085FbKKAkZdDHauRmpuLCRlP15ZLS6ng4p7t2lJAfSeFhrW+C71vz84AvNhWzXzqzHFcPlIIDE7qATK7xBnNOrRVS37lDEWREyzIuQYSZE9apEWKiICJ0dxhAbTGVKcArCisTyoKgIlRWX1JyyNzrQu99Q6NRqxMbHS3EAAdRWloMCCA8PB8NKHpvb5YTVF+/PaDCcTuv0iZ5SIUdEjBRaXxB42HyCOmjwYF8eFE6n5GESIq3/AwCRUtTVWlBcbWms9eheT534fIsDnVZ8+EIwV1660CB6lEIjA8JQiFUEAkNQa1DC6HCDowBAwbu9fSGWX8xwQkW+10WQJjDSceaX9nzzewtNS0XS0TTj2Rn7QRdBEpwVaIp4vQJnTmJcaIqald/Rds1A++d9dFY9rhg6XQBX/vhFqNnuvTYqpRFOXgdOK4Mgl0NANKCIAVGEwqASwYlelJiMEDwenCjUwV4tJBqFwgkEhHE4HTh6LBcAcM1110LnC0yQe/QIeJ5HcnISunSX+qEOpwOnTkpbbEeOHgWlSlrbV1RUCEpFyGUyTJw0GYRhYLPZcPDgYQDAsCEDkdxVOuelwBddWs6xGDB4KABpB0l9vRm11Sah4ERliyM9D2WvIoqjB29PLq7uAzMBsQFwEVAngVdFYJXJ0M3WCCJQEAoQXoxDfZ0CF48iSEsmEiFFUt4MacZ2PqTjMUfj/Mes5kMSwXm+/BZDmpXsDC9lEaR6pEOq33Lf780PHb8YFKHj7ZoF6Z/DYrQf8bqz6nHF0OkCWJ67a6JO4YrWRVsh55yoLK1FcXV3WGyhsDn0cDkUUHAERCli3XYWQRoz6g55cfCoanlQzKBlAMB7PFi5fBnsLg/iYqIx8uqrQRgGp/JPYuuveyHjWNz/4ENQqlRwu1xYs2YNBJGia5dkDBsxXBonLCrEtl/3AQBuve1WRERGweN249OPP0C9uREcy2L8hIlgWBalJSXYul0aorv9tlth8HWJAQAEFECLhdD2kwf1EZUVd4aaPQwxA8QDiHYCiIDMRcEQCqOdB8tLPWbCi/ra6oaLPT6bBemLOsb3Y/Rdy4S0Ns0/vpSOthfTtnV9PoAkX35JvvftPd8cf5nZ58i/revZbTzrz9OIlvVrLRrtlUFwpoflt/FcabPQsXYtapYu4yz2/J56tHc9gI/OFkASqad6VaKujlWHISKxF4LlDJyVBuTud2LHr2rsPh6GelGJFUeCUHrSgRMnVUgZImJU98YkQ0jk6T23B3bvxFtvvw9epLjvgQcRFBQEp92Ghc8+hdLKOlx37Vj0S00DFUX8/NMPWLNBWp0x596/QaPVwGmz4flnnkR1bT2iI8Mweap0Dk/BieN45403QKmIydNuRFBwCJx2O55/5kk0WO3o1q0Lho9sNrxDKUWrczyqigozdNX2VMoTML7bxCVppS2IA0Mp5F4KIoUHBO8SuEab41JE1DXjwkcgKULLw5Q6m2xc+oXAHW3X82n/jqYLcB50tgDS6X97993j1VEzjv+kdB5eVYiC7aUwFTogChroBTfUJjcKcwX0C+fwwr080tM90F6VDleIMu3Qri/+RRgiAwBR4PHdF4uxceMW9OhxFR5/5u9QKpWoLivBO28tglwuw2NPP42wiAh43G68/q8FyM07iUGDBuKRJ56CUqVGRXEhXn35ZRDC4P4HH0SfNCki/fq1q5F3PB/JiXF4+ImnIVMoUFlagrffeB0yjsMTzzxzuosNgIqCcFqYt702v1vkybxnNGaehd/D0wBUAESWIC9UC5dCDqVLAKEUoADjFtXmBqvm0n4UAQJceXS2AAIAjLxJ5TSLLKPh0HekGSnj9eg6qjsSBzTC2A/IN4tQKBlU8eGwqQ2w2urx6Wo3+d+KEjml9PQZuo5GK7756ktQADfOmI7UtP6glGLrpg2wubxI7dcX99w3FwzLoqKsFD+tXg0C4PY7b0dqWhoAYOO6tThaUAatWom5Dz4EuVKJurparFsnhdO6edZ0pPTsBUopVq1YjsLyKsRGR+DBefMhVyhAAerzAgEAbGH+DEO9LULupJA7RBADhZdhAAZgvBQKQUSIwwVGAMAQABRyO6/Yt3fXmYeNBAgQ4IJyeQigTt7NpVFxxmQ3XIZg2BRpcLrMsHtVKKzRIcigg1egCI92YVeOHp+9dBAHd5eXZNx99wJKW4aeyj12BBa7GwRAWv80EMKgobYGv+4/BAAYNGggtFodqChi7+7d0kl0AHqkSGsDnXYbln/7NQCgS3IyDAYDqChi/c/rTqft1bMnQAgaLWas+H4ZACAlJQUGgxGEEMr7bLKv/TA4qKL6TqVDkJbbsASEA7haCiICYAj6FVog5wU4dQwETjrFjlDKRrrqLmU4cSOaxosCC3YDXDFcFguh8xzy/jaFjHG4k2GwhUPBCxCdh6EQCArLWHsI62GchKgef9WFMFqCkUEyyBNCNaJA2WbOFiil8Lic8LqcgEYBrVYHEGmG1uk7K1in1UKukCZYTXW1EEQRHMOcXu8HAKUlxaAA5ErF6SM062trwAsiZCwDnV5/ejS8rLgIAGA0GqBSq2BuMFEqCLRh2zKuZs0P/xStnh6cl4IRARJLQetOWwuPkkFush4CR6BWc2A9FBqbAM5DEct5LoUQpaJpqUVztqApusilJNv3mn6Jyw1whXJZCODG7NrvS8srUs3mI2lGvQYRoQYwChZuiAWjxsQtZPQNMZ9+n/twdXV9ZM/h3RFObYhlxKA9u7cNQnMPkBDExMZC71voXF5eAUop9EHBGDJQWmpVXd8Al8sFQgi6dukC1reOr6yszJcFQa+ePUEAVFVWwepbBxifkADOd0ZwdXW17whNBt26SSfQuTweCDwPClCv1yOW//DVUHqi8vaQBi+UZmlSWKwhoDwBYSiISGAOkmGPIIeGMmC0QEiNB3YDB9YtQuH2xF3kZjei6RzahWgpPvN971NxaSczsi5hWQECXB4C+NXSFT89cH9G6IGd+xc/3NdIEKHCpkIPn1vsfu6xh978CgAO5N6w1VRvXhWpEoKog6AXJ7BrzaaJIOT0GKBMJsetd8yGQsaitLwSmzZtBCjF8GHDERFsAC+IWPrtt7BZLVBpNJh1800gACqq67Bzp7SsJSQsHLfPzgAvCPjmq69gszZCoVTijttvBwHQaHNg335puUx4VCRuuvVmAMDx3DyYGswghECv1XCoqZ2vtHn0ikYRFARgAOKikE4woaAgcMsYJCgAM8PCzbGgDKCr4WENY8G4nBdbAKdC2qXRek1ZNiTPbzma1rBdKrIuYVkBAlweY4AA0H9wl7xQnVpMUjgRHe2Fwy26OZYr8N8fPHTgvrCIsGX7S2zUoOUREy5AbmuYxinkaf40I0ePxqS/TERVTT3mPzAX1RXl6NK9Ox565BFQAF9++TXW/LACFMD1U6dj6LChqKyuw0N/+yuqK8oBQnDr7bcjSK/GF1/9H1av+gEUFFePTseYa6+F3enGk088ibKiYhBCcNsdsxGk16LBasO7b78Fl8MOKlJlHz0esTc4r9eZBGlFICPN+IIhgEhPryaLqnSjt6UROiKCgXSZAqAMgcPujtqw4ouL+Q8q0ffaVjd3BSSvsPW9RLSMdDwfHYuynIH2dy5koElkM3DuiMiZbZTZEbta57MIgVBRVzyXjQAOShuRz4uiQ0edcDUAwWrOI1coTo+YzXv8OVfGHTf8vdzKHy+DElTPYLDRHeNxOq8CgG49euCV116HVqvGe2+/jaOHDyEkLBwffrYY3bp1wcHDx/Dhe+/A43Zj6PAReH7Bc1Ao5Hj7zTdx9PAhgAATr5+Ce++/DyUl5fj8k4/g9bjRq08fvPr669Bq1Pjko4+wZf1aMAzBpBum4e6/3gOX24OF//gHDh/Y7wu/LxoVpvq5KqdHwfAAZADhKVivb6ySIYBvCUx9iAxugaCL3QZezoH1BcFXNYqQNbojveaqi/n5ZPteF6HtrViZaOmRpUISxHm+90ZI0Ymz0VJsMnBmlGVA2ibXVjnNy8/AuSMiL2hVZkftWtEsH39ZhQiMN17RXDYC6PYIAhgi8gIDWx2gZJUnhg4dUtk8zR33PFGt0qhXuylgt8lQ4GCpIFBRJpfjztl3Icigw+qfN+GHZUshCgJGjU5HXGwMvLyABf/4O+prqqHRqHHf3LmQy2TYmL0dP61cBlEQEBsbh3+9/BLkMhne++8HKC8thlKlwn33z4VOq0FJZS2+yFoMnucRn5iIF19+CTKOxYbsX7Dx57WSgZRCLuMQQ73EaPGCFXzeHuNz+URpETRlCArildgYHYIdwUEoUmsgV1C41AxEFuBcIhiWMArlRR2hyIYU9LMfpMjBRWjaw9oWK3xpgtB0XkYamryv5vijLPvT+fcEt+5OZ0AKHpDVTpn+fNN8+aQCmObLP/M87PIHI3gETecHp/psymin7ABXAJeFAB7O3Uze/2DxTHh5XRWrxs+VqEdY/JPPv/CCvXm63cf3cMMSg3umsHaY7DKszjPVR8XEvKxSqfg+qZIT8ePy7+F0SI8NHzUKBMCOnXtw/PAhUEoRFRuLvqlpoFTEiu++hcslHXDUq3dv6LQa1Fkd2Lx+HagoIjg4GP0HDQIF8OnHH8PSIIXO6tu3H1QqJSxOHh99/CncrqYzkBQymUsDkbJeCpFIkx6UAURGGgekIPAqGBw2GqCnAgSRAoIAM8ugKETl8xQJQCFqWRYXmQxIQrUEkmc0D9LYnxktu6zpkMYLp6JlCKYcNEV9bu5ttY6ybEbThv7mTG2VtjlGSOdaZKFlV3wFmkK/n69dqc3eF6HloUoBrkAuCwH86ovlUQf3HHqmV6iW2e0w4HiF/Ztpk6Zua51u89q1KazTMsLTyAAihUIur73umrFvJCQlL1VptBTA6QOPACAqRppHyD2cA1GUZmKjY2Kh0ajACxSVFRWn08YnSXH/yooKYamrAQhBcFg4jEYjeEHEiSOH4A+/HxUdDQAoKixC/sE98O98Y1nWldqz24sngiPsq2KCYIlg4TAS1EXJsL13EA5018ERxIBXEjgJgzyqgIaIOGwWoNJQlCkUsAdzcOkIKmUKxYmiskvx+WRDEgEjJM/pLd91/8FAQFM3MQtNY2j+H79X17x7W9RGOVmQvL0M3/tENAlcW/jzaytQQBaaoi53xK4cSOeVzAbQ4HsfCCYQ4PIQwJN5hbcOijfEjwkWcbDUQinYdYNHX0PPSHfkZIJaTrUejoWXAoRhq6ZMnmAZlD7usd37D+91eXiEhYaeTm/zrf1j2aaupMfjgSCKIARQKpWn4wF6PJIXZ7VapcXIkEJn8YIAlmGgUCpOp1Uqlb5XOQRBCvzCMKwzKjpmQUy4YX1+o9dTr1Tj47AoHInU4ouQMHznVmCVzIDNiWGwRsjQnXEhSE7hUckwNoTHgSqgAhw8WgJziBwOhmUc9KwH5vxe0nHmmJzfc0pE213WtjBDWjdoPke6bLSMb+f3BrM6UMZvobVd6ZC6wAchdaHnQer6X6zyA/wB6PRlMJXWo0q5x3bXXck8K1gYmOyCJyapW15baXmeV5i9LFxKDg6PCEEQi17Za7uBHM9PPXL0+Kbq2jpV6uBhvdb89CMBpcg9chhjRg1Him/nBihFVWUlHE4X9Bo1evbujT07dwCEoKpSGm7s0TMFHCcD7/Wgob4eprp6xMREIaVPP+zYKgVQqPSlDQsJht4YAqu5XoiIinpn4oyZbyZpRWKMqLpx2+ZfVjrcXn2xSoWY6HAhxWP2BmuoWCLquAM2jcxpdxKRUnjtIg5QHfqoCXoTB2oMKrhkHDXLNLVdExLOOF7zArICkjgktnHPjJbnWPhFJAO/b13gIkgTEYmQxHXLWfLzl9mWfeloeSBQR+wy+8pfhKadL5mQvMJFCAQXvSLpdA/w03eWDOqm47sG8x6UUTnsPD3Su0+/0rbSJsRHnzJ5GSeREchFHiqttibaUXbbpCnTnkvslUpNTu+oo6dKH9DrDWtYjrNs37YVXp7HoMGD0KuftFqmpqoShw5If+tTpk6FVq8HKMWxY0fhcHsQFmzEmPETQQiB1dqIvXv2AgCmTZ8OnUEKe3X40CHwoogGm9sx9Jpx22Ni42594bnM55+Y95B3xt3zPPOefXBbeq/wUzN76BAfoUFRg3fp/benxY4cnRZ7slGd4mF0twZrgt5I1Gp/6aVTFgzVMoVyKjq2uxm8Y+XwSh1TwA+aNOeam+Z6LmLTr4A0fpbRxj0jJO/wYLO0aCdtJiTxab3spL0y/c8k4OzeVw7an6RY5Mujo3b5xwgTfff8Y5KZvvcdsT3An5BO9wBP5BV2H6WB3MnIkO9gaHBo6CdPPvOkq620986+Ke/Jh3OO82FMmo0niImLqi/KPxZUcjLPk9Q79XDm325sAPDf3JlzPlz6w+LEbRvX3/nV6m13Thk7POqpZ59VzL17DrHbGvHJx59g4KBB6NO7J8ZPmIhlS79DaVEhXnr1TSx49gk88eTjOLD7V9TV1ODdd9/B0KuvRvcuiRhz3XX0x2XfewtO5Vc9+fIHP4VqFR+/89qLhwG0CIAKJkZI4NxliY76tMgoAwoL2cbga1+uDwawZBYaABQA+KbQUsacyClUqFiWLl2+5H7nyROvj01RkLVlvCGuSxf3mS1wQcmEJAyLIXlDzT3CTDSFdgckIVmCpoPHs3zXMyB5UG+hY+dTFAFY6XvGgvYDgTa38U1fuixfGfMhdWGnnYddfu8uG03CmOjLq71JmABXAJ3uAQYHGxt5ntAamQbFPGMaNnzEmvbSxiQPcnkIu5zIRMoTUK9HLAkKDVWwDG2sPrb79CFCKb3DxOeefbLgyflPvVCUf2LQsg07/1JhFf7Td9jVRwGIO3/ZgoWZC+F0eXDf3Lno2bsPqChi2f8+wWeLlyAhLgZzH5oPhVKJ4lMn8ehDD4prt+4tik9Jey8uIWF6nz59hzx484QHdYyjGE3iR9AsYKZZpi1zBclR4KJicET4hrbqk2SIFcePvto5auRw1+ABPZdfHcU29oIVsVpWzROP6sK0cLsUQRK+LZDEwh/B2L9+bxpaClQGJEGZ7Uu3GU0ik3ke5a5o9nou0VyElhGRN6NpLK+593cuu4rQNNGzGE319HuHAa5QOl0AIyKDCxiOE02CAhYvOfTsc/8oPlt6Jy8eOmiWC4JIiQuKOSqZYiojV4oQRb512msnXysuePRv9bHdVFtO2fe8MOvuWcMGDBkyXW3QFqxb8yM2bNyEmPg4fJK1BDHxCeC9Xnz6wfvILyrH2HHjMPb6KaJGq91qNTfcYq2vTHv47lseWr95009jJ11f+0HWpyl2zvTTV8uz+gNA1hdfK9eu36D3l20SZLl2mYKW8+raiZPGnfNs3Ntvvqky1CArk3t5yAmxKhm141zPXAD8M6lBaIo4nATJO2rLO5vfKm2Q71pzIUvH2RcXZ0H6R5HRxr22ns1Ey4jIiThzBrcjdq1A00z3GDStFQyM/V3BdHoX2OP1RhpAmVoHgZsw2edKr9FpLHk1DWKqikCr015jt5mXKjhmLMsSkvXlN5EKrb7+lhv+wgNga+z1ZMu+7LClOTvucoiuIetL8kzM0GBW3z9N7rLYsXj9N9iVcwATJk7BkCFDsKykGFazCY8/8Qj0XSMg02po9zuuqeKjVZH/V7H17o1vbS+aMnDS2riYaO/efbsNxrigq0qtVZMB7M+4/RYXgNPd1mqXUORkORFEfmTq9TdVn7MhmEg30SjzGYHpSQV5TUTXcO/vaNbzxYyOdwPPJ+2F5FxldtSugOAFOE2nC6C1wdLFK7Ik38wLUTGRZ6z9aw3LMd5Gh5fyGjlq62q+ikqMX1177PgUj6X2xQM7t15rCA7d/v3+H8yOYLa7ScUQDaVFXnvjzSIB06ik0HgBm0qEUy+Dledxyn0Y2/+7G6TGjbBeiZD3isDJBCXkHgvCTVaW95JZYnHDzAYVSJ2D4T9e+ok5IiLi6auvSdtd76yTH9x58ob/8P+2m2ssfYmXfC4f3mWzxVIXZIjQ6Q2WUupoJOVoFSK/PRq8bHEy5wbnFUp6xvS42GOAAQJc8XS6ANbXmGOphkWVW6iZPGLQwXOl51iGU6tlxCuXUVmoqrKq8cTj5cf2q902x61ejxuMXD7NdaQYTKIB7mgZiIMOV1IWWi9gVYtQeFk4FARKN4swGwPORUCUcpBoGZyJYahRAwYHgcLLoj5MgEvlBeEZEmHiAJFypTE0lC2s/PeavArzwPRUTUh0WJqdwQA07AAADulJREFUc6ZyWgUxaNVhFccLNQXV5f/Uud2RI1QKzuLiVW+tWxw3b/xdbc5sN0fB0GKBMmAF0X6utAECBPj9dKoArlyfJY/Xkr6NXkDkZDmjR02yAMDyvD2KfVs2hAoGg8DYrNzg/kNqbug/xgMATrc7SM4yjIzjiK20/EkSZSQsx4EQAipS2EwmyOx2CKcqIVPIYLPaoO2dBJIcgjArA4UTkHlZEIgQ9DxEPYVXJ4PCLCCkwAV3XxY0iIfNKYOTo9CbFdC4AJuOR0g5g37eINR0J8FCjSt4/+FjMJktUJSp/r+9O49t87wPOP5975cvT4mUKNKWLVmSZcmXfMa1EztpDndtst7N1gTFum7ZuhXtH+vWoSmwFRjWtcDODBuwZS02dCnaJt3aJM3iJG5OO3bs+JBiSz5lWQd18RLJl++9PzxsxbAhadcoK/R+/iZA4nmALwjy9z6PkDA0LEM/mIrG91v1ppGzm1z2NAquc/dTZ49tPDtz6Su39Q19b+eGHc0N6XU+/3X4y3+SNW2ubBqg6Mvx+18otOK9owG8cHI4kxS83kJDwPGCyuruHv+7J16Mfv+5x75QrdUeEEdtOYDgfGXu0SePHz5tKMZww/N+q7LYkEfcgOpcRYgEICc0sl1t2DXzRlYkEd/z8D2f+NosclbA63Qp6z6iL9BS0LDUAL0sIBdcdB0a7TL1No9oTUGpKNR1n0bUonNaRkz5yC02zajE9Lk5ynGNIAm6kcRQJSKiwHXDpqjXhOxCxQhOXmWkaTOqqdQDPyIGzcHm4uxXWzLjpeMvXVrsS+dL1XKl77277zzsB565o2PTjcf4hMiEGxjMms7bOf8XCoX+wzsawLGx671jb1zviCkSesy48+4P3v3VyJb8L1pLZm8gIqG4OO0Colz4zWtlyRUaYlCdL8nr9vZSePUyd3W1cqa4hLWuHTcTRVNbcBUBVw7QLNC1ANcTMFUXbVEm40M55eHJPtGKCE0HTwoQZIHOCyXcTJzRHDS1AN0T6SxEMFt87JRDfFJFUcBcD61THqIlUDSq6EsWS00bTRHJVZrIFZP2dIzAdjk7U0FPxxHxiUSaHWcWTz1a15Ti6dOXzXgdXpobPZFTU4dWRVPnO1KJ2bSMshDoLJpmy5uvXigU+r96RwL4w8f+VnUr1+7a2xd/0HE6jdOnLhA1rfT+ddLvPvv9Y6QH12JujiH3NSg4IpInUUKQFR+6RlIsVSxcReaC7eMLkJ8rUxyf5/JMkVg2TcfmFmI7FVpiDp4QcOVcCtG8cTpLS0WCyRqyphJ4Ac25JZqzRf7g95MUafDQUQUnIjBvwEIsYHVJJLqoI5Us3E6R9oqPvCqgsagg1HychELx7FUSqSQxQ8VNGFypNSETR6laKJpCMu/S1loVBT/QPUvNd6zWubAgcq3odNf8xkevMmPHksrlTzi1sTlLYLqw0D8yejSueqP19Rs/6b/5ioZCoZ+G8OOXCr3d/vHhv5H05oU7d21Vv5zu9LcTs+WyqfHgg2OICzW6oxKHZ+uInkcin6JqyOAF6KKK3GqABnahgRdXCFQJLymTXLSRmxJeo05dDAh6NLwun4bhIQkQ8UHyRTxLIlFWsRcVBBcU1yOdcChcabK7U+CBW6Zp6HG++LCBo2kE7Rq2LeGnPLw2i5IPXtzD0DwCEbp9iJkilYZKsRBhPhrgStAUwQcMLyDdFNEEAZWApYiHKfgorkBCCWhNuFwtRtCWQJhvoM01sGeK7NqRZ9e+NcH2rV2FeKR+calqfn3J6n9k89D9b2ksJqKpCjBqWnbP27ubodDPv2X9Blhdurh6x27zq2u2JLbYzWmmCxIXZyTi8TjDhQrjNR9fFIilYkRiBoXz1xEEMPpzVLc5KJpH0FCoVyKotgC+QCMjodogCQpS3GeivYkSSKgVjbgrotoysguiJ+ClPCK+gDTl47hQK/pkBzQ2J118KYNZ1cnnfYwdNmefBckVUWMy4xERxROJWwoRx6cWgBXxEHSHllgDsyiTLSpUYiBqQAAxw6WecEhnTAZ0gbmaSMEUCUYNhKpHWdVJVOp4hSXyOJRMj7rncd+nusikBCEuj+ZkbzanRuPrHLd5Cu4/u5x7FQqtBMsawKZnRS4UlFT/pimKcx6TM/vpzLv0D11iUvCw4wqOCjZQUcAY7MNPONQSPhOCS1MAI+piKA0iCyrRSVAXTFqjUfKdGdpz7fhamoQWY3pmARyPzjVtnDw+zC99+ADXC1OcODPObe8b4PXzoxw9co6OjQIlV8UTTCxPwO8XOfGEQ1bQ2HvLThrJNHtMj761Oa5dmyHf1kKzaZFIRqk2TRzRZltXhcWFEsVikfnyEvVWjyW5QZCwSUguY02RUhCwqAQMbGjQmFExTYFGREVLtlDVFaxrS3QqeZaqvdQnx9A9nzVrWgj0pjFXXTL6lnOjQqEVYlkDePvBjxSWJkZPP3VodM3GHot4UiaR9mjriOFeClBFF23hxuO0ZrvAZN7iJtnnbEllbaCQ9SNknQTdWjtr12aptPvs2bWdUxfHOX70BHpZ5eThp/mNz3yaf/7OP5Bbs5oPHvw8Lz7xDIN9HTz99AucOPQq77tjG/GEhqjJmFMec3qA4NRJKDVqdgd2wWLtgfX0bx7gGw99k/ZMhoyg8crjT9DdP4gqwNDOzfzLN75Fe2eez3761+hal8PxBUq1GoeefxVVC7h8dYx6tIqgVyiJDdpUm2TCBF+gWRSJF1X8aIBT85E1lWR3G1u27kZcnMctVplaLDN8TZ6emo9P79u3nDsVCq0MyxrAet2sZPqzT26WtHuujk4L16+d4sJ4lMLCLG5EpNgOCUSESxUUU+bdToy+tjwfX7+BTKaDF0+NcfXiFdxujezqbr7xR3+K1wwYGhrk0fNvcOmshyJKdK/vRzUM4skWTp4cZnGxzLHTl6iUlsh0tDB6boKpyTl8x0MQBIRIgEeUmbpOUvAgCJibKtCsltCjUfI9PZjz8/QNbeXE8y9x64H9dPUPoKgya/v7aU2liSgpooBZ83jx8ScRFYW+3i4euPcB/u6RR9nZvQpRs5ivTGDPF5CmXUqZAMMMCIIAryOCZVrYTgPTX8PpMy/i1ufYtq3t+R27N8+86eKGQqGf2LIG8JY97wtOjXz/37SW+dn+wUbHs2cF6uMVetdv4mO5BrFonKniJLH9cfRoEjkW50N370USFbwg4MyJYaTAo6O9jSsXx+nr7eXksWNs2rqR7Tu3+4XLl9H1iH/62BH7vQd2N7LZdnPPzVutoXVaOZONutGDA1sWq52Gq2gcHTFBEmlWLcy0zkwtxpkphUbQQGkxKDaX0JMS6dYoxevj7j0f+cBc8fFD4v2f+hXJkCRh+NRpdXBwQHYX5kUBwRGFQBMEQbl+fULYvms3Lz3/I/btuomjR9/g5HPH6HjPnXhJnWsnlugdHOKmPQmujl1CbZFYsEsEgUBc1XjqmVfp0AW2bs3Rqs/bE5Xs93o3fGI5nwsOhVaMZR+D2TYwcL0yPvLoayPlzzz/zDk+dv/7eerQS5RKRXI9vcTx6YtHefxfn+Y9t+9DFFRkUUUIYGjPHp784cuItsUdB3bzyQ/fZXtabDqzOnv8ox96/5GYoS54srrY8IKCcWBf1XSwh6cLzXS60yrWrhpr84VXAvVKz5M/UliM6EgJDU/y8fImr02mKWBj1hXsTSkaBZsXf3CYD/3COnCsc7Io3Pu53/u8ZXum6vuiIxDolXdtU30EKZFONBpWJVc0G5v0pPyu/Qc27dy1ZdWq9f29+le+9pDQv20zjYbF3Qfv5NUfPkf/HfsQo0kOvf44v/2Fz/LIPz1C07IZunUv3/z6Y2za2s/sGpv37GpccmI3v7bcexQKrRTLPwcorQ9KdfnhpO7emctEei8Oj0hD/Ws5e1HEKi3Qls2STLUQEQKmJmcolkwyadV3PKvWlUsu/vEf/s7FlrW50YYvnDQD5TXBC66t6ehu0sH/OC83kL9xMdLf/9UT2+Py9fyaLvjAXb3oLy8yXm5SUSOMOC7aYpPcUJ35U0mSlkfa8sh0ZJmYXaIzZUlW+eW5lHFz8cY5oTdkk9kfe6fk+ViEw7rq/7VZ0TQ3ZXfq2vTWL3/pl2965cjwRlmM949NXMy3t7dqd9y2j2//4FliEYNXjhxjdUuKC9MFyrMzdKzKMTZ6lQ0tIhWn7fimwbtrb+d2hEIr2TsyCD0603I2Ed279+DB83s39Bv3pQxlz63Xh3LRtoSsKb5vxDPlLYO/uuiqscujszPD+cB8LipoV0Q1uVBLCWbcEdy+XN9PNMC4ypjbsDU3rMd6e2gmszwweB+lqsvsxGUOj7zAkewkmbOruLc7R09vnPbOPgJhCSaOIJUuZIjtSQPFN3uf9livTwwTNl8ALjSd6Udvv0ORZDEetRqN7ls23nuP557fMzl27ngirq5774HBD//5X34r6tZMkgkZ0bHYvXN9kIyXZ/XUum//tGscCoXe3LIOQv8vxNdHnosFQaW9snDViMQS9dzqgbKnJGspN+KmO3p/JhcDnXjma909LS98K5HbcVOQugXUAZYcCcQ4juvzpT97kM/d9+skWhVc8zwJI0XgzsD8ZRoXXy5Eem+9tW3wi2M/i89CYErgBQ3rkiZh3z4x8UZfXLFySiwvOLZWjSjVUavhvCop66fSq3b+RE+ChIPQodBb9/8hgMtmcuS7bXp07qFUevAeMdqjC+iiIKUAle88/Cd84OMP4MsNvNrraJKAW3wBU2ptLjj5L6Vz7/6LVmPN23lL289EGMBQ6K1bUQEEWJg9oxTKUxtX51bv1NTEzYLUtk6StK7At2KyKImmOaua1TOOb1evlCuzR8pB9rF2dfVLXQO3/lz8ExsGMBR661ZcAP+7hZlxyVY9bbJpRCRJ4tyVc/Fm4ZLd39GzsH/vbT93x1JFNFUAdpuWfexNXxwKrXArPoChUGjlesdvhQuFQqF3ShjAUCi0YoUBDIVCK1YYwFAotGKFAQyFQitWGMBQKLRihQEMhUIrVhjAUCi0YoUBDIVCK1YYwFAotGKFAQyFQitWGMBQKLRihQEMhUIrVhjAUCi0Yv07r5RJP7fYTEoAAAAASUVORK5CYII=;" vertex="1" parent="1">
          <mxGeometry x="55" y="66.25" width="150" height="37.5" as="geometry" />
        </mxCell>
        <mxCell id="wo6zQ_CCHhRpuCBlTyBM-6" value="Latest News" style="text;html=1;strokeColor=none;fillColor=#115A21;align=center;verticalAlign=middle;whiteSpace=wrap;rounded=0;fontColor=#FFFFFF;" vertex="1" parent="1">
          <mxGeometry x="40" y="115" width="80" height="10" as="geometry" />
        </mxCell>
        <mxCell id="wo6zQ_CCHhRpuCBlTyBM-7" value="" style="rounded=1;whiteSpace=wrap;html=1;" vertex="1" parent="1">
          <mxGeometry x="45" y="126" width="170" height="84" as="geometry" />
        </mxCell>
        <mxCell id="wo6zQ_CCHhRpuCBlTyBM-8" value="&lt;h1 style=&quot;line-height: 0%;&quot;&gt;&lt;font style=&quot;font-size: 11px;&quot;&gt;Title goes here&lt;/font&gt;&lt;/h1&gt;&lt;p style=&quot;line-height: 140%;&quot;&gt;&lt;font style=&quot;font-size: 10px;&quot;&gt;A brief excerpt of the article goes here&lt;/font&gt;&lt;/p&gt;" style="text;html=1;strokeColor=none;fillColor=none;spacing=5;spacingTop=-37;whiteSpace=wrap;overflow=hidden;rounded=1;" vertex="1" parent="1">
          <mxGeometry x="45" y="230" width="165" height="40" as="geometry" />
        </mxCell>
        <mxCell id="wo6zQ_CCHhRpuCBlTyBM-10" value="" style="rounded=1;whiteSpace=wrap;html=1;" vertex="1" parent="1">
          <mxGeometry x="46" y="272" width="74" height="38" as="geometry" />
        </mxCell>
        <mxCell id="wo6zQ_CCHhRpuCBlTyBM-11" value="" style="rounded=1;whiteSpace=wrap;html=1;" vertex="1" parent="1">
          <mxGeometry x="130" y="272" width="75" height="38" as="geometry" />
        </mxCell>
        <mxCell id="wo6zQ_CCHhRpuCBlTyBM-12" value="&lt;b&gt;News Tit&lt;/b&gt;le" style="text;html=1;strokeColor=none;fillColor=none;align=left;verticalAlign=middle;whiteSpace=wrap;rounded=0;spacing=0;fontSize=10;" vertex="1" parent="1">
          <mxGeometry x="46" y="310" width="74" height="20" as="geometry" />
        </mxCell>
        <mxCell id="wo6zQ_CCHhRpuCBlTyBM-13" value="Description goes here" style="text;html=1;strokeColor=none;fillColor=none;align=left;verticalAlign=middle;whiteSpace=wrap;rounded=0;spacing=0;fontSize=10;" vertex="1" parent="1">
          <mxGeometry x="46" y="329" width="74" height="20" as="geometry" />
        </mxCell>
        <mxCell id="wo6zQ_CCHhRpuCBlTyBM-14" value="&lt;b&gt;News Tit&lt;/b&gt;le" style="text;html=1;strokeColor=none;fillColor=none;align=left;verticalAlign=middle;whiteSpace=wrap;rounded=0;spacing=0;fontSize=10;" vertex="1" parent="1">
          <mxGeometry x="131" y="310" width="74" height="20" as="geometry" />
        </mxCell>
        <mxCell id="wo6zQ_CCHhRpuCBlTyBM-15" value="Description goes here" style="text;html=1;strokeColor=none;fillColor=none;align=left;verticalAlign=middle;whiteSpace=wrap;rounded=0;spacing=0;fontSize=10;" vertex="1" parent="1">
          <mxGeometry x="131" y="329" width="74" height="20" as="geometry" />
        </mxCell>
        <mxCell id="wo6zQ_CCHhRpuCBlTyBM-16" value="" style="rounded=1;whiteSpace=wrap;html=1;" vertex="1" parent="1">
          <mxGeometry x="44" y="360" width="170" height="40" as="geometry" />
        </mxCell>
        <mxCell id="wo6zQ_CCHhRpuCBlTyBM-17" value="" style="rounded=1;whiteSpace=wrap;html=1;" vertex="1" parent="1">
          <mxGeometry x="45" y="363" width="75" height="35" as="geometry" />
        </mxCell>
        <mxCell id="wo6zQ_CCHhRpuCBlTyBM-18" value="&lt;b&gt;News Tit&lt;/b&gt;le" style="text;html=1;strokeColor=none;fillColor=none;align=left;verticalAlign=middle;whiteSpace=wrap;rounded=0;spacing=0;fontSize=10;" vertex="1" parent="1">
          <mxGeometry x="126" y="359" width="74" height="20" as="geometry" />
        </mxCell>
        <mxCell id="wo6zQ_CCHhRpuCBlTyBM-19" value="Description goes here" style="text;html=1;strokeColor=none;fillColor=none;align=left;verticalAlign=middle;whiteSpace=wrap;rounded=0;spacing=0;fontSize=10;" vertex="1" parent="1">
          <mxGeometry x="126" y="378" width="74" height="20" as="geometry" />
        </mxCell>
        <mxCell id="wo6zQ_CCHhRpuCBlTyBM-20" value="" style="rounded=1;whiteSpace=wrap;html=1;" vertex="1" parent="1">
          <mxGeometry x="42" y="410" width="176" height="40" as="geometry" />
        </mxCell>
        <mxCell id="wo6zQ_CCHhRpuCBlTyBM-21" value="" style="rounded=1;whiteSpace=wrap;html=1;" vertex="1" parent="1">
          <mxGeometry x="45" y="414" width="75" height="35" as="geometry" />
        </mxCell>
        <mxCell id="wo6zQ_CCHhRpuCBlTyBM-22" value="&lt;b&gt;News Tit&lt;/b&gt;le" style="text;html=1;strokeColor=none;fillColor=none;align=left;verticalAlign=middle;whiteSpace=wrap;rounded=0;spacing=0;fontSize=10;" vertex="1" parent="1">
          <mxGeometry x="126" y="410" width="74" height="20" as="geometry" />
        </mxCell>
        <mxCell id="wo6zQ_CCHhRpuCBlTyBM-23" value="Description goes here" style="text;html=1;strokeColor=none;fillColor=none;align=left;verticalAlign=middle;whiteSpace=wrap;rounded=0;spacing=0;fontSize=10;" vertex="1" parent="1">
          <mxGeometry x="126" y="429" width="74" height="20" as="geometry" />
        </mxCell>
      </root>
    </mxGraphModel>
  </diagram>
</mxfile>
